<svg width="89" height="88" viewBox="0 0 89 88" fill="none" xmlns="http://www.w3.org/2000/svg">
<path d="M4.25 55.5927C4.25 62.8824 10.1803 68.8127 17.47 68.8127C24.7598 68.8127 30.6901 62.8824 30.6901 55.5927C30.6901 51.337 28.6608 47.5444 25.5282 45.1309L30.1581 35.9596C36.8864 39.0922 41.5557 45.8697 41.5557 53.7801C41.5557 54.2431 41.5163 54.5682 41.4868 55.0213C41.8513 55.1297 42.2355 55.0213 42.6295 55.0213H54.6379C56.0072 55.0213 57.209 54.5288 57.9675 53.5043C57.8789 54.1347 57.8099 54.9129 57.8099 55.5631C57.8099 62.8529 63.7402 68.793 71.03 68.793C78.3197 68.793 84.25 62.8627 84.25 55.573C84.25 48.2832 78.3197 42.3431 71.03 42.3431C66.2128 42.3431 62.0064 44.9142 59.6915 48.7758L56.1549 47.042L76.6647 36.5507H80.9598C82.4867 36.5507 83.7279 35.3094 83.7279 33.7825C83.7279 32.2556 82.4867 31.0144 80.9598 31.0144H78.5758C76.6943 33.7825 69.9661 34.9942 61.9178 34.9942C53.0913 34.9942 45.8212 33.0142 44.8361 30.4233C43.6244 29.0245 41.8513 28.2857 39.8614 28.2857C37.5858 28.2857 35.5762 29.1624 34.3842 31.0144H33.9114L38.2557 21.656C38.6792 20.73 38.2655 19.7646 37.3395 19.341C36.4135 18.9174 35.3201 19.3311 34.8965 20.2571L30.3059 30.315L29.3996 31.0144H28.6706C27.1831 31.0144 25.6267 30.5711 24.0111 30.5711C17.342 30.5711 11.52 34.2554 8.2692 39.5552C11.8057 36.1862 16.5835 34.1175 21.8537 34.1175C23.8436 34.1175 25.7547 34.4229 27.5575 34.9745L23.1541 43.6828C21.4302 42.8553 19.5092 42.3825 17.47 42.3825C10.1803 42.3825 4.25 48.3128 4.25 55.6025V55.5927ZM80.546 55.0213H75.8766C75.8766 55.0213 75.8766 55.0706 75.8766 55.0509C75.8766 54.0953 75.5713 53.3269 75.059 52.598L78.2902 49.2683C79.6496 50.874 80.4869 53.1792 80.546 55.0312V55.0213ZM78.0734 61.7594L74.5369 58.2524C75.128 57.6712 75.5516 56.8733 75.7486 55.9473H80.5263C80.3687 58.7154 79.4723 60.2325 78.0833 61.7594H78.0734ZM71.3255 59.7202C72.2515 59.6611 73.0002 59.4247 73.6109 59.0307L77.1179 62.646C75.591 64.035 74.0936 64.9314 71.3156 65.089V59.7202H71.3255ZM71.3255 46.1061C74.0936 46.2736 75.9062 47.2587 77.4627 48.7758L74.1527 51.9872C73.4237 51.3075 73.1676 50.874 71.3156 50.7854V46.1061H71.3255ZM63.9865 49.2092L66.9122 52.1251L63.09 50.3815C63.3659 49.9677 63.6614 49.5737 63.9963 49.2092H63.9865ZM70.3995 50.7952C69.4735 50.9233 68.6756 51.406 67.986 52.1054L64.3411 48.559C65.9764 47.0715 68.5574 46.1456 70.3995 46.0864V50.7952ZM64.6859 62.8627L68.5081 58.942C69.0893 59.3459 70.3995 59.602 70.3995 59.7005V65.1186C68.5574 65.0595 66.2916 64.232 64.6859 62.8627ZM61.5434 55.9473H67.0107C67.1979 56.8733 67.5821 57.5432 68.114 58.1047L64.2131 62.0352C62.696 60.4788 61.7109 58.7253 61.5434 55.9473ZM61.5237 55.0213C61.5434 54.0953 61.6814 53.4747 61.9178 52.6866L66.8925 55.0115H61.5336L61.5237 55.0213ZM24.1096 48.7758L23.2624 49.623L23.8141 48.5196C23.9126 48.6083 24.0111 48.6871 24.0998 48.7758H24.1096ZM26.9861 55.0213H22.3167C22.3167 55.0213 22.3167 55.0804 22.3167 55.0607C22.3167 54.184 22.0508 53.4944 21.6173 52.795L21.9227 52.1842L24.7302 49.2683C26.0897 50.874 26.927 53.1693 26.9861 55.0213ZM24.5135 61.7594L20.977 58.2524C21.568 57.6712 21.9917 56.8733 22.1887 55.9473H26.9664C26.8088 58.7154 25.9123 60.2325 24.5234 61.7594H24.5135ZM17.7656 59.7202C18.6916 59.6611 19.4403 59.4247 20.051 59.0307L23.558 62.646C22.0311 64.035 20.5337 64.9314 17.7557 65.089V59.7202H17.7656ZM17.7656 46.1061C19.6077 46.1948 20.2677 46.5002 21.2922 46.973L19.125 51.0612C18.731 50.9134 18.6817 50.8248 17.7656 50.7854V46.1061ZM10.4266 49.0023L14.0419 52.6669C13.5888 53.3663 13.3228 54.0855 13.3228 55.0115H7.96382C8.02292 53.1693 8.94893 50.6376 10.4364 48.9925L10.4266 49.0023ZM16.8396 50.8051C15.9136 50.9331 15.1058 51.3961 14.4162 52.0857L10.7812 48.5492C12.4165 47.0617 14.9974 46.1357 16.8396 46.0766V50.8051ZM11.126 62.8627L14.9482 58.942C15.5294 59.3459 16.8396 59.602 16.8396 59.7005V65.1186C14.9974 65.0595 12.7317 64.232 11.126 62.8627ZM7.98354 55.9473H13.4508C13.638 56.8733 14.0222 57.5432 14.5541 58.1047L10.6532 62.0352C9.1361 60.4788 8.15101 58.7253 7.98354 55.9473Z" fill="white"/>
</svg>
