<svg width="89" height="88" viewBox="0 0 89 88" fill="none" xmlns="http://www.w3.org/2000/svg">
<path d="M84.4858 30.0371V28.0389H73.8191V27.3705H68.4858V28.0389H48.4893V27.3705H43.156V28.0389H35.8244V30.0371H43.156V30.7056H35.8244V32.7038H43.156V33.3723H35.8244V35.3705H43.156V36.0389H35.8244V38.0371H43.156V38.7056H35.8244V40.7038H43.156V41.3723H35.8671L35.8244 45.3687H34.4947V32.5118C34.4947 30.3572 33.0795 28.4869 31.2235 27.6549C28.5711 26.3749 22.2564 28.9918 14.9818 34.9083C7.64309 40.8816 4.10175 46.0869 4.53553 48.9669C4.53553 48.9883 4.62086 49.4363 4.63509 49.4576C5.04042 51.9892 7.24486 54.0443 9.8902 54.0443H17.0084C17.6698 51.6123 19.8884 49.8203 22.5266 49.8203C25.1649 49.8203 27.3835 51.6123 28.0449 54.0443H28.9409C30.3773 54.0443 31.6858 53.3758 32.6458 52.7145H56.8947C57.3569 51.9038 58.0182 51.2141 58.8076 50.7163C59.2627 50.4247 59.7604 50.1972 60.2938 50.0478C60.7916 49.9056 61.3178 49.8274 61.8582 49.8274C62.3987 49.8274 62.9249 49.9056 63.4227 50.0478H77.8298V46.0514H83.1631V41.3865H73.8333V40.7181H84.5V38.7198H73.8333V38.0514H84.5V36.0532H73.8333V35.3847H84.5V33.3865H73.8333V32.7181H84.5V30.7198H73.8333V30.0514H84.5L84.4858 30.0371ZM7.0742 51.4772C5.93642 51.4772 5.01909 50.062 5.01909 48.3127C5.01909 46.5634 5.93642 45.1483 7.0742 45.1483C8.21198 45.1483 9.12931 46.5634 9.12931 48.3127C9.12931 50.062 8.21198 51.4772 7.0742 51.4772ZM26.132 41.9198L10.3524 42.0336C10.3524 42.0336 8.7951 41.4789 10.4662 39.7011C10.4662 39.7011 18.8004 31.2603 23.9133 29.5892C23.9133 29.5892 26.4662 29.2549 26.4662 32.59L26.132 41.9198ZM68.4929 41.3652H48.4964V40.6967H68.4929V41.3652ZM68.4929 38.6985H48.4964V38.0301H68.4929V38.6985ZM68.4929 36.0318H48.4964V35.3634H68.4929V36.0318ZM68.4929 33.3652H48.4964V32.6967H68.4929V33.3652ZM68.4929 30.6985H48.4964V30.0301H68.4929V30.6985Z" fill="white"/>
<path d="M76.5355 50.7019H64.9017C65.6911 51.1997 66.3524 51.8895 66.8146 52.7002H76.5355C76.7489 52.7002 76.9195 51.9748 76.9195 51.6975C76.9195 51.4202 76.7489 50.6948 76.5355 50.6948V50.7019Z" fill="white"/>
<path d="M61.8511 50.4248C59.0279 50.4248 56.7382 52.7146 56.7382 55.5377C56.7382 58.3608 59.0279 60.6506 61.8511 60.6506C64.6742 60.6506 66.9639 58.3608 66.9639 55.5377C66.9639 52.7146 64.6742 50.4248 61.8511 50.4248ZM61.8511 57.8701C60.5639 57.8701 59.5186 56.8248 59.5186 55.5377C59.5186 54.2506 60.5639 53.2053 61.8511 53.2053C63.1382 53.2053 64.1835 54.2506 64.1835 55.5377C64.1835 56.8248 63.1382 57.8701 61.8511 57.8701Z" fill="white"/>
<path d="M22.5195 50.4248C19.6964 50.4248 17.4066 52.7146 17.4066 55.5377C17.4066 58.3608 19.6964 60.6506 22.5195 60.6506C25.3426 60.6506 27.6324 58.3608 27.6324 55.5377C27.6324 52.7146 25.3426 50.4248 22.5195 50.4248ZM22.5195 57.8701C21.2324 57.8701 20.1871 56.8248 20.1871 55.5377C20.1871 54.2506 21.2324 53.2053 22.5195 53.2053C23.8066 53.2053 24.852 54.2506 24.852 55.5377C24.852 56.8248 23.8066 57.8701 22.5195 57.8701Z" fill="white"/>
</svg>
