<svg width="88" height="88" viewBox="0 0 88 88" fill="none" xmlns="http://www.w3.org/2000/svg">
<path d="M23.0133 14.4091C22.1467 14.6091 20.9733 15.3291 20.2667 16.0758C18.16 18.3025 18.2133 21.6891 20.3867 23.8758C23.6533 27.1291 29.12 25.3291 29.9067 20.7158C30.28 18.5558 29.1333 16.1691 27.2 15.0225C26.0533 14.3558 24.3333 14.1025 23.0133 14.4091Z" fill="white"/>
<path d="M7.04 17.8758C6.48 18.1558 6 18.9558 6 19.5558C6 19.7558 6.08 20.1958 6.18667 20.5291C6.33333 21.0225 6.33333 21.1958 6.2 21.4625C5.98667 21.8625 5.52 23.4758 5.41333 24.1425C5.34667 24.5291 5.25333 24.6358 4.86667 24.7825C4.2 25.0225 4 25.4891 4 26.8491C4 28.1691 4.13333 28.6091 4.6 28.8225L4.93333 28.9691V31.4225V33.8625H5.6H6.26667V31.4091C6.26667 29.0625 6.28 28.9425 6.53333 28.8625C7 28.7158 7.2 28.1025 7.2 26.8091C7.2 25.7291 7.17333 25.5825 6.86667 25.2225C6.68 25.0091 6.37333 24.7825 6.18667 24.7425C5.86667 24.6625 5.85333 24.6225 5.93333 24.0891C6.04 23.4491 6.53333 21.8091 6.6 21.8891C6.61333 21.9025 6.8 22.3158 7 22.7825C8.69333 26.8358 12.1867 29.6891 16.7333 30.7025L17.5333 30.8891L17.6 51.2758L17.6667 71.6625L17.96 72.1291C18.36 72.7825 18.76 73.1291 19.4667 73.4491C20.9867 74.1425 22.8933 73.3558 23.56 71.7691C23.6933 71.4225 23.7333 69.1558 23.7333 59.6625V47.9958H24.3333H24.9333V59.6225V71.2625L25.2533 71.9425C25.8933 73.3291 27.4667 74.0225 28.9467 73.5691C29.64 73.3691 30.5067 72.5958 30.8133 71.9425C31.0533 71.4225 31.0667 70.5558 31.0667 52.2891C31.0667 40.6758 31.12 33.2091 31.1867 33.2625C31.3867 33.3825 31.9867 35.3158 32.2533 36.7425C32.76 39.3425 32.9333 42.6625 32.8267 47.5558C32.7733 49.7691 32.84 50.0491 33.56 50.5825C34.0533 50.9425 35.04 51.0091 35.64 50.7291C36.5467 50.3025 36.7067 49.8625 36.8267 47.2091C36.9467 44.7691 36.88 41.6091 36.6533 39.1958C36.08 33.0225 34.2 28.9691 31.2267 27.4891L30.2133 26.9958L23.88 26.9291L17.5333 26.8491L16.5067 26.5158C14.0133 25.6625 12.12 24.0758 11.0267 21.8758C10.68 21.2091 10.28 20.2225 10.12 19.6891C9.77333 18.5425 9.49333 18.1025 8.88 17.8091C8.28 17.5291 7.65333 17.5425 7.04 17.8758Z" fill="white"/>
<path d="M50 23.5558C47.3733 23.6091 42.4133 23.8491 39.92 24.0624C36.08 24.3958 35.72 24.6091 34.8133 27.0758L34.2533 28.6224L34.7867 29.3958C35.3067 30.1291 35.3333 30.1558 35.4533 29.8491C35.9867 28.4891 36.4133 27.7291 36.76 27.5424C37.4133 27.2091 38.68 27.0491 43.2667 26.7291C46.8 26.4891 52.3067 26.3958 55.7733 26.5291C61.7733 26.7558 65.7067 27.0491 66.6667 27.3424C67.2133 27.5158 67.6933 27.9291 67.8133 28.3158C67.8533 28.4758 68.5467 29.9424 69.3333 31.5958C70.1333 33.2491 70.9333 34.9424 71.12 35.3558L71.4533 36.1291H54.3867C40.84 36.1291 37.3333 36.1691 37.3333 36.2891C37.3333 36.3824 37.4267 37.1558 37.5467 37.9958C37.9467 40.9558 37.9333 49.1424 37.5333 50.1558C37.44 50.3824 37.6533 50.3958 40.92 50.3958H44.4V47.1291V43.8624H45.4H46.4V47.1291V50.3958H47.0667H47.7333V47.1291V43.8624H48.6667H49.6V47.1291V50.3958H50.2667H50.9333V47.1291V43.8624H51.9333H52.9333V47.1291V50.3958H53.6H54.2667V47.1291V43.8624H55.2667H56.2667V47.1291V50.3958H56.9333H57.6V47.1291V43.8624H58.5333H59.4667V47.1291V50.3958H68.4667H77.48L77.44 45.8891C77.4 41.4491 77.4 41.3824 77.08 40.7291C76.6267 39.8091 74.96 38.1958 73.7733 37.5291L72.8133 36.9958L70.8 31.5958C69.6933 28.6224 68.72 26.0358 68.64 25.8224C68.4267 25.2758 67.6933 24.7024 66.92 24.4758C65.32 23.9958 55.4667 23.4624 50 23.5558ZM71.4133 41.1424C72.3333 41.7024 72.84 42.5691 72.9067 43.6758C72.9867 44.8358 72.6933 45.5558 71.8667 46.3024C71.0933 46.9958 70.2933 47.2624 69.32 47.1558C66.5067 46.8224 65.4267 43.2624 67.5867 41.4491C68.3067 40.8358 68.8533 40.6624 69.88 40.7024C70.6 40.7291 70.8933 40.8091 71.4133 41.1424Z" fill="white"/>
<path d="M68.7333 41.5826C66.2267 42.7159 66.9733 46.4226 69.72 46.4226C72.0267 46.4226 73.1333 43.5293 71.4 42.0093C70.6133 41.3293 69.64 41.1693 68.7333 41.5826Z" fill="white"/>
<path d="M50.0533 27.7025C49.9733 27.7559 49.84 27.9292 49.7467 28.1025C49.6133 28.3559 49.6133 28.4759 49.7867 28.7425C50.08 29.1692 50.3733 29.2225 52.2667 29.1692C53.6933 29.1292 53.9067 29.1025 54.08 28.8759C54.3333 28.5159 54.32 28.1825 54 27.8625C53.76 27.6225 53.56 27.5959 51.9733 27.5959C51 27.5959 50.1333 27.6492 50.0533 27.7025Z" fill="white"/>
<path d="M73.9733 32.8624C73.4933 33.1291 73.3333 33.4491 73.3333 34.1158C73.3333 34.6491 73.32 34.6624 72.8667 34.6624C72.6133 34.6624 72.4 34.7158 72.4 34.7958C72.4 34.8624 72.56 35.3158 72.7467 35.7958L73.1067 36.6758L76.0933 36.6358L79.0933 36.5958L79.48 36.1558C79.84 35.7558 79.8667 35.6491 79.8667 34.5958C79.8667 33.6091 79.8267 33.4358 79.5467 33.1024L79.2267 32.7291L76.7733 32.7024C74.8 32.6758 74.2667 32.7024 73.9733 32.8624Z" fill="white"/>
<path d="M6.79999 49.7292V51.0625H11.1333H15.4667V49.7292V48.3958H11.1333H6.79999V49.7292Z" fill="white"/>
<path d="M80.16 49.6893L80.2 50.9959L82.1067 51.0359L84 51.0759V49.7293V48.3959H82.0667H80.12L80.16 49.6893Z" fill="white"/>
<path d="M32.1333 55.9959V60.7959H33.64C34.8933 60.7959 35.2 60.7559 35.56 60.5292C36.08 60.2226 36.12 60.0492 36.1733 58.2626L36.2 56.8626L52.3733 56.8226L68.5333 56.7959V58.3826C68.5333 59.8759 68.56 60.0092 68.8533 60.3559L69.1733 60.7292H72.2H75.2267L75.5467 60.3559C75.8667 59.9826 75.8667 59.9426 75.8667 57.3426V54.6892L76.3333 54.6092C77.28 54.4226 78 53.3959 78.2 51.8892L78.2933 51.1959H57.5333C37.5067 51.1959 36.76 51.2092 36.4267 51.4492C35.48 52.1026 34.3067 52.1292 33.2267 51.5292C32.0533 50.8759 32.1333 50.5559 32.1333 55.9959Z" fill="white"/>
</svg>
