<svg width="89" height="88" viewBox="0 0 89 88" fill="none" xmlns="http://www.w3.org/2000/svg">
<path d="M15.4081 19.3173C15.4081 19.3631 15.5304 19.6534 15.6984 19.9742C16.2637 21.0742 16.5234 22.6325 16.447 24.3131C16.3554 26.0089 16.0498 27.17 15.2248 28.7894C14.7665 29.6908 12.979 32.5325 12.872 32.5325C12.8415 32.5325 12.6429 32.1964 12.429 31.7686C11.5734 30.0728 11.3748 27.9186 11.8943 25.8867C12.0623 25.2297 12.1998 24.6492 12.1998 24.6034C12.1845 24.5575 11.8026 24.9242 11.3443 25.4283C10.8859 25.9325 10.229 26.895 9.8929 27.5672C9.00679 29.37 8.80818 30.5158 8.8693 33.8922C8.91513 36.5047 8.88457 36.7949 8.5943 37.4213L8.27347 38.1088L8.01375 37.2074C7.55542 35.6338 6.6082 34.5797 5.35543 34.2283L4.91238 34.0908L5.26377 34.9616C5.75265 36.1227 5.73737 37.8033 5.23321 40.4005C4.71377 43.1046 4.60683 45.4421 4.94294 46.7254C5.76793 49.8726 8.4568 52.7448 11.7721 53.9823C12.9332 54.4254 14.629 54.8379 15.2401 54.8379H15.6831L15.179 53.8754C14.4304 52.4851 14.1401 51.3087 14.1554 49.7962C14.1706 47.4587 15.072 45.5032 16.8595 43.8532L17.7609 43.0435L18.1734 43.5477C19.9609 45.7476 20.7095 48.6198 20.0678 50.9573C19.7928 51.9809 18.9373 53.4781 18.097 54.3642L17.6234 54.8684L18.2345 54.7767C21.5192 54.2115 24.6817 52.3476 26.7442 49.7962C29.1122 46.8324 30.2886 42.2949 29.54 38.8421C29.2344 37.3602 28.8678 36.3977 27.7219 34.0602C26.0719 30.6686 25.7817 28.8353 26.6067 27.1547C26.8053 26.7575 26.9122 26.4214 26.8358 26.4214C26.5761 26.4214 25.5525 27.1547 24.9414 27.7811C24.2845 28.4686 23.4747 30.0116 23.1997 31.1269C23.0622 31.6464 22.9859 31.7533 22.8331 31.6311C22.3595 31.2339 21.84 29.6144 21.4581 27.3839C21.0303 24.8784 20.6942 23.7478 20.0525 22.6325C19.4262 21.5478 18.2498 20.402 17.272 19.8826C16.4165 19.4395 15.4081 19.1187 15.4081 19.3173ZM20.9539 37.5741C22.5886 40.7518 22.9706 41.7602 23.2303 43.731C23.3678 44.7851 23.3678 45.4115 23.215 46.6185C23.0164 48.2532 22.4511 50.2851 22.0539 50.7893C21.84 51.0795 21.8248 51.0795 21.9623 50.6823C23.0164 47.7337 21.7942 43.9907 18.7845 41.0268L17.8678 40.1255L17.2873 40.5532C15.4387 41.9435 13.6054 44.0824 12.6887 45.9157C11.6346 48.024 11.3596 50.4226 12.0165 52.0879C12.4443 53.1726 12.0318 52.699 11.4359 51.3851C10.6873 49.7962 10.4887 48.6962 10.5498 46.7407C10.5957 45.274 10.6873 44.7699 11.0693 43.6852C11.8484 41.4852 12.5359 40.4768 16.0804 36.2908C16.7984 35.4505 17.6692 34.2741 18.0206 33.663L18.6776 32.5477L19.0901 33.6477C19.3039 34.2588 20.1442 36.0158 20.9539 37.5741Z" fill="white"/>
<path d="M44.8941 39.881C41.9608 40.156 39.6386 40.4921 38.7219 40.813C37.24 41.3171 32.5344 43.7616 32.29 44.1435C32.2442 44.2199 32.0303 44.8768 31.8317 45.6102C30.9608 48.574 29.6622 50.7129 27.34 53.0198L25.7053 54.624L26.4539 55.1434C28.7303 56.717 30.2122 59.6503 30.2275 62.5836V63.5461H45.0468H59.8662V62.5836C59.8815 59.0698 61.8523 55.8768 64.9231 54.4101C67.6731 53.0962 70.2092 53.1115 73.005 54.4865C75.8161 55.8615 77.8785 59.192 77.8938 62.3545C77.8938 62.767 77.9397 63.0878 78.016 63.0878C78.0772 63.0878 79.223 62.9045 80.5674 62.7059C83.3174 62.2628 83.9132 62.0031 84.3868 61.0101C84.7993 60.1545 84.8299 59.467 84.6313 55.8004C84.3868 51.5226 84.2341 49.8574 83.9896 49.0324C83.7604 48.2685 82.9813 47.4129 82.2174 47.0921C81.6674 46.8782 79.3605 46.6643 75.6786 46.4963L73.5397 46.4046L68.605 44.0518C65.9009 42.7532 63.2273 41.5158 62.662 41.3019C61.1189 40.7213 58.7967 40.2019 56.5815 39.9422C54.3968 39.6824 47.4607 39.6519 44.8941 39.881ZM57.7273 42.7685C61.3481 43.4102 63.38 44.2352 63.38 45.0602C63.38 45.5032 62.7078 45.6102 57.5287 45.9768C54.9315 46.1602 52.4565 46.3282 52.0287 46.374C51.5857 46.4046 48.7746 46.6032 45.7649 46.8171C42.7552 47.031 39.9288 47.2449 39.5011 47.2754C39.058 47.306 38.1872 47.3824 37.5608 47.4129C36.9344 47.4588 35.4066 47.5657 34.1691 47.6726C32.9469 47.7643 31.8622 47.8254 31.7553 47.7796C31.3122 47.6421 37.133 44.2657 39.3177 43.4102C40.0816 43.1046 42.8316 42.7074 45.8107 42.463C46.6968 42.4019 49.3093 42.356 51.6162 42.3866C55.1454 42.4171 56.1232 42.4782 57.7273 42.7685ZM62.1273 49.5976C62.1884 50.1935 62.0509 50.2393 60.1717 50.3004L58.8731 50.331V49.7962C58.8731 49.3074 58.919 49.2462 59.4078 49.1699C59.6981 49.1088 60.4315 49.0782 61.012 49.0935L62.0814 49.1088L62.1273 49.5976ZM42.2969 50.5601C42.7399 51.3698 42.0219 51.706 40.0052 51.599L39.0122 51.5532L38.9663 51.0643C38.9052 50.499 39.0274 50.4379 40.5399 50.3615C41.0441 50.331 41.6094 50.3004 41.7927 50.2851C42.0066 50.2699 42.2052 50.3768 42.2969 50.5601Z" fill="white"/>
<path d="M20.2053 56.2128C18.3262 56.4878 16.3401 57.985 15.4998 59.7878C14.9804 60.8725 14.8123 62.5683 15.0873 63.8822C15.3623 65.1655 16.2484 66.5405 17.379 67.396C20.6178 69.871 25.1706 68.7863 26.9122 65.1044C27.3706 64.1419 27.4011 63.9738 27.4011 62.4002C27.4011 60.8114 27.3706 60.6586 26.9122 59.7114C26.3622 58.5961 25.1706 57.3586 24.1317 56.8239C23.5053 56.5031 21.7025 56.0447 21.2137 56.0753C21.0914 56.0906 20.6331 56.1517 20.2053 56.2128ZM22.1762 60.0933C22.94 60.3989 23.6275 61.285 23.7345 62.0794C23.872 62.9655 23.3678 64.0655 22.6039 64.5697C21.947 65.0127 20.7401 65.0433 19.9914 64.6308C17.2567 63.1794 19.3192 58.8864 22.1762 60.0933Z" fill="white"/>
<path d="M68.1925 56.2127C66.0994 56.3807 64.1439 57.7557 63.1814 59.7112C62.7231 60.6585 62.6925 60.8112 62.6925 62.4001C62.6925 63.9737 62.7231 64.1418 63.1814 65.1043C64.8925 68.7251 69.3383 69.8403 72.6077 67.5028C74.3494 66.2501 75.2355 64.3098 75.1132 62.0029C75.0063 60.2918 74.4105 58.9932 73.2035 57.8932C71.7369 56.564 70.2397 56.0599 68.1925 56.2127ZM69.7508 60.0473C70.8355 60.4446 71.6147 61.789 71.3855 62.8279C71.0952 64.1876 70.2091 64.9209 68.8647 64.9209C67.7494 64.9209 66.8939 64.3556 66.5119 63.332C65.748 61.3154 67.7494 59.2835 69.7508 60.0473Z" fill="white"/>
<path d="M10.672 57.6642C10.672 58.7642 10.6415 58.8865 10.2137 59.3753C9.77065 59.8642 9.75537 59.9559 9.75537 61.3003C9.75537 62.0795 9.81648 62.7823 9.87759 62.8739C10.1679 63.2864 10.779 63.5461 11.5123 63.5461H12.2762L12.2304 62.6753C12.154 61.4531 12.5512 59.7267 13.1928 58.4587C13.4831 57.8629 13.7123 57.374 13.6817 57.3587C13.6665 57.3434 13.0859 57.1906 12.3831 56.992C11.6956 56.8087 11.0234 56.6254 10.9012 56.5642C10.7179 56.5031 10.672 56.6865 10.672 57.6642Z" fill="white"/>
</svg>
