<svg width="67" height="106" viewBox="0 0 67 106" fill="none" xmlns="http://www.w3.org/2000/svg">
<path d="M40.2381 86.4937H26.8941V31.5816L13.9341 39.5497V25.1496L26.8941 17.3736H40.2381V86.4937Z" fill="#473BF0"/>
<path d="M43.2381 93.4937H29.8941V38.5816L16.9341 46.5497V32.1496L29.8941 24.3736H43.2381V93.4937Z" fill="#F64B4B"/>
<mask id="path-3-outside-1_18_1143" maskUnits="userSpaceOnUse" x="19" y="20.4937" width="30" height="72" fill="black">
<rect fill="white" x="19" y="20.4937" width="30" height="72"/>
<path d="M33.8941 91.4937V36.5816L20.9341 44.5497V30.1496L33.8941 22.3736H47.2381V91.4937H33.8941Z"/>
</mask>
<path d="M33.8941 91.4937H32.8941V92.4937H33.8941V91.4937ZM33.8941 36.5816H34.8941V34.793L33.3704 35.7298L33.8941 36.5816ZM20.9341 44.5497H19.9341V46.3383L21.4579 45.4015L20.9341 44.5497ZM20.9341 30.1496L20.4196 29.2922L19.9341 29.5835V30.1496H20.9341ZM33.8941 22.3736V21.3736H33.6172L33.3796 21.5162L33.8941 22.3736ZM47.2381 22.3736H48.2381V21.3736H47.2381V22.3736ZM47.2381 91.4937V92.4937H48.2381V91.4937H47.2381ZM34.8941 91.4937V36.5816H32.8941V91.4937H34.8941ZM33.3704 35.7298L20.4104 43.6978L21.4579 45.4015L34.4179 37.4335L33.3704 35.7298ZM21.9341 44.5497V30.1496H19.9341V44.5497H21.9341ZM21.4486 31.0071L34.4086 23.2311L33.3796 21.5162L20.4196 29.2922L21.4486 31.0071ZM33.8941 23.3736H47.2381V21.3736H33.8941V23.3736ZM46.2381 22.3736V91.4937H48.2381V22.3736H46.2381ZM47.2381 90.4937H33.8941V92.4937H47.2381V90.4937Z" fill="#473BF0" mask="url(#path-3-outside-1_18_1143)"/>
</svg>
