<svg width="67" height="106" viewBox="0 0 67 106" fill="none" xmlns="http://www.w3.org/2000/svg">
<path d="M26.0583 74.1097H54.1863V86.3977H5.80226V75.0697L34.7943 49.3417C38.7623 45.8216 40.7463 42.4296 40.7463 39.1656C40.7463 37.0536 40.3143 35.1817 39.4503 33.5497C38.5863 31.8856 37.3543 30.5896 35.7543 29.6617C34.1863 28.7016 32.3623 28.2216 30.2823 28.2216C28.1383 28.2216 26.2023 28.7176 24.4743 29.7096C22.7783 30.7016 21.4663 32.0296 20.5383 33.6937C19.6103 35.3576 19.1783 37.1496 19.2423 39.0697H5.80226C5.80226 34.3976 6.82626 30.3176 8.87426 26.8297C10.9543 23.3416 13.8663 20.6536 17.6103 18.7657C21.3543 16.8777 25.6743 15.9337 30.5703 15.9337C35.0503 15.9337 39.0823 16.9256 42.6663 18.9096C46.2503 20.8616 49.0663 23.6136 51.1143 27.1656C53.1623 30.7177 54.1863 34.7817 54.1863 39.3576C54.1863 42.6536 53.7223 45.4216 52.7943 47.6617C51.8983 49.8697 50.6503 51.8377 49.0503 53.5656C47.4503 55.2617 44.9383 57.5977 41.5143 60.5737L26.0583 74.1097Z" fill="#473BF0"/>
<path d="M29.0583 81.1097H57.1863V93.3977H8.80226V82.0697L37.7943 56.3417C41.7623 52.8216 43.7463 49.4296 43.7463 46.1656C43.7463 44.0536 43.3143 42.1817 42.4503 40.5497C41.5863 38.8856 40.3543 37.5896 38.7543 36.6617C37.1863 35.7016 35.3623 35.2216 33.2823 35.2216C31.1383 35.2216 29.2023 35.7176 27.4743 36.7096C25.7783 37.7016 24.4663 39.0296 23.5383 40.6937C22.6103 42.3576 22.1783 44.1496 22.2423 46.0697H8.80226C8.80226 41.3976 9.82626 37.3176 11.8743 33.8297C13.9543 30.3416 16.8663 27.6536 20.6103 25.7657C24.3543 23.8777 28.6743 22.9337 33.5703 22.9337C38.0503 22.9337 42.0823 23.9256 45.6663 25.9096C49.2503 27.8616 52.0663 30.6136 54.1143 34.1656C56.1623 37.7177 57.1863 41.7817 57.1863 46.3576C57.1863 49.6536 56.7223 52.4216 55.7943 54.6617C54.8983 56.8697 53.6503 58.8377 52.0503 60.5656C50.4503 62.2617 47.9383 64.5977 44.5143 67.5737L29.0583 81.1097Z" fill="#F64B4B"/>
<mask id="path-3-outside-1_18_1147" maskUnits="userSpaceOnUse" x="11" y="19.4937" width="52" height="73" fill="black">
<rect fill="white" x="11" y="19.4937" width="52" height="73"/>
<path d="M33.0583 79.1097H61.1863V91.3977H12.8023V80.0697L41.7943 54.3417C45.7623 50.8216 47.7463 47.4296 47.7463 44.1656C47.7463 42.0536 47.3143 40.1817 46.4503 38.5497C45.5863 36.8856 44.3543 35.5896 42.7543 34.6617C41.1863 33.7016 39.3623 33.2216 37.2823 33.2216C35.1383 33.2216 33.2023 33.7176 31.4743 34.7096C29.7783 35.7016 28.4663 37.0296 27.5383 38.6937C26.6103 40.3576 26.1783 42.1496 26.2423 44.0697H12.8023C12.8023 39.3976 13.8263 35.3176 15.8743 31.8297C17.9543 28.3416 20.8663 25.6536 24.6103 23.7657C28.3543 21.8777 32.6743 20.9337 37.5703 20.9337C42.0503 20.9337 46.0823 21.9256 49.6663 23.9096C53.2503 25.8616 56.0663 28.6136 58.1143 32.1656C60.1623 35.7177 61.1863 39.7817 61.1863 44.3576C61.1863 47.6536 60.7223 50.4216 59.7943 52.6617C58.8983 54.8697 57.6503 56.8377 56.0503 58.5656C54.4503 60.2617 51.9383 62.5977 48.5143 65.5737L33.0583 79.1097Z"/>
</mask>
<path d="M33.0583 79.1096L32.3994 78.3574L30.3986 80.1096H33.0583V79.1096ZM61.1863 79.1096H62.1863V78.1096H61.1863V79.1096ZM61.1863 91.3977V92.3977H62.1863V91.3977H61.1863ZM12.8023 91.3977H11.8023V92.3977H12.8023V91.3977ZM12.8023 80.0696L12.1385 79.3217L11.8023 79.6201V80.0696H12.8023ZM41.7943 54.3417L41.1307 53.5936L41.1305 53.5937L41.7943 54.3417ZM46.4503 38.5497L45.5627 39.0105L45.5665 39.0175L46.4503 38.5497ZM42.7543 34.6617L42.2321 35.5145L42.2423 35.5207L42.2525 35.5267L42.7543 34.6617ZM31.4743 34.7096L30.9764 33.8424L30.9694 33.8465L31.4743 34.7096ZM27.5383 38.6936L28.4116 39.1807V39.1807L27.5383 38.6936ZM26.2423 44.0696V45.0696H27.2762L27.2417 44.0363L26.2423 44.0696ZM12.8023 44.0696H11.8023V45.0696H12.8023V44.0696ZM15.8743 31.8297L15.0154 31.3175L15.0119 31.3233L15.8743 31.8297ZM24.6103 23.7657L25.0605 24.6585V24.6585L24.6103 23.7657ZM49.6663 23.9096L49.1819 24.7846L49.188 24.7878L49.6663 23.9096ZM59.7943 52.6617L58.8704 52.2789L58.8676 52.2856L59.7943 52.6617ZM56.0503 58.5657L56.7777 59.2519L56.784 59.2451L56.0503 58.5657ZM48.5143 65.5737L47.8583 64.8189L47.8554 64.8214L48.5143 65.5737ZM33.0583 80.1096H61.1863V78.1096H33.0583V80.1096ZM60.1863 79.1096V91.3977H62.1863V79.1096H60.1863ZM61.1863 90.3977H12.8023V92.3977H61.1863V90.3977ZM13.8023 91.3977V80.0696H11.8023V91.3977H13.8023ZM13.466 80.8176L42.458 55.0896L41.1305 53.5937L12.1385 79.3217L13.466 80.8176ZM42.4579 55.0897C46.5096 51.4955 48.7463 47.8528 48.7463 44.1656H46.7463C46.7463 47.0065 45.015 50.1478 41.1307 53.5936L42.4579 55.0897ZM48.7463 44.1656C48.7463 41.9142 48.2847 39.8775 47.3341 38.0818L45.5665 39.0175C46.3438 40.4858 46.7463 42.1931 46.7463 44.1656H48.7463ZM47.3378 38.0888C46.3875 36.2586 45.0227 34.8213 43.256 33.7966L42.2525 35.5267C43.6858 36.358 44.7851 37.5127 45.5628 39.0105L47.3378 38.0888ZM43.2764 33.8088C41.5314 32.7404 39.5218 32.2216 37.2823 32.2216V34.2216C39.2028 34.2216 40.8412 34.6629 42.2321 35.5145L43.2764 33.8088ZM37.2823 32.2216C34.9773 32.2216 32.8674 32.7568 30.9764 33.8424L31.9721 35.5769C33.5371 34.6785 35.2992 34.2216 37.2823 34.2216V32.2216ZM30.9694 33.8465C29.1242 34.9257 27.6827 36.3815 26.6649 38.2066L28.4116 39.1807C29.2498 37.6778 30.4323 36.4776 31.9791 35.5728L30.9694 33.8465ZM26.6649 38.2066C25.6476 40.0307 25.1728 42.0029 25.2428 44.103L27.2417 44.0363C27.1837 42.2964 27.5729 40.6846 28.4116 39.1807L26.6649 38.2066ZM26.2423 43.0696H12.8023V45.0696H26.2423V43.0696ZM13.8023 44.0696C13.8023 39.5477 14.7919 35.648 16.7366 32.336L15.0119 31.3233C12.8606 34.9873 11.8023 39.2476 11.8023 44.0696H13.8023ZM16.7331 32.3418C18.7126 29.0225 21.4803 26.464 25.0605 24.6585L24.16 22.8728C20.2522 24.8433 17.1959 27.6608 15.0154 31.3175L16.7331 32.3418ZM25.0605 24.6585C28.6432 22.8519 32.8045 21.9337 37.5703 21.9337V19.9337C32.5441 19.9337 28.0653 20.9034 24.16 22.8728L25.0605 24.6585ZM37.5703 21.9337C41.8971 21.9337 45.7598 22.8901 49.1819 24.7845L50.1506 23.0348C46.4047 20.9612 42.2034 19.9337 37.5703 19.9337V21.9337ZM49.188 24.7878C52.6094 26.6513 55.2915 29.2719 57.248 32.6651L58.9806 31.6662C56.841 27.9554 53.8911 25.072 50.1446 23.0315L49.188 24.7878ZM57.248 32.6651C59.1985 36.0482 60.1863 39.9362 60.1863 44.3577H62.1863C62.1863 39.6271 61.126 35.3871 58.9806 31.6662L57.248 32.6651ZM60.1863 44.3577C60.1863 47.5666 59.7336 50.1954 58.8704 52.2789L60.7181 53.0444C61.711 50.6479 62.1863 47.7407 62.1863 44.3577H60.1863ZM58.8676 52.2856C58.0165 54.383 56.8334 56.248 55.3165 57.8862L56.784 59.2451C58.4671 57.4273 59.78 55.3563 60.7209 53.0377L58.8676 52.2856ZM55.3229 57.8794C53.7578 59.5385 51.2759 61.8484 47.8583 64.8189L49.1703 66.3284C52.6006 63.3469 55.1428 60.9848 56.7777 59.2519L55.3229 57.8794ZM47.8554 64.8214L32.3994 78.3574L33.7171 79.8619L49.1731 66.3259L47.8554 64.8214Z" fill="#473BF0" mask="url(#path-3-outside-1_18_1147)"/>
</svg>
