<svg width="67" height="106" viewBox="0 0 67 106" fill="none" xmlns="http://www.w3.org/2000/svg">
<path d="M37.3236 43.2457C40.5236 44.1737 43.2756 45.7097 45.5796 47.8536C47.8836 49.9977 49.6276 52.5257 50.8116 55.4377C51.9956 58.3497 52.5876 61.4377 52.5876 64.7017C52.5876 68.9577 51.4836 72.8457 49.2756 76.3657C47.0996 79.8857 44.1716 82.6697 40.4916 84.7177C36.8116 86.7337 32.8116 87.7417 28.4916 87.7417C25.0356 87.7417 21.7236 87.0537 18.5556 85.6777C15.4196 84.2697 12.6836 82.2857 10.3476 79.7257C8.04364 77.1657 6.41164 74.2057 5.45164 70.8457L18.1236 67.4857C18.7636 69.9497 20.0436 71.9017 21.9636 73.3417C23.9156 74.7497 26.0916 75.4537 28.4916 75.4537C30.4436 75.4537 32.2516 74.9737 33.9156 74.0137C35.5796 73.0537 36.8916 71.7577 37.8516 70.1257C38.8436 68.4617 39.3396 66.6537 39.3396 64.7017C39.3396 62.7177 38.8756 60.9097 37.9476 59.2777C37.0196 57.6137 35.7236 56.3017 34.0596 55.3417C32.4276 54.3497 30.5716 53.8537 28.4916 53.8537C26.6356 53.8537 24.8436 54.3657 23.1156 55.3897L17.2596 45.1177L35.8836 29.6617H8.13964V17.3736H51.3396V29.6617L37.3236 43.2457Z" fill="#473BF0"/>
<path d="M40.3236 50.2457C43.5236 51.1737 46.2756 52.7097 48.5796 54.8536C50.8836 56.9977 52.6276 59.5257 53.8116 62.4377C54.9956 65.3497 55.5876 68.4377 55.5876 71.7017C55.5876 75.9577 54.4836 79.8457 52.2756 83.3657C50.0996 86.8857 47.1716 89.6697 43.4916 91.7177C39.8116 93.7337 35.8116 94.7417 31.4916 94.7417C28.0356 94.7417 24.7236 94.0537 21.5556 92.6777C18.4196 91.2697 15.6836 89.2857 13.3476 86.7257C11.0436 84.1657 9.41164 81.2057 8.45164 77.8457L21.1236 74.4857C21.7636 76.9497 23.0436 78.9017 24.9636 80.3417C26.9156 81.7497 29.0916 82.4537 31.4916 82.4537C33.4436 82.4537 35.2516 81.9737 36.9156 81.0137C38.5796 80.0537 39.8916 78.7577 40.8516 77.1257C41.8436 75.4617 42.3396 73.6537 42.3396 71.7017C42.3396 69.7177 41.8756 67.9097 40.9476 66.2777C40.0196 64.6137 38.7236 63.3017 37.0596 62.3417C35.4276 61.3497 33.5716 60.8537 31.4916 60.8537C29.6356 60.8537 27.8436 61.3657 26.1156 62.3897L20.2596 52.1177L38.8836 36.6617H11.1396V24.3736H54.3396V36.6617L40.3236 50.2457Z" fill="#F64B4B"/>
<mask id="path-3-outside-1_18_1151" maskUnits="userSpaceOnUse" x="11" y="20.4937" width="50" height="74" fill="black">
<rect fill="white" x="11" y="20.4937" width="50" height="74"/>
<path d="M44.3236 48.2457C47.5236 49.1737 50.2756 50.7097 52.5796 52.8536C54.8836 54.9977 56.6276 57.5257 57.8116 60.4377C58.9956 63.3497 59.5876 66.4377 59.5876 69.7017C59.5876 73.9577 58.4836 77.8457 56.2756 81.3657C54.0996 84.8857 51.1716 87.6697 47.4916 89.7177C43.8116 91.7337 39.8116 92.7417 35.4916 92.7417C32.0356 92.7417 28.7236 92.0537 25.5556 90.6777C22.4196 89.2697 19.6836 87.2857 17.3476 84.7257C15.0436 82.1657 13.4116 79.2057 12.4516 75.8457L25.1236 72.4857C25.7636 74.9497 27.0436 76.9017 28.9636 78.3417C30.9156 79.7497 33.0916 80.4537 35.4916 80.4537C37.4436 80.4537 39.2516 79.9737 40.9156 79.0137C42.5796 78.0537 43.8916 76.7577 44.8516 75.1257C45.8436 73.4617 46.3396 71.6537 46.3396 69.7017C46.3396 67.7177 45.8756 65.9097 44.9476 64.2777C44.0196 62.6137 42.7236 61.3017 41.0596 60.3417C39.4276 59.3497 37.5716 58.8537 35.4916 58.8537C33.6356 58.8537 31.8436 59.3657 30.1156 60.3897L24.2596 50.1177L42.8836 34.6617H15.1396V22.3736H58.3396V34.6617L44.3236 48.2457Z"/>
</mask>
<path d="M44.3236 48.2457L43.6277 47.5276L42.3908 48.7263L44.0451 49.2061L44.3236 48.2457ZM52.5796 52.8536L53.2609 52.1216V52.1216L52.5796 52.8536ZM57.8116 60.4377L58.738 60.061L57.8116 60.4377ZM56.2756 81.3657L55.4285 80.8343L55.425 80.8398L56.2756 81.3657ZM47.4916 89.7177L47.9721 90.5947L47.9779 90.5915L47.4916 89.7177ZM25.5556 90.6777L25.146 91.59L25.1573 91.5949L25.5556 90.6777ZM17.3476 84.7257L16.6043 85.3946L16.609 85.3997L17.3476 84.7257ZM12.4516 75.8456L12.1953 74.8791L11.2101 75.1403L11.4901 76.1204L12.4516 75.8456ZM25.1236 72.4856L26.0915 72.2343L25.8388 71.2615L24.8673 71.5191L25.1236 72.4856ZM28.9636 78.3417L28.3636 79.1417L28.3711 79.1472L28.3786 79.1527L28.9636 78.3417ZM40.9156 79.0136L40.4159 78.1475L40.9156 79.0136ZM44.8516 75.1256L43.9927 74.6136L43.9897 74.6186L44.8516 75.1256ZM44.9476 64.2776L44.0742 64.7647L44.0784 64.772L44.9476 64.2776ZM41.0596 60.3417L40.5402 61.1962L40.55 61.2021L40.5599 61.2078L41.0596 60.3417ZM30.1156 60.3897L29.2469 60.8849L29.7506 61.7684L30.6254 61.2499L30.1156 60.3897ZM24.2596 50.1176L23.621 49.3481L22.9753 49.884L23.3909 50.6129L24.2596 50.1176ZM42.8836 34.6617L43.5223 35.4312L45.6545 33.6617H42.8836V34.6617ZM15.1396 34.6617H14.1396V35.6617H15.1396V34.6617ZM15.1396 22.3736V21.3736H14.1396V22.3736H15.1396ZM58.3396 22.3736H59.3396V21.3736H58.3396V22.3736ZM58.3396 34.6617L59.0356 35.3797L59.3396 35.0851V34.6617H58.3396ZM44.0451 49.2061C47.1039 50.0931 49.7156 51.5545 51.8984 53.5857L53.2609 52.1216C50.8356 49.8648 47.9434 48.2542 44.6022 47.2852L44.0451 49.2061ZM51.8984 53.5857C54.0959 55.6306 55.7562 58.0374 56.8853 60.8143L58.738 60.061C57.4991 57.0139 55.6714 54.3647 53.2609 52.1216L51.8984 53.5857ZM56.8853 60.8143C58.0188 63.6021 58.5876 66.5617 58.5876 69.7017H60.5876C60.5876 66.3136 59.9725 63.0972 58.738 60.061L56.8853 60.8143ZM58.5876 69.7017C58.5876 73.7745 57.5341 77.4775 55.4285 80.8343L57.1228 81.897C59.4332 78.2138 60.5876 74.1408 60.5876 69.7017H58.5876ZM55.425 80.8398C53.3404 84.212 50.539 86.8773 47.0054 88.8439L47.9779 90.5915C51.8043 88.462 54.8588 85.5593 57.1262 81.8915L55.425 80.8398ZM47.0112 88.8406C43.4829 90.7735 39.6489 91.7417 35.4916 91.7417V93.7417C39.9744 93.7417 44.1403 92.6938 47.9721 90.5947L47.0112 88.8406ZM35.4916 91.7417C32.1726 91.7417 28.9962 91.0818 25.954 89.7604L25.1573 91.5949C28.451 93.0255 31.8987 93.7417 35.4916 93.7417V91.7417ZM25.9652 89.7654C22.9551 88.4139 20.3309 86.5114 18.0863 84.0516L16.609 85.3997C19.0364 88.0599 21.8842 90.1254 25.146 91.5899L25.9652 89.7654ZM18.0909 84.0567C15.8903 81.6115 14.332 78.7868 13.4132 75.5709L11.4901 76.1204C12.4913 79.6245 14.197 82.7198 16.6043 85.3946L18.0909 84.0567ZM12.7079 76.8122L25.3799 73.4522L24.8673 71.5191L12.1953 74.8791L12.7079 76.8122ZM24.1558 72.7371C24.849 75.406 26.2509 77.5571 28.3636 79.1417L29.5636 77.5416C27.8363 76.2462 26.6783 74.4933 26.0915 72.2343L24.1558 72.7371ZM28.3786 79.1527C30.5004 80.6832 32.881 81.4537 35.4916 81.4537V79.4537C33.3023 79.4537 31.3308 78.8161 29.5486 77.5306L28.3786 79.1527ZM35.4916 81.4537C37.6161 81.4537 39.5969 80.929 41.4154 79.8798L40.4159 78.1475C38.9064 79.0183 37.2712 79.4537 35.4916 79.4537V81.4537ZM41.4154 79.8798C43.2268 78.8348 44.6646 77.416 45.7136 75.6327L43.9897 74.6186C43.1187 76.0993 41.9325 77.2725 40.4159 78.1475L41.4154 79.8798ZM45.7106 75.6377C46.7956 73.8176 47.3396 71.8325 47.3396 69.7017H45.3396C45.3396 71.4748 44.8916 73.1057 43.9927 74.6136L45.7106 75.6377ZM47.3396 69.7017C47.3396 67.5545 46.8355 65.5746 45.8169 63.7833L44.0784 64.772C44.9158 66.2447 45.3396 67.8808 45.3396 69.7017H47.3396ZM45.821 63.7906C44.8042 61.9674 43.3785 60.525 41.5594 59.4755L40.5599 61.2078C42.0688 62.0783 43.2351 63.2599 44.0743 64.7647L45.821 63.7906ZM41.5791 59.4871C39.7767 58.3916 37.7379 57.8537 35.4916 57.8537V59.8537C37.4053 59.8537 39.0786 60.3077 40.5402 61.1962L41.5791 59.4871ZM35.4916 57.8537C33.4416 57.8537 31.475 58.4217 29.6058 59.5294L30.6254 61.2499C32.2122 60.3096 33.8297 59.8537 35.4916 59.8537V57.8537ZM30.9844 59.8944L25.1284 49.6224L23.3909 50.6129L29.2469 60.8849L30.9844 59.8944ZM24.8983 50.8872L43.5223 35.4312L42.245 33.8921L23.621 49.3481L24.8983 50.8872ZM42.8836 33.6617H15.1396V35.6617H42.8836V33.6617ZM16.1396 34.6617V22.3736H14.1396V34.6617H16.1396ZM15.1396 23.3736H58.3396V21.3736H15.1396V23.3736ZM57.3396 22.3736V34.6617H59.3396V22.3736H57.3396ZM57.6437 33.9436L43.6277 47.5276L45.0196 48.9637L59.0356 35.3797L57.6437 33.9436Z" fill="#473BF0" mask="url(#path-3-outside-1_18_1151)"/>
</svg>
