<svg width="64" height="101" viewBox="0 0 64 101" fill="none" xmlns="http://www.w3.org/2000/svg">
<path d="M40.2381 88.4937H26.8941V33.5816L13.9341 41.5497V27.1496L26.8941 19.3736H40.2381V88.4937Z" fill="#F64B4B"/>
<mask id="path-2-outside-1_83_21" maskUnits="userSpaceOnUse" x="16" y="15.4937" width="30" height="72" fill="black">
<rect fill="white" x="16" y="15.4937" width="30" height="72"/>
<path d="M44.2381 86.4937H30.8941V31.5816L17.9341 39.5497V25.1496L30.8941 17.3736H44.2381V86.4937Z"/>
</mask>
<path d="M44.2381 86.4937V87.4937H45.2381V86.4937H44.2381ZM30.8941 86.4937H29.8941V87.4937H30.8941V86.4937ZM30.8941 31.5816H31.8941V29.793L30.3704 30.7298L30.8941 31.5816ZM17.9341 39.5497H16.9341V41.3383L18.4579 40.4015L17.9341 39.5497ZM17.9341 25.1496L17.4196 24.2922L16.9341 24.5835V25.1496H17.9341ZM30.8941 17.3736V16.3736H30.6172L30.3796 16.5162L30.8941 17.3736ZM44.2381 17.3736H45.2381V16.3736H44.2381V17.3736ZM44.2381 85.4937H30.8941V87.4937H44.2381V85.4937ZM31.8941 86.4937V31.5816H29.8941V86.4937H31.8941ZM30.3704 30.7298L17.4104 38.6978L18.4579 40.4015L31.4179 32.4335L30.3704 30.7298ZM18.9341 39.5497V25.1496H16.9341V39.5497H18.9341ZM18.4486 26.0071L31.4086 18.2311L30.3796 16.5162L17.4196 24.2922L18.4486 26.0071ZM30.8941 18.3736H44.2381V16.3736H30.8941V18.3736ZM43.2381 17.3736V86.4937H45.2381V17.3736H43.2381Z" fill="#F64B4B" mask="url(#path-2-outside-1_83_21)"/>
</svg>
