<svg width="84" height="101" viewBox="0 0 84 101" fill="none" xmlns="http://www.w3.org/2000/svg">
<path d="M35.5945 76.1097H63.7225V88.3977H15.3385V77.0697L44.3305 51.3417C48.2985 47.8216 50.2825 44.4296 50.2825 41.1656C50.2825 39.0536 49.8505 37.1817 48.9865 35.5497C48.1225 33.8856 46.8905 32.5896 45.2905 31.6617C43.7225 30.7016 41.8985 30.2216 39.8185 30.2216C37.6745 30.2216 35.7385 30.7176 34.0105 31.7096C32.3145 32.7016 31.0025 34.0296 30.0745 35.6937C29.1465 37.3576 28.7145 39.1496 28.7785 41.0697H15.3385C15.3385 36.3976 16.3625 32.3176 18.4105 28.8297C20.4905 25.3416 23.4025 22.6536 27.1465 20.7657C30.8905 18.8777 35.2105 17.9337 40.1065 17.9337C44.5865 17.9337 48.6185 18.9256 52.2025 20.9096C55.7865 22.8616 58.6025 25.6136 60.6505 29.1656C62.6985 32.7177 63.7225 36.7817 63.7225 41.3576C63.7225 44.6536 63.2585 47.4216 62.3305 49.6617C61.4345 51.8697 60.1865 53.8377 58.5865 55.5656C56.9865 57.2617 54.4745 59.5977 51.0505 62.5737L35.5945 76.1097Z" fill="#F64B4B"/>
<mask id="path-2-outside-1_83_28" maskUnits="userSpaceOnUse" x="18" y="14.4937" width="51" height="73" fill="black">
<rect fill="white" x="18" y="14.4937" width="51" height="73"/>
<path d="M39.5945 74.1097H67.7225V86.3977H19.3385V75.0697L48.3305 49.3417C52.2985 45.8216 54.2825 42.4296 54.2825 39.1656C54.2825 37.0536 53.8505 35.1817 52.9865 33.5497C52.1225 31.8856 50.8905 30.5896 49.2905 29.6617C47.7225 28.7016 45.8985 28.2216 43.8185 28.2216C41.6745 28.2216 39.7385 28.7176 38.0105 29.7096C36.3145 30.7016 35.0025 32.0296 34.0745 33.6937C33.1465 35.3576 32.7145 37.1496 32.7785 39.0697H19.3385C19.3385 34.3976 20.3625 30.3176 22.4105 26.8297C24.4905 23.3416 27.4025 20.6536 31.1465 18.7657C34.8905 16.8777 39.2105 15.9337 44.1065 15.9337C48.5865 15.9337 52.6185 16.9256 56.2025 18.9096C59.7865 20.8616 62.6025 23.6136 64.6505 27.1656C66.6985 30.7177 67.7225 34.7817 67.7225 39.3576C67.7225 42.6536 67.2585 45.4216 66.3305 47.6617C65.4345 49.8697 64.1865 51.8377 62.5865 53.5656C60.9865 55.2617 58.4745 57.5977 55.0505 60.5737L39.5945 74.1097Z"/>
</mask>
<path d="M39.5945 74.1096L38.9357 73.3574L36.9348 75.1096H39.5945V74.1096ZM67.7225 74.1096H68.7225V73.1096H67.7225V74.1096ZM67.7225 86.3977V87.3977H68.7225V86.3977H67.7225ZM19.3385 86.3977H18.3385V87.3977H19.3385V86.3977ZM19.3385 75.0696L18.6747 74.3217L18.3385 74.6201V75.0696H19.3385ZM48.3305 49.3417L47.6669 48.5936L47.6668 48.5937L48.3305 49.3417ZM52.9865 33.5497L52.099 34.0105L52.1027 34.0175L52.9865 33.5497ZM49.2905 29.6617L48.7683 30.5145L48.7785 30.5207L48.7888 30.5267L49.2905 29.6617ZM38.0105 29.7096L37.5126 28.8424L37.5056 28.8465L38.0105 29.7096ZM34.0745 33.6936L34.9479 34.1807V34.1807L34.0745 33.6936ZM32.7785 39.0696V40.0696H33.8124L33.7779 39.0363L32.7785 39.0696ZM19.3385 39.0696H18.3385V40.0696H19.3385V39.0696ZM22.4105 26.8297L21.5516 26.3175L21.5482 26.3233L22.4105 26.8297ZM31.1465 18.7657L31.5968 19.6585V19.6585L31.1465 18.7657ZM56.2025 18.9096L55.7182 19.7846L55.7242 19.7878L56.2025 18.9096ZM66.3305 47.6617L65.4066 47.2789L65.4039 47.2856L66.3305 47.6617ZM62.5865 53.5657L63.3139 54.2519L63.3203 54.2451L62.5865 53.5657ZM55.0505 60.5737L54.3945 59.8189L54.3917 59.8214L55.0505 60.5737ZM39.5945 75.1096H67.7225V73.1096H39.5945V75.1096ZM66.7225 74.1096V86.3977H68.7225V74.1096H66.7225ZM67.7225 85.3977H19.3385V87.3977H67.7225V85.3977ZM20.3385 86.3977V75.0696H18.3385V86.3977H20.3385ZM20.0022 75.8176L48.9942 50.0896L47.6668 48.5937L18.6747 74.3217L20.0022 75.8176ZM48.9941 50.0897C53.0458 46.4955 55.2825 42.8528 55.2825 39.1656H53.2825C53.2825 42.0065 51.5512 45.1478 47.6669 48.5936L48.9941 50.0897ZM55.2825 39.1656C55.2825 36.9142 54.8209 34.8775 53.8703 33.0818L52.1027 34.0175C52.8801 35.4858 53.2825 37.1931 53.2825 39.1656H55.2825ZM53.874 33.0888C52.9237 31.2586 51.559 29.8213 49.7922 28.7966L48.7888 30.5267C50.222 31.358 51.3213 32.5127 52.099 34.0105L53.874 33.0888ZM49.8127 28.8088C48.0676 27.7404 46.058 27.2216 43.8185 27.2216V29.2216C45.739 29.2216 47.3774 29.6629 48.7683 30.5145L49.8127 28.8088ZM43.8185 27.2216C41.5135 27.2216 39.4036 27.7568 37.5126 28.8424L38.5084 30.5769C40.0734 29.6785 41.8355 29.2216 43.8185 29.2216V27.2216ZM37.5056 28.8465C35.6604 29.9257 34.219 31.3815 33.2011 33.2066L34.9479 34.1807C35.786 32.6778 36.9686 31.4776 38.5154 30.5728L37.5056 28.8465ZM33.2011 33.2066C32.1838 35.0307 31.7091 37.0029 31.7791 39.103L33.7779 39.0363C33.7199 37.2964 34.1092 35.6846 34.9479 34.1807L33.2011 33.2066ZM32.7785 38.0696H19.3385V40.0696H32.7785V38.0696ZM20.3385 39.0696C20.3385 34.5477 21.3282 30.648 23.2728 27.336L21.5482 26.3233C19.3968 29.9873 18.3385 34.2476 18.3385 39.0696H20.3385ZM23.2694 27.3418C25.2488 24.0225 28.0165 21.464 31.5968 19.6585L30.6962 17.8728C26.7884 19.8433 23.7322 22.6608 21.5516 26.3175L23.2694 27.3418ZM31.5968 19.6585C35.1795 17.8519 39.3407 16.9337 44.1065 16.9337V14.9337C39.0803 14.9337 34.6015 15.9034 30.6962 17.8728L31.5968 19.6585ZM44.1065 16.9337C48.4333 16.9337 52.296 17.8901 55.7182 19.7845L56.6868 18.0348C52.941 15.9612 48.7397 14.9337 44.1065 14.9337V16.9337ZM55.7242 19.7878C59.1457 21.6513 61.8277 24.2719 63.7842 27.6651L65.5168 26.6662C63.3773 22.9554 60.4273 20.072 56.6808 18.0315L55.7242 19.7878ZM63.7842 27.6651C65.7348 31.0482 66.7225 34.9362 66.7225 39.3577H68.7225C68.7225 34.6271 67.6622 30.3871 65.5168 26.6662L63.7842 27.6651ZM66.7225 39.3577C66.7225 42.5666 66.2698 45.1954 65.4066 47.2789L67.2544 48.0444C68.2472 45.6479 68.7225 42.7407 68.7225 39.3577H66.7225ZM65.4039 47.2856C64.5528 49.383 63.3697 51.248 61.8527 52.8862L63.3203 54.2451C65.0033 52.4273 66.3162 50.3563 67.2571 48.0377L65.4039 47.2856ZM61.8591 52.8794C60.294 54.5385 57.8122 56.8484 54.3945 59.8189L55.7065 61.3284C59.1368 58.3469 61.679 55.9848 63.3139 54.2519L61.8591 52.8794ZM54.3917 59.8214L38.9357 73.3574L40.2533 74.8619L55.7093 61.3259L54.3917 59.8214Z" fill="#F64B4B" mask="url(#path-2-outside-1_83_28)"/>
</svg>
