<svg width="82" height="101" viewBox="0 0 82 101" fill="none" xmlns="http://www.w3.org/2000/svg">
<path d="M46.1787 45.2457C49.3787 46.1737 52.1307 47.7097 54.4347 49.8536C56.7387 51.9977 58.4827 54.5257 59.6667 57.4377C60.8507 60.3497 61.4427 63.4377 61.4427 66.7017C61.4427 70.9577 60.3387 74.8457 58.1307 78.3657C55.9547 81.8857 53.0267 84.6697 49.3467 86.7177C45.6667 88.7337 41.6667 89.7417 37.3467 89.7417C33.8907 89.7417 30.5787 89.0537 27.4107 87.6777C24.2747 86.2697 21.5387 84.2857 19.2027 81.7257C16.8987 79.1657 15.2667 76.2057 14.3067 72.8457L26.9787 69.4857C27.6187 71.9497 28.8987 73.9017 30.8187 75.3417C32.7707 76.7497 34.9467 77.4537 37.3467 77.4537C39.2987 77.4537 41.1067 76.9737 42.7707 76.0137C44.4347 75.0537 45.7467 73.7577 46.7067 72.1257C47.6987 70.4617 48.1947 68.6537 48.1947 66.7017C48.1947 64.7177 47.7307 62.9097 46.8027 61.2777C45.8747 59.6137 44.5787 58.3017 42.9147 57.3417C41.2827 56.3497 39.4267 55.8537 37.3467 55.8537C35.4907 55.8537 33.6987 56.3657 31.9707 57.3897L26.1147 47.1177L44.7387 31.6617H16.9947V19.3736H60.1947V31.6617L46.1787 45.2457Z" fill="#F64B4B"/>
<mask id="path-2-outside-1_83_35" maskUnits="userSpaceOnUse" x="17" y="15.4937" width="50" height="74" fill="black">
<rect fill="white" x="17" y="15.4937" width="50" height="74"/>
<path d="M50.1787 43.2457C53.3787 44.1737 56.1307 45.7097 58.4347 47.8536C60.7387 49.9977 62.4827 52.5257 63.6667 55.4377C64.8507 58.3497 65.4427 61.4377 65.4427 64.7017C65.4427 68.9577 64.3387 72.8457 62.1307 76.3657C59.9547 79.8857 57.0267 82.6697 53.3467 84.7177C49.6667 86.7337 45.6667 87.7417 41.3467 87.7417C37.8907 87.7417 34.5787 87.0537 31.4107 85.6777C28.2747 84.2697 25.5387 82.2857 23.2027 79.7257C20.8987 77.1657 19.2667 74.2057 18.3067 70.8457L30.9787 67.4857C31.6187 69.9497 32.8987 71.9017 34.8187 73.3417C36.7707 74.7497 38.9467 75.4537 41.3467 75.4537C43.2987 75.4537 45.1067 74.9737 46.7707 74.0137C48.4347 73.0537 49.7467 71.7577 50.7067 70.1257C51.6987 68.4617 52.1947 66.6537 52.1947 64.7017C52.1947 62.7177 51.7307 60.9097 50.8027 59.2777C49.8747 57.6137 48.5787 56.3017 46.9147 55.3417C45.2827 54.3497 43.4267 53.8537 41.3467 53.8537C39.4907 53.8537 37.6987 54.3657 35.9707 55.3897L30.1147 45.1177L48.7387 29.6617H20.9947V17.3736H64.1947V29.6617L50.1787 43.2457Z"/>
</mask>
<path d="M50.1787 43.2457L49.4828 42.5276L48.2459 43.7263L49.9002 44.2061L50.1787 43.2457ZM58.4347 47.8536L59.1159 47.1216V47.1216L58.4347 47.8536ZM63.6667 55.4377L64.5931 55.061L63.6667 55.4377ZM62.1307 76.3657L61.2836 75.8343L61.2801 75.8398L62.1307 76.3657ZM53.3467 84.7177L53.8272 85.5947L53.833 85.5915L53.3467 84.7177ZM31.4107 85.6777L31.0011 86.59L31.0123 86.5949L31.4107 85.6777ZM23.2027 79.7257L22.4594 80.3946L22.464 80.3997L23.2027 79.7257ZM18.3067 70.8456L18.0504 69.8791L17.0652 70.1403L17.3452 71.1204L18.3067 70.8456ZM30.9787 67.4856L31.9466 67.2343L31.6939 66.2615L30.7224 66.5191L30.9787 67.4856ZM34.8187 73.3417L34.2187 74.1417L34.2262 74.1472L34.2337 74.1527L34.8187 73.3417ZM46.7707 74.0136L46.271 73.1475L46.7707 74.0136ZM50.7067 70.1256L49.8478 69.6136L49.8448 69.6186L50.7067 70.1256ZM50.8027 59.2776L49.9293 59.7647L49.9334 59.772L50.8027 59.2776ZM46.9147 55.3417L46.3953 56.1962L46.4051 56.2021L46.415 56.2078L46.9147 55.3417ZM35.9707 55.3897L35.102 55.8849L35.6056 56.7684L36.4805 56.2499L35.9707 55.3897ZM30.1147 45.1176L29.4761 44.3481L28.8304 44.884L29.246 45.6129L30.1147 45.1176ZM48.7387 29.6617L49.3773 30.4312L51.5096 28.6617H48.7387V29.6617ZM20.9947 29.6617H19.9947V30.6617H20.9947V29.6617ZM20.9947 17.3736V16.3736H19.9947V17.3736H20.9947ZM64.1947 17.3736H65.1947V16.3736H64.1947V17.3736ZM64.1947 29.6617L64.8907 30.3797L65.1947 30.0851V29.6617H64.1947ZM49.9002 44.2061C52.959 45.0931 55.5707 46.5545 57.7535 48.5857L59.1159 47.1216C56.6907 44.8648 53.7984 43.2542 50.4572 42.2852L49.9002 44.2061ZM57.7535 48.5857C59.951 50.6306 61.6113 53.0374 62.7404 55.8143L64.5931 55.061C63.3541 52.0139 61.5264 49.3647 59.1159 47.1216L57.7535 48.5857ZM62.7404 55.8143C63.8739 58.6021 64.4427 61.5617 64.4427 64.7017H66.4427C66.4427 61.3136 65.8276 58.0972 64.5931 55.061L62.7404 55.8143ZM64.4427 64.7017C64.4427 68.7745 63.3892 72.4775 61.2836 75.8343L62.9778 76.897C65.2883 73.2138 66.4427 69.1408 66.4427 64.7017H64.4427ZM61.2801 75.8398C59.1955 79.212 56.394 81.8773 52.8604 83.8439L53.833 85.5915C57.6594 83.462 60.7139 80.5593 62.9813 76.8915L61.2801 75.8398ZM52.8663 83.8406C49.338 85.7735 45.5039 86.7417 41.3467 86.7417V88.7417C45.8295 88.7417 49.9954 87.6938 53.8272 85.5947L52.8663 83.8406ZM41.3467 86.7417C38.0277 86.7417 34.8513 86.0818 31.8091 84.7604L31.0123 86.5949C34.3061 88.0255 37.7537 88.7417 41.3467 88.7417V86.7417ZM31.8203 84.7654C28.8102 83.4139 26.1859 81.5114 23.9414 79.0516L22.464 80.3997C24.8915 83.0599 27.7392 85.1254 31.0011 86.5899L31.8203 84.7654ZM23.946 79.0567C21.7453 76.6115 20.1871 73.7868 19.2682 70.5709L17.3452 71.1204C18.3464 74.6245 20.0521 77.7198 22.4594 80.3946L23.946 79.0567ZM18.563 71.8122L31.235 68.4522L30.7224 66.5191L18.0504 69.8791L18.563 71.8122ZM30.0108 67.7371C30.7041 70.406 32.106 72.5571 34.2187 74.1417L35.4187 72.5416C33.6914 71.2462 32.5334 69.4933 31.9466 67.2343L30.0108 67.7371ZM34.2337 74.1527C36.3555 75.6832 38.7361 76.4537 41.3467 76.4537V74.4537C39.1574 74.4537 37.1859 73.8161 35.4037 72.5306L34.2337 74.1527ZM41.3467 76.4537C43.4712 76.4537 45.4519 75.929 47.2704 74.8798L46.271 73.1475C44.7615 74.0183 43.1263 74.4537 41.3467 74.4537V76.4537ZM47.2704 74.8798C49.0819 73.8348 50.5197 72.416 51.5686 70.6327L49.8448 69.6186C48.9738 71.0993 47.7875 72.2725 46.271 73.1475L47.2704 74.8798ZM51.5657 70.6377C52.6507 68.8176 53.1947 66.8325 53.1947 64.7017H51.1947C51.1947 66.4748 50.7467 68.1057 49.8478 69.6136L51.5657 70.6377ZM53.1947 64.7017C53.1947 62.5545 52.6906 60.5746 51.672 58.7833L49.9334 59.772C50.7708 61.2447 51.1947 62.8808 51.1947 64.7017H53.1947ZM51.6761 58.7906C50.6593 56.9674 49.2336 55.525 47.4144 54.4755L46.415 56.2078C47.9239 57.0783 49.0901 58.2599 49.9294 59.7647L51.6761 58.7906ZM47.4341 54.4871C45.6318 53.3916 43.593 52.8537 41.3467 52.8537V54.8537C43.2604 54.8537 44.9337 55.3077 46.3953 56.1962L47.4341 54.4871ZM41.3467 52.8537C39.2967 52.8537 37.3301 53.4217 35.4609 54.5294L36.4805 56.2499C38.0673 55.3096 39.6848 54.8537 41.3467 54.8537V52.8537ZM36.8395 54.8944L30.9835 44.6224L29.246 45.6129L35.102 55.8849L36.8395 54.8944ZM30.7533 45.8872L49.3773 30.4312L48.1001 28.8921L29.4761 44.3481L30.7533 45.8872ZM48.7387 28.6617H20.9947V30.6617H48.7387V28.6617ZM21.9947 29.6617V17.3736H19.9947V29.6617H21.9947ZM20.9947 18.3736H64.1947V16.3736H20.9947V18.3736ZM63.1947 17.3736V29.6617H65.1947V17.3736H63.1947ZM63.4988 28.9436L49.4828 42.5276L50.8747 43.9637L64.8907 30.3797L63.4988 28.9436Z" fill="#F64B4B" mask="url(#path-2-outside-1_83_35)"/>
</svg>
