<svg width="86" height="101" viewBox="0 0 86 101" fill="none" xmlns="http://www.w3.org/2000/svg">
<path d="M59.4343 88.4937H46.1863V77.7417H16.1383V65.5497L37.9303 19.3736H52.9063L31.1143 65.5497H46.1863V48.2696H59.4343V65.5497H65.5783V77.7417H59.4343V88.4937Z" fill="#F64B4B"/>
<mask id="path-2-outside-1_83_42" maskUnits="userSpaceOnUse" x="19" y="15.4937" width="52" height="72" fill="black">
<rect fill="white" x="19" y="15.4937" width="52" height="72"/>
<path d="M63.4343 86.4937H50.1863V75.7417H20.1383V63.5497L41.9303 17.3736H56.9063L35.1143 63.5497H50.1863V46.2696H63.4343V63.5497H69.5783V75.7417H63.4343V86.4937Z"/>
</mask>
<path d="M63.4343 86.4937V87.4937H64.4343V86.4937H63.4343ZM50.1863 86.4937H49.1863V87.4937H50.1863V86.4937ZM50.1863 75.7417H51.1863V74.7417H50.1863V75.7417ZM20.1383 75.7417H19.1383V76.7417H20.1383V75.7417ZM20.1383 63.5497L19.234 63.1229L19.1383 63.3255V63.5497H20.1383ZM41.9303 17.3736V16.3736H41.2965L41.026 16.9469L41.9303 17.3736ZM56.9063 17.3736L57.8107 17.8004L58.484 16.3736H56.9063V17.3736ZM35.1143 63.5497L34.21 63.1229L33.5366 64.5497H35.1143V63.5497ZM50.1863 63.5497V64.5497H51.1863V63.5497H50.1863ZM50.1863 46.2696V45.2696H49.1863V46.2696H50.1863ZM63.4343 46.2696H64.4343V45.2696H63.4343V46.2696ZM63.4343 63.5497H62.4343V64.5497H63.4343V63.5497ZM69.5783 63.5497H70.5783V62.5497H69.5783V63.5497ZM69.5783 75.7417V76.7417H70.5783V75.7417H69.5783ZM63.4343 75.7417V74.7417H62.4343V75.7417H63.4343ZM63.4343 85.4937H50.1863V87.4937H63.4343V85.4937ZM51.1863 86.4937V75.7417H49.1863V86.4937H51.1863ZM50.1863 74.7417H20.1383V76.7417H50.1863V74.7417ZM21.1383 75.7417V63.5497H19.1383V75.7417H21.1383ZM21.0427 63.9764L42.8347 17.8004L41.026 16.9469L19.234 63.1229L21.0427 63.9764ZM41.9303 18.3736H56.9063V16.3736H41.9303V18.3736ZM56.002 16.9469L34.21 63.1229L36.0187 63.9764L57.8107 17.8004L56.002 16.9469ZM35.1143 64.5497H50.1863V62.5497H35.1143V64.5497ZM51.1863 63.5497V46.2696H49.1863V63.5497H51.1863ZM50.1863 47.2696H63.4343V45.2696H50.1863V47.2696ZM62.4343 46.2696V63.5497H64.4343V46.2696H62.4343ZM63.4343 64.5497H69.5783V62.5497H63.4343V64.5497ZM68.5783 63.5497V75.7417H70.5783V63.5497H68.5783ZM69.5783 74.7417H63.4343V76.7417H69.5783V74.7417ZM62.4343 75.7417V86.4937H64.4343V75.7417H62.4343Z" fill="#F64B4B" mask="url(#path-2-outside-1_83_42)"/>
</svg>
