<svg width="88" height="89" viewBox="0 0 88 89" fill="none" xmlns="http://www.w3.org/2000/svg">
<path d="M73.9638 30.3379C74.5345 30.3379 74.9911 30.7907 74.9911 31.3567C74.9911 31.9227 74.5345 32.3755 73.9638 32.3755C73.393 32.3755 72.9364 31.9227 72.9364 31.3567C72.9364 30.7907 73.393 30.3379 73.9638 30.3379Z" fill="#473BF0"/>
<path d="M72.4798 51.5065C73.0506 51.5065 73.5072 51.9593 73.5072 52.5253C73.5072 53.0913 73.0506 53.5441 72.4798 53.5441C71.9091 53.5441 71.4525 53.0913 71.4525 52.5253C71.4525 51.9593 71.9091 51.5065 72.4798 51.5065Z" fill="#473BF0"/>
<path d="M63.2339 67.1281V65.7697C63.5763 65.7697 63.9188 65.6565 64.2612 65.5433C64.6036 65.4301 64.8319 65.3169 65.1744 65.0905C65.4027 64.8641 65.631 64.6377 65.7451 64.2981C65.8593 63.9585 65.9734 63.6189 65.9734 63.1661C65.9734 62.1473 65.5168 61.4681 64.4895 61.1285C63.8046 60.9021 63.1197 60.6757 63.1197 60.6757V59.3173C63.348 59.3173 63.5763 59.4305 63.8046 59.4305C64.147 59.5437 64.4895 59.6569 64.8319 59.8833C64.9461 59.9965 65.0602 59.9965 65.0602 59.9965L65.8593 58.4117C65.5168 58.1853 65.1744 58.0721 64.7178 57.8457C64.2612 57.6193 63.8046 57.5061 63.348 57.5061V56.3741H62.549V57.5061C61.5217 57.6193 60.6085 58.0721 60.1519 59.0909C59.9236 59.6569 59.9236 60.4493 60.0377 60.9021C60.1519 61.2417 60.4943 61.6945 61.0651 61.9209C61.6358 62.2605 62.3207 62.3737 62.549 62.4869V63.9585C62.3207 63.9585 61.9783 63.8453 61.75 63.7321C61.4075 63.6189 60.8368 63.3925 60.4943 63.1661C60.3802 63.0529 60.266 63.0529 60.266 62.9397L59.467 64.5245C60.3802 65.0905 61.4075 65.4301 62.4348 65.5433V66.9017L63.2339 67.1281ZM63.1197 62.7133C63.348 62.8265 63.5763 62.9397 63.8046 63.0529C63.9188 63.1661 64.0329 63.2793 64.0329 63.5057C64.0329 63.8453 63.6905 64.0717 63.1197 64.0717V62.7133ZM61.9783 60.3361C61.8641 60.2229 61.75 60.1097 61.75 59.8833C61.75 59.5437 61.9783 59.3173 62.549 59.2041V60.5625C62.3207 60.5625 62.0924 60.4493 61.9783 60.3361Z" fill="#473BF0"/>
<path d="M61.3892 15.0572C61.3906 14.4945 60.9318 14.0372 60.3644 14.0359C59.797 14.0345 59.3359 14.4895 59.3345 15.0522C59.3332 15.6149 59.792 16.0721 60.3594 16.0735C60.9267 16.0748 61.3878 15.6198 61.3892 15.0572Z" fill="#473BF0"/>
<path d="M52.8465 71.9958C53.4172 71.9958 53.8738 72.4486 53.8738 73.0146C53.8738 73.5806 53.4172 74.0334 52.8465 74.0334C52.2757 74.0334 51.8191 73.5806 51.8191 73.0146C51.8191 72.4486 52.2757 71.9958 52.8465 71.9958Z" fill="#473BF0"/>
<path d="M32.5282 68.4866C33.0989 68.4866 33.5555 68.9394 33.5555 69.5054C33.5555 70.0714 33.0989 70.5242 32.5282 70.5242C31.9574 70.5242 31.5009 70.0714 31.5009 69.5054C31.5009 68.9394 31.9574 68.4866 32.5282 68.4866Z" fill="#473BF0"/>
<path d="M31.1584 16.8671C31.7291 16.8671 32.1857 17.3199 32.1857 17.8859C32.1857 18.4519 31.7291 18.9047 31.1584 18.9047C30.5877 18.9047 30.1311 18.4519 30.1311 17.8859C30.1311 17.3199 30.5877 16.8671 31.1584 16.8671Z" fill="#473BF0"/>
<path d="M14.0363 33.8472C14.607 33.8472 15.0636 34.3 15.0636 34.866C15.0636 35.432 14.607 35.8848 14.0363 35.8848C13.4655 35.8848 13.0089 35.432 13.0089 34.866C13.0089 34.3 13.4655 33.8472 14.0363 33.8472Z" fill="#473BF0"/>
<path d="M44.6278 27.0551C46.1117 27.0551 47.3673 25.8099 47.3673 24.3383C47.3673 22.8667 46.1117 21.6215 44.6278 21.6215C43.1439 21.6215 41.8882 22.8667 41.8882 24.3383C41.8882 25.8099 43.1439 27.0551 44.6278 27.0551ZM44.6278 22.9799C45.3127 22.9799 45.9976 23.5459 45.9976 24.3383C45.9976 25.0175 45.4268 25.6967 44.6278 25.6967C43.8288 25.6967 43.258 25.1307 43.258 24.3383C43.258 23.5459 43.8288 22.9799 44.6278 22.9799Z" fill="#473BF0"/>
<path d="M44.6278 58.8645C43.1439 58.8645 41.8882 60.1097 41.8882 61.5813C41.8882 63.0529 43.1439 64.2981 44.6278 64.2981C46.1117 64.2981 47.3673 63.0529 47.3673 61.5813C47.3673 60.1097 46.1117 58.8645 44.6278 58.8645ZM44.6278 62.9397C43.9429 62.9397 43.258 62.3737 43.258 61.5813C43.258 60.9021 43.8288 60.2229 44.6278 60.2229C45.3127 60.2229 45.9976 60.7889 45.9976 61.5813C45.9976 62.3737 45.3127 62.9397 44.6278 62.9397Z" fill="#473BF0"/>
<path d="M57.9831 32.4887C59.467 32.4887 60.7226 31.2435 60.7226 29.7719C60.7226 28.3003 59.467 27.0551 57.9831 27.0551C56.4992 27.0551 55.2435 28.3003 55.2435 29.7719C55.1294 31.2435 56.385 32.4887 57.9831 32.4887ZM57.9831 28.4135C58.668 28.4135 59.3529 28.9795 59.3529 29.7719C59.3529 30.5643 58.668 31.0171 57.9831 31.0171C57.2982 31.0171 56.6133 30.4511 56.6133 29.6587C56.6133 28.8663 57.1841 28.4135 57.9831 28.4135Z" fill="#473BF0"/>
<path d="M31.2726 53.4308C29.7886 53.4308 28.533 54.6761 28.533 56.1477C28.533 57.6193 29.7886 58.8645 31.2726 58.8645C32.7565 58.8645 34.0121 57.6193 34.0121 56.1477C34.0121 54.6761 32.8706 53.4308 31.2726 53.4308ZM31.2726 57.5061C30.5877 57.5061 29.9028 56.9401 29.9028 56.1477C29.9028 55.4685 30.4735 54.7893 31.2726 54.7893C32.0716 54.7893 32.6423 55.3553 32.6423 56.1477C32.6423 56.9401 32.0716 57.5061 31.2726 57.5061Z" fill="#473BF0"/>
<path d="M45.3127 39.8468V29.8851C45.3127 29.5455 44.9703 29.2059 44.6278 29.2059C44.2854 29.2059 43.9429 29.5455 43.9429 29.8851V39.8468C42.8014 40.0732 41.8883 41.092 41.5458 42.224H34.8111C34.4687 42.224 34.1262 42.5636 34.1262 42.9032C34.1262 43.2428 34.4687 43.5824 34.8111 43.5824H41.5458C41.8883 44.9408 43.1439 46.0728 44.6278 46.0728C46.34 46.0728 47.8239 44.7144 47.8239 42.9032C47.8239 41.4316 46.6825 40.1864 45.3127 39.8468ZM44.6278 44.7144C43.7146 44.7144 42.9156 43.922 42.9156 43.0164C42.9156 42.1108 43.7146 41.3184 44.6278 41.3184C45.541 41.3184 46.34 42.1108 46.34 43.0164C46.34 43.922 45.541 44.7144 44.6278 44.7144Z" fill="#473BF0"/>
<path d="M63.4622 45.7333C64.9461 45.7333 66.2017 44.488 66.2017 43.0164C66.2017 41.5448 64.9461 40.2996 63.4622 40.2996C61.9783 40.2996 60.7226 41.5448 60.7226 43.0164C60.7226 44.488 61.9783 45.7333 63.4622 45.7333ZM63.4622 41.658C64.1471 41.658 64.8319 42.224 64.8319 43.0164C64.8319 43.8088 64.2612 44.3748 63.4622 44.3748C62.7773 44.3748 62.0924 43.8088 62.0924 43.0164C62.0924 42.224 62.7773 41.658 63.4622 41.658Z" fill="#473BF0"/>
<path d="M25.7934 40.1864C24.3095 40.1864 23.0539 41.4316 23.0539 42.9032C23.0539 44.3748 24.3095 45.62 25.7934 45.62C27.2774 45.62 28.533 44.3748 28.533 42.9032C28.533 41.4316 27.2774 40.1864 25.7934 40.1864ZM25.7934 44.2616C25.1086 44.2616 24.4237 43.6956 24.4237 42.9032C24.4237 42.1108 24.9944 41.5448 25.7934 41.5448C26.4783 41.5448 27.1632 42.1108 27.1632 42.9032C27.1632 43.6956 26.4783 44.2616 25.7934 44.2616Z" fill="#473BF0"/>
<path d="M31.2726 26.9419C29.7886 26.9419 28.533 28.1871 28.533 29.6587C28.533 31.1303 29.7886 32.3756 31.2726 32.3756C32.7565 32.3756 34.0121 31.1303 34.0121 29.6587C34.0121 28.1871 32.8706 26.9419 31.2726 26.9419ZM31.2726 31.0171C30.5877 31.0171 29.9028 30.4511 29.9028 29.6587C29.9028 28.8663 30.4735 28.3003 31.2726 28.3003C32.0716 28.3003 32.6423 28.8663 32.6423 29.6587C32.6423 30.4511 32.0716 31.0171 31.2726 31.0171Z" fill="#473BF0"/>
<path d="M70.8818 61.8077C70.8818 57.3929 67.229 53.7705 62.7773 53.7705C58.3255 53.7705 54.6728 57.3929 54.6728 61.8077C54.6728 66.2225 58.3255 69.845 62.7773 69.845C67.229 69.845 70.8818 66.2225 70.8818 61.8077ZM56.0426 61.8077C56.0426 58.1853 59.0104 55.1289 62.7773 55.1289C66.5441 55.1289 69.512 58.0721 69.512 61.8077C69.512 65.5433 66.5441 68.4866 62.7773 68.4866C59.0104 68.4866 56.0426 65.4301 56.0426 61.8077Z" fill="#473BF0"/>
<path d="M73.7355 61.1285C73.393 61.1285 73.0506 61.4681 73.0506 61.8077C73.0506 67.4677 68.4847 71.9958 62.7773 71.9958C62.4349 71.9958 62.0924 72.3354 62.0924 72.675C62.0924 73.0146 62.4349 73.3542 62.7773 73.3542C69.2837 73.3542 74.5345 68.1469 74.5345 61.6945C74.4204 61.3549 74.0779 61.1285 73.7355 61.1285Z" fill="#473BF0"/>
<path d="M53.7596 65.5433C53.303 64.4113 52.9606 63.0529 52.9606 61.8077C52.9606 56.4873 57.2982 52.1856 62.6631 52.1856C64.147 52.1856 65.5168 52.5252 66.8866 53.0912C67.229 53.3176 67.6856 53.0912 67.7998 52.7516C69.1695 49.582 69.8544 46.2992 69.8544 42.9032C69.8544 29.0927 58.5538 17.7726 44.5136 17.7726C30.4735 17.7726 19.1729 28.9795 19.1729 42.9032C19.1729 44.6012 19.287 46.2992 19.6295 47.884H13.4655C13.1231 47.884 12.7806 48.2236 12.7806 48.5632C12.7806 48.9028 13.1231 49.2424 13.4655 49.2424H19.9719C20.2002 49.9216 20.4285 50.714 20.6568 51.3932H17.689C17.3465 51.3932 17.0041 51.7328 17.0041 52.0724C17.0041 52.412 17.3465 52.7516 17.689 52.7516H21.2275C22.4832 55.6949 24.3095 58.2985 26.5925 60.5625H16.3192C15.9767 60.5625 15.6343 60.9021 15.6343 61.2417C15.6343 61.5813 15.9767 61.9209 16.3192 61.9209H28.0764C35.0394 67.8073 44.7419 69.3921 53.1889 66.3357C53.7596 66.3357 53.9879 65.8829 53.7596 65.5433ZM30.5876 62.0341H34.3545C34.697 62.0341 35.0394 61.6945 35.0394 61.3549C35.0394 61.0153 34.697 60.6757 34.3545 60.6757H28.8754C26.3642 58.5249 24.4237 55.8081 23.0539 52.8648H28.6471C28.9896 52.8648 29.332 52.5252 29.332 52.1856C29.332 51.846 28.9896 51.5064 28.6471 51.5064H22.369C22.1407 50.8272 21.9124 50.148 21.6841 49.3556H24.4237C24.7661 49.3556 25.1086 49.016 25.1086 48.6764C25.1086 48.3368 24.7661 47.9972 24.4237 47.9972H21.3417C20.9992 46.4124 20.7709 44.7144 20.7709 43.0164C20.7709 29.9983 31.5008 19.3575 44.6278 19.3575C57.7548 19.3575 68.4846 29.8851 68.4846 42.9032C68.4846 45.8464 67.9139 48.7896 66.8866 51.5064C65.631 50.9404 64.147 50.714 62.7773 50.714C56.6133 50.714 51.7049 55.6949 51.7049 61.6945C51.7049 62.9397 51.9332 64.1849 52.2757 65.3169C45.0844 67.8073 36.9799 66.6753 30.5876 62.0341Z" fill="#473BF0"/>
<path d="M20.771 57.1665C21.1134 57.1665 21.4559 56.8269 21.4559 56.4873C21.4559 56.1477 21.1134 55.8081 20.771 55.8081H12.2099C11.8675 55.8081 11.525 56.1477 11.525 56.4873C11.525 56.8269 11.8675 57.1665 12.2099 57.1665H20.771Z" fill="#473BF0"/>
<path d="M21.4558 64.1849H12.8948C12.5523 64.1849 12.2099 64.5245 12.2099 64.8641C12.2099 65.2037 12.5523 65.5433 12.8948 65.5433H21.4558C21.7983 65.5433 22.1407 65.2037 22.1407 64.8641C22.1407 64.5245 21.9124 64.1849 21.4558 64.1849Z" fill="#473BF0"/>
<path d="M71.4525 24.5647C74.192 24.5647 76.475 22.3007 76.475 19.5839C76.475 16.8671 74.192 14.6031 71.4525 14.6031C68.713 14.6031 66.43 16.8671 66.43 19.5839C66.43 22.3007 68.713 24.5647 71.4525 24.5647ZM71.4525 16.0747C73.393 16.0747 74.9911 17.6595 74.9911 19.5839C74.9911 21.5083 73.393 23.0931 71.4525 23.0931C69.512 23.0931 67.9139 21.5083 67.9139 19.5839C67.9139 17.6595 69.3978 16.0747 71.4525 16.0747Z" fill="#473BF0"/>
<path d="M17.2324 28.8663C19.1729 28.8663 20.771 27.2815 20.771 25.3571C20.771 23.4327 19.1729 21.8479 17.2324 21.8479C15.2919 21.8479 13.6938 23.4327 13.6938 25.3571C13.6938 27.2815 15.1777 28.8663 17.2324 28.8663ZM17.2324 23.2063C18.3739 23.2063 19.4012 24.1119 19.4012 25.3571C19.4012 26.6023 18.488 27.5079 17.2324 27.5079C16.0909 27.5079 15.0636 26.6023 15.0636 25.3571C15.0636 24.1119 15.9768 23.2063 17.2324 23.2063Z" fill="#473BF0"/>
</svg>
