<svg width="88" height="89" viewBox="0 0 88 89" fill="none" xmlns="http://www.w3.org/2000/svg">
<g clip-path="url(#clip0_9_1403)">
<path d="M30.5617 59.938L43.4371 68.7166C43.7899 68.9558 44.2527 68.9558 44.605 68.7166L57.4844 59.9385C61.1007 57.4725 64.0508 51.909 64.0508 47.5356V29.1159C64.0477 28.7207 63.8206 28.3613 63.4653 28.1882L44.4818 18.866C44.1941 18.7252 43.8575 18.7252 43.5698 18.866L24.5843 28.1599C24.2275 28.3325 23.9998 28.6919 23.9963 29.0881V47.5356C23.9963 51.909 26.9459 57.4725 30.5617 59.938ZM26.0636 29.7326L44.0215 20.9455L61.9834 29.7599V47.5356C61.9834 51.1786 59.3332 56.1758 56.32 58.23L44.0276 66.6114L31.7286 58.23C28.7159 56.1758 26.0636 51.1786 26.0636 47.5356V29.7326Z" fill="#473BF0"/>
<path d="M28.161 63.4443L43.4328 73.8536C43.7866 74.0934 44.2504 74.0934 44.6042 73.8536L59.8851 63.4448C64.6016 60.2293 68.3149 53.2409 68.3149 47.5356V26.4722C68.3078 26.075 68.0771 25.7161 67.7193 25.544L44.4891 14.1389C44.2004 13.9981 43.8628 13.9981 43.5741 14.1389L20.3318 25.5127C19.9724 25.6838 19.7408 26.0432 19.7327 26.4409V47.5356C19.7327 53.2409 23.4449 60.2293 28.161 63.4443ZM21.8 27.0854L44.0243 16.2183L66.248 27.1157V47.5356C66.248 52.6282 62.9325 58.866 58.7217 61.7369L44.0324 71.7484L29.3304 61.7363C25.1206 58.8665 21.8 52.6282 21.8 47.5356V27.0854Z" fill="#473BF0"/>
<path d="M40.3811 53.5559C40.5754 53.7492 40.8394 53.8562 41.1134 53.8532H41.116C41.3885 53.8567 41.652 53.7507 41.8468 53.5599L56.5331 38.8777C56.7274 38.6844 56.8364 38.4219 56.8364 38.1478C56.8364 37.8738 56.7274 37.6113 56.5331 37.418L53.6098 34.4957C53.206 34.0919 52.5514 34.0919 52.1476 34.4957L41.1336 45.5102L35.9189 40.2439C35.5171 39.8381 34.8625 39.8351 34.4567 40.2369L31.5187 43.1461C31.3239 43.3394 31.2139 43.6018 31.2124 43.8759C31.2114 44.1484 31.3189 44.4104 31.5117 44.6037L40.3811 53.5559ZM35.1769 42.4339L40.3957 47.7178C40.5875 47.9172 40.851 48.0327 41.1276 48.0383H41.1301C41.4062 48.0333 41.6686 47.9192 41.8609 47.7213L52.8789 36.6968L54.3406 38.1549L41.1195 51.3745L33.7082 43.89L35.1769 42.4339Z" fill="#473BF0"/>
</g>
<defs>
<clipPath id="clip0_9_1403">
<rect width="60" height="60" fill="white" transform="translate(14 14.0334)"/>
</clipPath>
</defs>
</svg>
