<svg width="88" height="89" viewBox="0 0 88 89" fill="none" xmlns="http://www.w3.org/2000/svg">
<path d="M70.9 47.0898C71.4 47.0898 71.8 47.5122 71.8 48.0403C71.8 48.5683 71.4 48.9908 70.9 48.9908C70.4 48.9908 70 48.5683 70 48.0403C70 47.5122 70.4 47.0898 70.9 47.0898Z" fill="#473BF0"/>
<path d="M62.8 22.5879C63.3 22.5879 63.7 23.0103 63.7 23.5384C63.7 24.0664 63.3 24.4889 62.8 24.4889C62.3 24.4889 61.9 24.0664 61.9 23.5384C61.9 23.0103 62.3 22.5879 62.8 22.5879Z" fill="#473BF0"/>
<path d="M59.7 60.2912C59 59.9744 58.5 59.8688 58.4 59.8688V58.2846C58.6 58.2846 58.8 58.3902 59 58.3902C59.4 58.4959 59.8 58.7071 59.9 58.8127C60 58.9183 60.1 58.9183 60.1 58.9183L60.9 57.3341C60.6 57.1229 60.2 57.0173 59.8 56.8061C59.4 56.5948 59 56.4892 58.5 56.4892V55.3275H57.8V56.4892C56.8 56.5948 56 57.0173 55.6 58.0734C55.4 58.6014 55.4 59.4464 55.5 59.8688C55.6 60.2912 55.9 60.6081 56.5 60.9249C57.1 61.2418 57.7 61.3474 57.9 61.453V62.9315C57.6 62.9315 57.4 62.8259 57.2 62.7203C56.8 62.6147 56.4 62.4035 56.1 62.1923C56 62.0867 55.9 62.0866 55.9 61.981L55.1 63.5652C55.9 64.0933 56.9 64.4101 57.9 64.5157V65.8887H58.5V64.6213C58.8 64.6213 59.2 64.5157 59.5 64.4101C59.8 64.3045 60.1 64.1989 60.3 63.9876C60.5 63.7764 60.7 63.5652 60.9 63.2484C61 62.9315 61.1 62.6147 61.1 62.1923C61.1 61.7698 61 61.5586 60.9 61.2417C60.8 61.0305 60.4 60.6081 59.7 60.2912ZM57.9 59.7632C57.6 59.6576 57.5 59.552 57.3 59.4464C57.2 59.3407 57.1 59.2351 57.1 59.0239C57.1 58.6015 57.4 58.3902 57.8 58.3902V59.7632H57.9ZM58.4 63.1428V61.7698C58.6 61.8754 58.8 61.981 59 62.0867C59.1 62.1923 59.2 62.2979 59.2 62.5091C59.2 62.9315 58.9 63.1428 58.4 63.1428Z" fill="#473BF0"/>
<path d="M57.1 41.0699C57.6 41.0699 58 41.4924 58 42.0204C58 42.5485 57.6 42.9709 57.1 42.9709C56.6 42.9709 56.2 42.5485 56.2 42.0204C56.2 41.4924 56.6 41.0699 57.1 41.0699Z" fill="#473BF0"/>
<path d="M52.1 14.0334C52.6 14.0334 53 14.4558 53 14.9839C53 15.5119 52.6 15.9344 52.1 15.9344C51.6 15.9344 51.2 15.5119 51.2 14.9839C51.2 14.4558 51.6 14.0334 52.1 14.0334Z" fill="#473BF0"/>
<path d="M36.5 19.314C37 19.314 37.4 19.7364 37.4 20.2645C37.4 20.7925 37 21.215 36.5 21.215C36 21.215 35.6 20.7925 35.6 20.2645C35.6 19.7364 36 19.314 36.5 19.314Z" fill="#473BF0"/>
<path d="M66.9 51.5255C62.4 46.8786 55.5 46.3505 50.6 50.2581V42.3373H52.5C52.8 42.3373 53.1 42.0204 53.1 41.7036V33.7827C53.1 33.4659 52.8 33.1491 52.5 33.1491H48.1V25.8619C48.1 25.545 47.8 25.2282 47.5 25.2282H16.8C16.5 25.2282 16.2 25.545 16.2 25.8619V33.7827C16.2 34.0996 16.5 34.4164 16.8 34.4164H21.2V41.07H19.3C19 41.07 18.7 41.3868 18.7 41.7036V73.3871C18.7 73.7039 19 74.0208 19.3 74.0208H49.9C50.2 74.0208 50.5 73.7039 50.5 73.3871V71.3805C55.5 75.3937 62.5 74.7601 66.8 70.1131C71.8 65.0438 71.8 56.7005 66.9 51.5255ZM66.8 61.5586H69.3C69.2 64.3045 68.1 66.8392 66.4 68.8458L64.6 66.9448C64.4 66.7336 64 66.7336 63.7 66.9448C63.5 67.156 63.5 67.5785 63.7 67.8953L65.5 69.7963C63.7 71.5917 61.3 72.6478 58.6 72.859V70.2187C58.6 69.9019 58.3 69.5851 58 69.5851C57.7 69.5851 57.4 69.9019 57.4 70.2187V72.859C54.8 72.7534 52.4 71.6973 50.5 69.9019L52.3 68.0009C52.5 67.7897 52.5 67.3672 52.3 67.0504C52.1 66.8392 51.7 66.8392 51.4 67.0504L49.6 68.9514C47.9 66.9448 46.9 64.4101 46.8 61.6642H49.3C49.6 61.6642 49.9 61.3474 49.9 61.0305C49.9 60.7137 49.6 60.3969 49.3 60.3969H46.8C46.9 57.651 48 55.1163 49.6 53.1097L51.4 55.0107C51.6 55.2219 52 55.2219 52.3 55.0107C52.5 54.7994 52.5 54.377 52.3 54.0602L50.5 52.1592C52.4 50.3638 54.8 49.3076 57.4 49.202V51.8423C57.4 52.1592 57.7 52.476 58 52.476C58.3 52.476 58.6 52.1592 58.6 51.8423V49.202C61.2 49.3076 63.6 50.4694 65.5 52.2648L63.7 54.1658C63.5 54.377 63.5 54.7994 63.7 55.1163C63.9 55.3275 64.3 55.3275 64.6 55.1163L66.4 53.2153C68.1 55.1163 69.1 57.651 69.3 60.5025H66.8C66.5 60.5025 66.2 60.8193 66.2 61.1362C66.2 61.2418 66.5 61.5586 66.8 61.5586ZM49.3 51.4199C47.8 52.8984 46.7 54.7995 46.1 56.9117H19.9V50.2581H49.3V51.4199ZM19.9 58.179H45.8C45.4 60.2912 45.5 62.6147 46.1 64.8326H19.9V58.179ZM17.4 26.4955H46.8V33.1491H17.4V26.4955ZM51.8 34.4164V41.07H22.4V34.4164H51.8ZM49.3 42.3373V48.9908H19.9V42.3373H49.3ZM19.9 72.7534V66.0999H46.6C47.2 67.6841 48.2 69.057 49.3 70.2187V72.6478H19.9V72.7534Z" fill="#473BF0"/>
<path d="M23.7 21.215C25.4 21.215 26.8 19.7364 26.8 17.941C26.8 16.1456 25.4 14.6671 23.7 14.6671C22 14.6671 20.6 16.1456 20.6 17.941C20.6 19.7364 22 21.215 23.7 21.215ZM23.7 15.9344C24.7 15.9344 25.6 16.7793 25.6 17.941C25.6 19.1027 24.8 19.9476 23.7 19.9476C22.7 19.9476 21.8 19.1027 21.8 17.941C21.8 16.7793 22.7 15.9344 23.7 15.9344Z" fill="#473BF0"/>
<path d="M65.6 40.4362C68 40.4362 70 38.324 70 35.7893C70 33.2547 68 31.1424 65.6 31.1424C63.2 31.1424 61.2 33.2547 61.2 35.7893C61.2 38.324 63.2 40.4362 65.6 40.4362ZM65.6 32.5154C67.3 32.5154 68.7 33.9939 68.7 35.7893C68.7 37.5847 67.3 39.0633 65.6 39.0633C63.9 39.0633 62.5 37.5847 62.5 35.7893C62.5 33.9939 63.8 32.5154 65.6 32.5154Z" fill="#473BF0"/>
</svg>
