<svg width="88" height="89" viewBox="0 0 88 89" fill="none" xmlns="http://www.w3.org/2000/svg">
<path d="M71.8 32.4834C72.3 32.4834 72.7 32.8834 72.7 33.3834C72.7 33.8834 72.3 34.2834 71.8 34.2834C71.3 34.2834 70.9 33.8834 70.9 33.3834C70.9 32.8834 71.3 32.4834 71.8 32.4834Z" fill="#473BF0"/>
<path d="M69.9 53.0834C70.4 53.0834 70.8 53.4834 70.8 53.9834C70.8 54.4834 70.4 54.8834 69.9 54.8834C69.4 54.8834 69 54.4834 69 53.9834C69 53.4834 69.4 53.0834 69.9 53.0834Z" fill="#473BF0"/>
<path d="M65.6 16.1834C66.1 16.1834 66.5 16.5834 66.5 17.0834C66.5 17.5834 66.1 17.9834 65.6 17.9834C65.1 17.9834 64.7 17.5834 64.7 17.0834C64.7 16.5834 65.1 16.1834 65.6 16.1834Z" fill="#473BF0"/>
<path d="M59.3 68.6834C59.8 68.6834 60.2 69.0834 60.2 69.5834C60.2 70.0834 59.8 70.4834 59.3 70.4834C58.8 70.4834 58.4 70.0834 58.4 69.5834C58.4 69.0834 58.8 68.6834 59.3 68.6834Z" fill="#473BF0"/>
<path d="M38.7 14.9834C39.2 14.9834 39.6 15.3834 39.6 15.8834C39.6 16.3834 39.2 16.7834 38.7 16.7834C38.2 16.7834 37.8 16.3834 37.8 15.8834C37.8 15.3834 38.2 14.9834 38.7 14.9834Z" fill="#473BF0"/>
<path d="M18.1 56.7834C18.597 56.7834 19 56.3805 19 55.8834C19 55.3863 18.597 54.9834 18.1 54.9834C17.6029 54.9834 17.2 55.3863 17.2 55.8834C17.2 56.3805 17.6029 56.7834 18.1 56.7834Z" fill="#473BF0"/>
<path d="M16.8 28.6834C17.3 28.6834 17.7 29.0834 17.7 29.5834C17.7 30.0834 17.3 30.4834 16.8 30.4834C16.3 30.4834 15.9 30.0834 15.9 29.5834C15.9 29.0834 16.3 28.6834 16.8 28.6834Z" fill="#473BF0"/>
<path d="M55.9 19.8834H25.3C25 19.8834 24.7 20.1834 24.7 20.4834V24.2834H20.9C20.6 24.2834 20.3 24.5834 20.3 24.8834V71.7834C20.3 72.0834 20.6 72.3834 20.9 72.3834H51.5C51.8 72.3834 52.1 72.0834 52.1 71.7834V67.9834H55.9C56.2 67.9834 56.5 67.6834 56.5 67.3834V20.5834C56.5 20.1834 56.2 19.8834 55.9 19.8834ZM50.9 71.1834H21.5V25.5834H24.6V67.4834C24.6 67.7834 24.9 68.0834 25.2 68.0834H50.8V71.1834H50.9ZM55.3 66.7834H25.9V21.1834H55.3V66.7834Z" fill="#473BF0"/>
<path d="M65.9 56.7834V27.9834H67.2V37.3834C67.2 37.6834 67.5 37.9834 67.8 37.9834C68.1 37.9834 68.4 37.6834 68.4 37.3834V27.3834C68.4 27.0834 68.1 26.7834 67.8 26.7834H65.9V24.2834C65.9 23.9834 65.6 23.6834 65.3 23.6834H64.7V22.3834C64.7 20.9834 63.6 19.8834 62.2 19.8834C60.8 19.8834 59.7 20.9834 59.7 22.3834V23.6834H59.1C58.8 23.6834 58.5 23.9834 58.5 24.2834V56.7834C58.5 56.8834 58.5 56.9834 58.6 57.0834L61.7 63.3834C61.8 63.5834 62 63.6834 62.3 63.6834C62.6 63.6834 62.8 63.5834 62.9 63.3834L66 57.0834C65.9 56.9834 65.9 56.8834 65.9 56.7834ZM59.6 43.6834V31.1834H61.5V43.6834H59.6ZM62.8 31.1834H64.7V43.6834H62.8V31.1834ZM60.9 22.3834C60.9 21.6834 61.5 21.0834 62.2 21.0834C62.9 21.0834 63.5 21.6834 63.5 22.3834V23.6834H61V22.3834H60.9ZM64.6 24.8834V29.8834H59.6V24.8834H64.6ZM62.1 61.6834L59.6 56.6834V44.8834H64.6V56.5834L62.1 61.6834Z" fill="#473BF0"/>
<path d="M67.1 64.2834C64.7 64.2834 62.7 66.2834 62.7 68.6834C62.7 71.0834 64.7 73.0834 67.1 73.0834C69.5 73.0834 71.5 71.0834 71.5 68.6834C71.5 66.2834 69.5 64.2834 67.1 64.2834ZM67.1 71.7834C65.4 71.7834 64 70.3834 64 68.6834C64 66.9834 65.4 65.5834 67.1 65.5834C68.8 65.5834 70.2 66.9834 70.2 68.6834C70.3 70.3834 68.8 71.7834 67.1 71.7834Z" fill="#473BF0"/>
<path d="M18.4 21.1834C20.1 21.1834 21.5 19.7834 21.5 18.0834C21.5 16.3834 20.1 14.9834 18.4 14.9834C16.7 14.9834 15.3 16.3834 15.3 18.0834C15.3 19.7834 16.7 21.1834 18.4 21.1834ZM18.4 16.1834C19.4 16.1834 20.3 16.9834 20.3 18.0834C20.3 19.1834 19.5 19.9834 18.4 19.9834C17.4 19.9834 16.5 19.1834 16.5 18.0834C16.5 16.9834 17.3 16.1834 18.4 16.1834Z" fill="#473BF0"/>
<path d="M29 29.8834H40.3C40.6 29.8834 40.9 29.5834 40.9 29.2834C40.9 28.9834 40.6 28.6834 40.3 28.6834H29C28.7 28.6834 28.4 28.9834 28.4 29.2834C28.4 29.6834 28.7 29.8834 29 29.8834Z" fill="#473BF0"/>
<path d="M29 33.0834H52.1C52.4 33.0834 52.7 32.7834 52.7 32.4834C52.7 32.1834 52.4 31.8834 52.1 31.8834H29C28.7 31.8834 28.4 32.1834 28.4 32.4834C28.4 32.7834 28.7 33.0834 29 33.0834Z" fill="#473BF0"/>
<path d="M29 36.1834H52.1C52.4 36.1834 52.7 35.8834 52.7 35.5834C52.7 35.2834 52.4 34.9834 52.1 34.9834H29C28.7 34.9834 28.4 35.2834 28.4 35.5834C28.4 35.8834 28.7 36.1834 29 36.1834Z" fill="#473BF0"/>
<path d="M29 39.2834H52.1C52.4 39.2834 52.7 38.9834 52.7 38.6834C52.7 38.3834 52.4 38.0834 52.1 38.0834H29C28.7 38.0834 28.4 38.3834 28.4 38.6834C28.4 38.9834 28.7 39.2834 29 39.2834Z" fill="#473BF0"/>
<path d="M29 42.3834H52.1C52.4 42.3834 52.7 42.0834 52.7 41.7834C52.7 41.4834 52.4 41.1834 52.1 41.1834H29C28.7 41.1834 28.4 41.4834 28.4 41.7834C28.4 42.1834 28.7 42.3834 29 42.3834Z" fill="#473BF0"/>
<path d="M29 45.5834H52.1C52.4 45.5834 52.7 45.2834 52.7 44.9834C52.7 44.6834 52.4 44.3834 52.1 44.3834H29C28.7 44.3834 28.4 44.6834 28.4 44.9834C28.4 45.2834 28.7 45.5834 29 45.5834Z" fill="#473BF0"/>
<path d="M29 48.6834H52.1C52.4 48.6834 52.7 48.3834 52.7 48.0834C52.7 47.7834 52.4 47.4834 52.1 47.4834H29C28.7 47.4834 28.4 47.7834 28.4 48.0834C28.4 48.3834 28.7 48.6834 29 48.6834Z" fill="#473BF0"/>
<path d="M29 51.7834H52.1C52.4 51.7834 52.7 51.4834 52.7 51.1834C52.7 50.8834 52.4 50.5834 52.1 50.5834H29C28.7 50.5834 28.4 50.8834 28.4 51.1834C28.4 51.4834 28.7 51.7834 29 51.7834Z" fill="#473BF0"/>
<path d="M29 54.8834H52.1C52.4 54.8834 52.7 54.5834 52.7 54.2834C52.7 53.9834 52.4 53.6834 52.1 53.6834H29C28.7 53.6834 28.4 53.9834 28.4 54.2834C28.4 54.5834 28.7 54.8834 29 54.8834Z" fill="#473BF0"/>
<path d="M29 58.0834H52.1C52.4 58.0834 52.7 57.7834 52.7 57.4834C52.7 57.1834 52.4 56.8834 52.1 56.8834H29C28.7 56.8834 28.4 57.1834 28.4 57.4834C28.4 57.7834 28.7 58.0834 29 58.0834Z" fill="#473BF0"/>
<path d="M29 61.1834H52.1C52.4 61.1834 52.7 60.8834 52.7 60.5834C52.7 60.2834 52.4 59.9834 52.1 59.9834H29C28.7 59.9834 28.4 60.2834 28.4 60.5834C28.4 60.8834 28.7 61.1834 29 61.1834Z" fill="#473BF0"/>
<path d="M29 64.2834H52.1C52.4 64.2834 52.7 63.9834 52.7 63.6834C52.7 63.3834 52.4 63.0834 52.1 63.0834H29C28.7 63.0834 28.4 63.3834 28.4 63.6834C28.4 63.9834 28.7 64.2834 29 64.2834Z" fill="#473BF0"/>
</svg>
