<svg width="79" height="25" viewBox="0 0 79 25" fill="none" xmlns="http://www.w3.org/2000/svg">
<mask id="mask0_18_237" style="mask-type:luminance" maskUnits="userSpaceOnUse" x="1" y="0" width="78" height="11">
<path fill-rule="evenodd" clip-rule="evenodd" d="M1.73767 10.7725L1.73767 0.656522L78.3542 0.656518L78.3542 10.7725L1.73767 10.7725Z" fill="white"/>
</mask>
<g mask="url(#mask0_18_237)">
<path fill-rule="evenodd" clip-rule="evenodd" d="M77.0296 10.7725C73.3479 10.7725 71.5013 8.56623 69.8702 6.62223C68.3709 4.82909 67.1875 3.4148 64.7089 3.41481C62.2286 3.41481 61.0453 4.82909 59.5426 6.62223C57.9133 8.56623 56.0666 10.7725 52.3833 10.7725C48.7032 10.7725 46.8565 8.56623 45.2272 6.62223C43.7278 4.82909 42.5428 3.41481 40.0658 3.41481C37.5856 3.41481 36.4006 4.82909 34.8996 6.62223C33.2685 8.56623 31.4219 10.7725 27.7369 10.7725C24.0519 10.7725 22.202 8.56795 20.5709 6.62224C19.0699 4.83081 17.8817 3.41481 15.3997 3.41481C12.9178 3.41481 11.7312 4.83081 10.2302 6.62224C8.5975 8.56795 6.74923 10.7725 3.06257 10.7725C2.33182 10.7725 1.73767 10.1554 1.73767 9.39252C1.73767 8.63138 2.33182 8.01424 3.06257 8.01424C5.54613 8.01424 6.73278 6.59824 8.23377 4.80681C9.8648 2.86109 11.7131 0.656521 15.3997 0.656521C19.0848 0.656521 20.9347 2.86109 22.5657 4.80852C24.0683 6.59824 25.255 8.01424 27.7369 8.01424C30.2172 8.01423 31.4038 6.59823 32.9032 4.80852C34.5342 2.86109 36.3808 0.65652 40.0658 0.65652C43.7476 0.65652 45.5942 2.86281 47.2236 4.80852C48.7229 6.59823 49.9079 8.01423 52.3833 8.01423C54.8635 8.01423 56.0469 6.59823 57.5479 4.80852C59.1773 2.8628 61.0255 0.656519 64.7089 0.656519C68.3906 0.656519 70.2389 2.8628 71.8683 4.80852C73.3676 6.59823 74.5526 8.01423 77.0296 8.01423C77.7604 8.01423 78.3545 8.63138 78.3545 9.39252C78.3545 10.1554 77.7604 10.7725 77.0296 10.7725Z" fill="#F64B4B"/>
</g>
<path fill-rule="evenodd" clip-rule="evenodd" d="M75.6685 24.8643C71.9667 24.8643 70.1108 22.683 68.4733 20.761C66.9664 18.9898 65.7772 17.5898 63.2862 17.5898C60.7935 17.5898 59.6026 18.9898 58.094 20.761C56.4565 22.683 54.6007 24.8643 50.8989 24.8643C47.1987 24.8643 45.3445 22.683 43.7053 20.761C42.2001 18.9898 41.0092 17.5898 38.5198 17.5898C36.0272 17.5898 34.8346 18.9898 33.3261 20.761C31.6886 22.683 29.831 24.8643 26.1293 24.8643C22.4241 24.8643 20.5666 22.6847 18.9275 20.7627C17.4173 18.9898 16.2247 17.5898 13.7304 17.5898C11.2344 17.5898 10.0435 18.9898 8.53332 20.761C6.89414 22.6847 5.03497 24.8643 1.33152 24.8643C0.595463 24.8643 -2.66714e-08 24.2542 -5.9566e-08 23.5016C-9.25348e-08 22.7474 0.595463 22.1372 1.33152 22.1372C3.82585 22.1372 5.01843 20.7372 6.52859 18.966C8.16777 17.0423 10.0253 14.8643 13.7304 14.8643C17.4338 14.8643 19.293 17.0423 20.9322 18.9677C22.4423 20.7372 23.6349 22.1372 26.1293 22.1372C28.6219 22.1372 29.8129 20.7372 31.3214 18.9677C32.9589 17.0423 34.8164 14.8643 38.5198 14.8643C42.22 14.8643 44.0742 17.044 45.7134 18.9677C47.2202 20.7389 48.4095 22.1372 50.8989 22.1372C53.3899 22.1372 54.5808 20.7389 56.0893 18.9677C57.7268 17.044 59.5844 14.8643 63.2862 14.8643C66.9863 14.8643 68.8438 17.044 70.4797 18.9677C71.9865 20.7389 73.1775 22.1372 75.6685 22.1372C76.4029 22.1372 77 22.7474 77 23.5016C77 24.2542 76.4029 24.8643 75.6685 24.8643Z" fill="#F64B4B"/>
</svg>
