<svg width="89" height="103" viewBox="0 0 89 103" fill="none" xmlns="http://www.w3.org/2000/svg">
<path d="M59.4343 86H46.1863V75.248H16.1383V63.056L37.9303 16.88H52.9063L31.1143 63.056H46.1863V45.776H59.4343V63.056H65.5783V75.248H59.4343V86Z" fill="#473BF0"/>
<mask id="path-2-outside-1_86_594" maskUnits="userSpaceOnUse" x="22" y="20" width="52" height="72" fill="black">
<rect fill="white" x="22" y="20" width="52" height="72"/>
<path d="M66.4343 91H53.1863V80.248H23.1383V68.056L44.9303 21.88H59.9063L38.1143 68.056H53.1863V50.776H66.4343V68.056H72.5783V80.248H66.4343V91Z"/>
</mask>
<path d="M66.4343 91V92H67.4343V91H66.4343ZM53.1863 91H52.1863V92H53.1863V91ZM53.1863 80.248H54.1863V79.248H53.1863V80.248ZM23.1383 80.248H22.1383V81.248H23.1383V80.248ZM23.1383 68.056L22.234 67.6292L22.1383 67.8319V68.056H23.1383ZM44.9303 21.88V20.88H44.2965L44.026 21.4532L44.9303 21.88ZM59.9063 21.88L60.8107 22.3068L61.484 20.88H59.9063V21.88ZM38.1143 68.056L37.21 67.6292L36.5366 69.056H38.1143V68.056ZM53.1863 68.056V69.056H54.1863V68.056H53.1863ZM53.1863 50.776V49.776H52.1863V50.776H53.1863ZM66.4343 50.776H67.4343V49.776H66.4343V50.776ZM66.4343 68.056H65.4343V69.056H66.4343V68.056ZM72.5783 68.056H73.5783V67.056H72.5783V68.056ZM72.5783 80.248V81.248H73.5783V80.248H72.5783ZM66.4343 80.248V79.248H65.4343V80.248H66.4343ZM66.4343 90H53.1863V92H66.4343V90ZM54.1863 91V80.248H52.1863V91H54.1863ZM53.1863 79.248H23.1383V81.248H53.1863V79.248ZM24.1383 80.248V68.056H22.1383V80.248H24.1383ZM24.0427 68.4828L45.8347 22.3068L44.026 21.4532L22.234 67.6292L24.0427 68.4828ZM44.9303 22.88H59.9063V20.88H44.9303V22.88ZM59.002 21.4532L37.21 67.6292L39.0187 68.4828L60.8107 22.3068L59.002 21.4532ZM38.1143 69.056H53.1863V67.056H38.1143V69.056ZM54.1863 68.056V50.776H52.1863V68.056H54.1863ZM53.1863 51.776H66.4343V49.776H53.1863V51.776ZM65.4343 50.776V68.056H67.4343V50.776H65.4343ZM66.4343 69.056H72.5783V67.056H66.4343V69.056ZM71.5783 68.056V80.248H73.5783V68.056H71.5783ZM72.5783 79.248H66.4343V81.248H72.5783V79.248ZM65.4343 80.248V91H67.4343V80.248H65.4343Z" fill="#473BF0" mask="url(#path-2-outside-1_86_594)"/>
</svg>
