<svg width="67" height="103" viewBox="0 0 67 103" fill="none" xmlns="http://www.w3.org/2000/svg">
<path d="M40.2381 86H26.8941V31.088L13.9341 39.056V24.656L26.8941 16.88H40.2381V86Z" fill="#473BF0"/>
<mask id="path-2-outside-1_86_570" maskUnits="userSpaceOnUse" x="19" y="20" width="30" height="72" fill="black">
<rect fill="white" x="19" y="20" width="30" height="72"/>
<path d="M47.2381 91H33.8941V36.088L20.9341 44.056V29.656L33.8941 21.88H47.2381V91Z"/>
</mask>
<path d="M47.2381 91V92H48.2381V91H47.2381ZM33.8941 91H32.8941V92H33.8941V91ZM33.8941 36.088H34.8941V34.2993L33.3704 35.2361L33.8941 36.088ZM20.9341 44.056H19.9341V45.8447L21.4579 44.9079L20.9341 44.056ZM20.9341 29.656L20.4196 28.7985L19.9341 29.0898V29.656H20.9341ZM33.8941 21.88V20.88H33.6172L33.3796 21.0225L33.8941 21.88ZM47.2381 21.88H48.2381V20.88H47.2381V21.88ZM47.2381 90H33.8941V92H47.2381V90ZM34.8941 91V36.088H32.8941V91H34.8941ZM33.3704 35.2361L20.4104 43.2041L21.4579 44.9079L34.4179 36.9399L33.3704 35.2361ZM21.9341 44.056V29.656H19.9341V44.056H21.9341ZM21.4486 30.5135L34.4086 22.7375L33.3796 21.0225L20.4196 28.7985L21.4486 30.5135ZM33.8941 22.88H47.2381V20.88H33.8941V22.88ZM46.2381 21.88V91H48.2381V21.88H46.2381Z" fill="#473BF0" mask="url(#path-2-outside-1_86_570)"/>
</svg>
