<svg width="87" height="103" viewBox="0 0 87 103" fill="none" xmlns="http://www.w3.org/2000/svg">
<path d="M35.5945 73.616H63.7225V85.904H15.3385V74.576L44.3305 48.848C48.2985 45.328 50.2825 41.936 50.2825 38.672C50.2825 36.56 49.8505 34.688 48.9865 33.056C48.1225 31.392 46.8905 30.096 45.2905 29.168C43.7225 28.208 41.8985 27.728 39.8185 27.728C37.6745 27.728 35.7385 28.224 34.0105 29.216C32.3145 30.208 31.0025 31.536 30.0745 33.2C29.1465 34.864 28.7145 36.656 28.7785 38.576H15.3385C15.3385 33.904 16.3625 29.824 18.4105 26.336C20.4905 22.848 23.4025 20.16 27.1465 18.272C30.8905 16.384 35.2105 15.44 40.1065 15.44C44.5865 15.44 48.6185 16.432 52.2025 18.416C55.7865 20.368 58.6025 23.12 60.6505 26.672C62.6985 30.224 63.7225 34.288 63.7225 38.864C63.7225 42.16 63.2585 44.928 62.3305 47.168C61.4345 49.376 60.1865 51.344 58.5865 53.072C56.9865 54.768 54.4745 57.104 51.0505 60.08L35.5945 73.616Z" fill="#473BF0"/>
<mask id="path-2-outside-1_86_578" maskUnits="userSpaceOnUse" x="21" y="19" width="51" height="73" fill="black">
<rect fill="white" x="21" y="19" width="51" height="73"/>
<path d="M22.3385 90.904V79.576L51.3305 53.848C53.5065 51.928 55.0425 50.12 55.9385 48.424C56.8345 46.728 57.2825 45.144 57.2825 43.672C57.2825 41.56 56.8505 39.688 55.9865 38.056C55.1225 36.392 53.9065 35.096 52.3385 34.168C50.7705 33.208 48.9305 32.728 46.8185 32.728C44.6105 32.728 42.6585 33.24 40.9625 34.264C39.2985 35.256 38.0025 36.584 37.0745 38.248C36.1465 39.88 35.7145 41.656 35.7785 43.576H22.3385C22.3385 38.84 23.3785 34.744 25.4585 31.288C27.5385 27.832 30.4345 25.16 34.1465 23.272C37.8585 21.384 42.1785 20.44 47.1065 20.44C51.6185 20.44 55.6505 21.432 59.2025 23.416C62.7865 25.368 65.6025 28.104 67.6505 31.624C69.6985 35.144 70.7225 39.224 70.7225 43.864C70.7225 47.288 70.2425 50.136 69.2825 52.408C68.3225 54.648 66.8985 56.728 65.0105 58.648C63.1225 60.536 60.8025 62.68 58.0505 65.08L39.3305 81.496L38.2745 78.616H70.7225V90.904H22.3385Z"/>
</mask>
<path d="M42.5945 78.616L41.9357 77.8637L39.9348 79.616H42.5945V78.616ZM70.7225 78.616H71.7225V77.616H70.7225V78.616ZM70.7225 90.904V91.904H71.7225V90.904H70.7225ZM22.3385 90.904H21.3385V91.904H22.3385V90.904ZM22.3385 79.576L21.6747 78.828L21.3385 79.1264V79.576H22.3385ZM51.3305 53.848L50.6669 53.0999L50.6668 53.1L51.3305 53.848ZM55.9865 38.056L55.099 38.5168L55.1027 38.5239L55.9865 38.056ZM52.2905 34.168L51.7683 35.0208L51.7785 35.0271L51.7888 35.033L52.2905 34.168ZM41.0105 34.216L40.5126 33.3487L40.5056 33.3528L41.0105 34.216ZM37.0745 38.2L37.9479 38.6871V38.6871L37.0745 38.2ZM35.7785 43.576V44.576H36.8124L36.7779 43.5427L35.7785 43.576ZM22.3385 43.576H21.3385V44.576H22.3385V43.576ZM25.4105 31.336L24.5516 30.8238L24.5482 30.8297L25.4105 31.336ZM34.1465 23.272L34.5968 24.1649V24.1649L34.1465 23.272ZM59.2025 23.416L58.7182 24.2909L58.7242 24.2942L59.2025 23.416ZM69.3305 52.168L68.4066 51.7852L68.4039 51.792L69.3305 52.168ZM65.5865 58.072L66.3139 58.7582L66.3203 58.7514L65.5865 58.072ZM58.0505 65.08L57.3945 64.3252L57.3917 64.3277L58.0505 65.08ZM42.5945 79.616H70.7225V77.616H42.5945V79.616ZM69.7225 78.616V90.904H71.7225V78.616H69.7225ZM70.7225 89.904H22.3385V91.904H70.7225V89.904ZM23.3385 90.904V79.576H21.3385V90.904H23.3385ZM23.0022 80.324L51.9942 54.596L50.6668 53.1L21.6747 78.828L23.0022 80.324ZM51.9941 54.5961C56.0458 51.0018 58.2825 47.3592 58.2825 43.672H56.2825C56.2825 46.5128 54.5512 49.6542 50.6669 53.0999L51.9941 54.5961ZM58.2825 43.672C58.2825 41.4205 57.8209 39.3838 56.8703 37.5881L55.1027 38.5239C55.8801 39.9922 56.2825 41.6995 56.2825 43.672H58.2825ZM56.874 37.5952C55.9237 35.765 54.559 34.3277 52.7922 33.303L51.7888 35.033C53.222 35.8643 54.3213 37.019 55.099 38.5168L56.874 37.5952ZM52.8127 33.3151C51.0676 32.2467 49.058 31.728 46.8185 31.728V33.728C48.739 33.728 50.3774 34.1692 51.7683 35.0208L52.8127 33.3151ZM46.8185 31.728C44.5135 31.728 42.4036 32.2632 40.5126 33.3487L41.5084 35.0832C43.0734 34.1848 44.8355 33.728 46.8185 33.728V31.728ZM40.5056 33.3528C38.6604 34.4321 37.219 35.8879 36.2011 37.7129L37.9479 38.6871C38.786 37.1841 39.9686 35.9839 41.5154 35.0792L40.5056 33.3528ZM36.2011 37.7129C35.1838 39.5371 34.7091 41.5092 34.7791 43.6093L36.7779 43.5427C36.7199 41.8028 37.1092 40.1909 37.9479 38.6871L36.2011 37.7129ZM35.7785 42.576H22.3385V44.576H35.7785V42.576ZM23.3385 43.576C23.3385 39.054 24.3282 35.1543 26.2728 31.8423L24.5482 30.8297C22.3968 34.4936 21.3385 38.754 21.3385 43.576H23.3385ZM26.2694 31.8482C28.2488 28.5288 31.0165 25.9703 34.5968 24.1649L33.6962 22.3791C29.7884 24.3497 26.7322 27.1672 24.5516 30.8238L26.2694 31.8482ZM34.5968 24.1649C38.1795 22.3582 42.3407 21.44 47.1065 21.44V19.44C42.0803 19.44 37.6015 20.4098 33.6962 22.3791L34.5968 24.1649ZM47.1065 21.44C51.4333 21.44 55.296 22.3965 58.7182 24.2909L59.6868 22.5411C55.941 20.4675 51.7397 19.44 47.1065 19.44V21.44ZM58.7242 24.2942C62.1457 26.1577 64.8277 28.7783 66.7842 32.1715L68.5168 31.1725C66.3773 27.4617 63.4273 24.5783 59.6808 22.5378L58.7242 24.2942ZM66.7842 32.1715C68.7348 35.5545 69.7225 39.4425 69.7225 43.864H71.7225C71.7225 39.1335 70.6622 34.8935 68.5168 31.1725L66.7842 32.1715ZM69.7225 43.864C69.7225 47.073 69.2698 49.7017 68.4066 51.7853L70.2544 52.5507C71.2472 50.1543 71.7225 47.247 71.7225 43.864H69.7225ZM68.4039 51.792C67.5528 53.8894 66.3697 55.7543 64.8527 57.3926L66.3203 58.7514C68.0033 56.9337 69.3162 54.8626 70.2571 52.544L68.4039 51.792ZM64.8591 57.3858C63.294 59.0448 60.8122 61.3547 57.3945 64.3252L58.7065 65.8348C62.1368 62.8533 64.679 60.4912 66.3139 58.7582L64.8591 57.3858ZM57.3917 64.3277L41.9357 77.8637L43.2533 79.3683L58.7093 65.8323L57.3917 64.3277Z" fill="#473BF0" mask="url(#path-2-outside-1_86_578)"/>
</svg>
