<svg width="85" height="103" viewBox="0 0 85 103" fill="none" xmlns="http://www.w3.org/2000/svg">
<path d="M46.1787 42.752C49.3787 43.68 52.1307 45.216 54.4347 47.36C56.7387 49.504 58.4827 52.032 59.6667 54.944C60.8507 57.856 61.4427 60.944 61.4427 64.208C61.4427 68.464 60.3387 72.352 58.1307 75.872C55.9547 79.392 53.0267 82.176 49.3467 84.224C45.6667 86.24 41.6667 87.248 37.3467 87.248C33.8907 87.248 30.5787 86.56 27.4107 85.184C24.2747 83.776 21.5387 81.792 19.2027 79.232C16.8987 76.672 15.2667 73.712 14.3067 70.352L26.9787 66.992C27.6187 69.456 28.8987 71.408 30.8187 72.848C32.7707 74.256 34.9467 74.96 37.3467 74.96C39.2987 74.96 41.1067 74.48 42.7707 73.52C44.4347 72.56 45.7467 71.264 46.7067 69.632C47.6987 67.968 48.1947 66.16 48.1947 64.208C48.1947 62.224 47.7307 60.416 46.8027 58.784C45.8747 57.12 44.5787 55.808 42.9147 54.848C41.2827 53.856 39.4267 53.36 37.3467 53.36C35.4907 53.36 33.6987 53.872 31.9707 54.896L26.1147 44.624L44.7387 29.168H16.9947V16.88H60.1947V29.168L46.1787 42.752Z" fill="#473BF0"/>
<mask id="path-2-outside-1_86_586" maskUnits="userSpaceOnUse" x="20" y="20" width="50" height="74" fill="black">
<rect fill="white" x="20" y="20" width="50" height="74"/>
<path d="M53.1787 47.752C56.3787 48.68 59.1307 50.216 61.4347 52.36C63.7387 54.504 65.4827 57.032 66.6667 59.944C67.8507 62.856 68.4427 65.944 68.4427 69.208C68.4427 73.464 67.3387 77.352 65.1307 80.872C62.9547 84.392 60.0267 87.176 56.3467 89.224C52.6667 91.24 48.6667 92.248 44.3467 92.248C40.8907 92.248 37.5787 91.56 34.4107 90.184C31.2747 88.776 28.5387 86.792 26.2027 84.232C23.8987 81.672 22.2667 78.712 21.3067 75.352L33.9787 71.992C34.6187 74.456 35.8987 76.408 37.8187 77.848C39.7707 79.256 41.9467 79.96 44.3467 79.96C46.2987 79.96 48.1067 79.48 49.7707 78.52C51.4347 77.56 52.7467 76.264 53.7067 74.632C54.6987 72.968 55.1947 71.16 55.1947 69.208C55.1947 67.224 54.7307 65.416 53.8027 63.784C52.8747 62.12 51.5787 60.808 49.9147 59.848C48.2827 58.856 46.4267 58.36 44.3467 58.36C42.4907 58.36 40.6987 58.872 38.9707 59.896L33.1147 49.624L51.7387 34.168H23.9947V21.88H67.1947V34.168L53.1787 47.752Z"/>
</mask>
<path d="M53.1787 47.752L52.4828 47.0339L51.2459 48.2327L52.9002 48.7124L53.1787 47.752ZM61.4347 52.36L62.1159 51.6279V51.6279L61.4347 52.36ZM66.6667 59.944L67.5931 59.5673L66.6667 59.944ZM65.1307 80.872L64.2836 80.3406L64.2801 80.3462L65.1307 80.872ZM56.3467 89.224L56.8272 90.101L56.833 90.0978L56.3467 89.224ZM34.4107 90.184L34.0011 91.0963L34.0123 91.1012L34.4107 90.184ZM26.2027 84.232L25.4594 84.901L25.464 84.9061L26.2027 84.232ZM21.3067 75.352L21.0504 74.3854L20.0652 74.6466L20.3452 75.6267L21.3067 75.352ZM33.9787 71.992L34.9466 71.7406L34.6939 70.7678L33.7224 71.0254L33.9787 71.992ZM37.8187 77.848L37.2187 78.648L37.2262 78.6536L37.2337 78.659L37.8187 77.848ZM49.7707 78.52L49.271 77.6538L49.7707 78.52ZM53.7067 74.632L52.8478 74.1199L52.8448 74.125L53.7067 74.632ZM53.8027 63.784L52.9293 64.2711L52.9334 64.2783L53.8027 63.784ZM49.9147 59.848L49.3953 60.7025L49.4051 60.7085L49.415 60.7142L49.9147 59.848ZM38.9707 59.896L38.102 60.3913L38.6056 61.2747L39.4805 60.7563L38.9707 59.896ZM33.1147 49.624L32.4761 48.8545L31.8304 49.3903L32.246 50.1193L33.1147 49.624ZM51.7387 34.168L52.3773 34.9375L54.5096 33.168H51.7387V34.168ZM23.9947 34.168H22.9947V35.168H23.9947V34.168ZM23.9947 21.88V20.88H22.9947V21.88H23.9947ZM67.1947 21.88H68.1947V20.88H67.1947V21.88ZM67.1947 34.168L67.8907 34.8861L68.1947 34.5914V34.168H67.1947ZM52.9002 48.7124C55.959 49.5995 58.5707 51.0609 60.7535 53.0921L62.1159 51.6279C59.6907 49.3711 56.7984 47.7605 53.4572 46.7916L52.9002 48.7124ZM60.7535 53.0921C62.951 55.137 64.6113 57.5437 65.7404 60.3206L67.5931 59.5673C66.3541 56.5203 64.5264 53.871 62.1159 51.6279L60.7535 53.0921ZM65.7404 60.3206C66.8739 63.1084 67.4427 66.0681 67.4427 69.208H69.4427C69.4427 65.8199 68.8276 62.6035 67.5931 59.5673L65.7404 60.3206ZM67.4427 69.208C67.4427 73.2808 66.3892 76.9839 64.2836 80.3406L65.9778 81.4034C68.2883 77.7201 69.4427 73.6472 69.4427 69.208H67.4427ZM64.2801 80.3462C62.1955 83.7183 59.394 86.3837 55.8604 88.3502L56.833 90.0978C60.6594 87.9683 63.7139 85.0657 65.9813 81.3978L64.2801 80.3462ZM55.8663 88.347C52.338 90.2798 48.5039 91.248 44.3467 91.248V93.248C48.8295 93.248 52.9954 92.2001 56.8272 90.101L55.8663 88.347ZM44.3467 91.248C41.0277 91.248 37.8513 90.5881 34.8091 89.2668L34.0123 91.1012C37.3061 92.5319 40.7537 93.248 44.3467 93.248V91.248ZM34.8203 89.2717C31.8102 87.9202 29.1859 86.0177 26.9414 83.558L25.464 84.9061C27.8915 87.5663 30.7392 89.6318 34.0011 91.0963L34.8203 89.2717ZM26.946 83.563C24.7453 81.1178 23.1871 78.2932 22.2682 75.0773L20.3452 75.6267C21.3464 79.1308 23.0521 82.2262 25.4594 84.901L26.946 83.563ZM21.563 76.3186L34.235 72.9586L33.7224 71.0254L21.0504 74.3854L21.563 76.3186ZM33.0108 72.2434C33.7041 74.9123 35.106 77.0635 37.2187 78.648L38.4187 77.048C36.6914 75.7525 35.5334 73.9996 34.9466 71.7406L33.0108 72.2434ZM37.2337 78.659C39.3555 80.1895 41.7361 80.96 44.3467 80.96V78.96C42.1574 78.96 40.1859 78.3225 38.4037 77.037L37.2337 78.659ZM44.3467 80.96C46.4712 80.96 48.4519 80.4353 50.2704 79.3862L49.271 77.6538C47.7615 78.5247 46.1263 78.96 44.3467 78.96V80.96ZM50.2704 79.3862C52.0819 78.3411 53.5197 76.9223 54.5686 75.139L52.8448 74.125C51.9738 75.6057 50.7875 76.7789 49.271 77.6538L50.2704 79.3862ZM54.5657 75.1441C55.6507 73.324 56.1947 71.3388 56.1947 69.208H54.1947C54.1947 70.9812 53.7467 72.612 52.8478 74.1199L54.5657 75.1441ZM56.1947 69.208C56.1947 67.0609 55.6906 65.081 54.672 63.2897L52.9334 64.2783C53.7708 65.751 54.1947 67.3871 54.1947 69.208H56.1947ZM54.6761 63.2969C53.6593 61.4737 52.2336 60.0313 50.4144 58.9818L49.415 60.7142C50.9239 61.5847 52.0901 62.7663 52.9294 64.2711L54.6761 63.2969ZM50.4341 58.9935C48.6318 57.8979 46.593 57.36 44.3467 57.36V59.36C46.2604 59.36 47.9337 59.8141 49.3953 60.7025L50.4341 58.9935ZM44.3467 57.36C42.2967 57.36 40.3301 57.928 38.4609 59.0357L39.4805 60.7563C41.0673 59.816 42.6848 59.36 44.3467 59.36V57.36ZM39.8395 59.4007L33.9835 49.1287L32.246 50.1193L38.102 60.3913L39.8395 59.4007ZM33.7533 50.3935L52.3773 34.9375L51.1001 33.3985L32.4761 48.8545L33.7533 50.3935ZM51.7387 33.168H23.9947V35.168H51.7387V33.168ZM24.9947 34.168V21.88H22.9947V34.168H24.9947ZM23.9947 22.88H67.1947V20.88H23.9947V22.88ZM66.1947 21.88V34.168H68.1947V21.88H66.1947ZM66.4988 33.4499L52.4828 47.0339L53.8747 48.4701L67.8907 34.8861L66.4988 33.4499Z" fill="#473BF0" mask="url(#path-2-outside-1_86_586)"/>
</svg>
