<svg width="48" height="49" viewBox="0 0 48 49" fill="none" xmlns="http://www.w3.org/2000/svg">
<g clip-path="url(#clip0_18_1062)">
<rect y="0.493652" width="48" height="48" rx="24" fill="#419FD9"/>
<path fill-rule="evenodd" clip-rule="evenodd" d="M29.3355 36.3777C31.013 37.1116 31.642 35.5739 31.642 35.5739L36.0804 13.277C36.0455 11.7742 34.0185 12.6829 34.0185 12.6829L9.17039 22.4334C9.17039 22.4334 7.98215 22.8528 8.087 23.5867C8.19184 24.3206 9.13544 24.6701 9.13544 24.6701L15.3912 26.767C15.3912 26.767 17.2784 32.9528 17.6628 34.141C18.0123 35.2943 18.3268 35.3293 18.3268 35.3293C18.6763 35.4691 18.9908 35.2244 18.9908 35.2244L23.0448 31.5549L29.3355 36.3777ZM30.4189 17.2261C30.4189 17.2261 31.2926 16.7019 31.2576 17.2261C31.2576 17.2261 31.3974 17.296 30.9431 17.7853C30.5237 18.2047 20.6334 27.0815 19.3054 28.2697C19.2005 28.3396 19.1306 28.4445 19.1306 28.5842L18.7462 31.8694C18.6763 32.2188 18.222 32.2538 18.1171 31.9393L16.4746 26.5573C16.4047 26.3476 16.4746 26.1029 16.6842 25.9631L30.4189 17.2261Z" fill="white"/>
</g>
<defs>
<clipPath id="clip0_18_1062">
<rect width="48" height="48" fill="white" transform="translate(0 0.493652)"/>
</clipPath>
</defs>
</svg>
