<svg width="48" height="49" viewBox="0 0 48 49" fill="none" xmlns="http://www.w3.org/2000/svg">
<g clip-path="url(#clip0_18_1053)">
<rect y="0.493652" width="48" height="48" rx="24" fill="#675DA9"/>
<path d="M35.7535 12.6782C34.9596 11.9483 31.7456 9.61147 24.5814 9.57946C24.5814 9.57946 16.1367 9.06728 12.02 12.8447C9.72798 15.1367 8.92129 18.4851 8.83806 22.6466C8.75483 26.8018 8.64599 34.5934 16.1559 36.7062H16.1623L16.1559 39.9266C16.1559 39.9266 16.1111 41.2326 16.969 41.4951C18.0062 41.8153 18.6208 40.8229 19.6132 39.7537C20.1574 39.1647 20.9065 38.3068 21.4763 37.6473C26.611 38.0763 30.5612 37.0903 31.0094 36.9431C32.0465 36.6037 37.9175 35.8547 38.8714 28.063C39.8574 20.0473 38.3913 14.9702 35.7535 12.6782ZM36.6242 27.4996C35.8175 34.0044 31.0606 34.4141 30.1835 34.6958C29.8121 34.8175 26.3421 35.6818 21.9757 35.3937C21.9757 35.3937 18.7233 39.3183 17.7117 40.3363C17.5516 40.4964 17.366 40.5604 17.2443 40.5284C17.0715 40.4836 17.0202 40.2787 17.0267 39.9778C17.0267 39.5424 17.0523 34.619 17.0523 34.619C17.0459 34.619 17.0459 34.619 17.0523 34.619C10.6947 32.8584 11.0661 26.2255 11.1365 22.7555C11.2069 19.2854 11.86 16.4364 13.7999 14.5221C17.2763 11.3721 24.4534 11.8395 24.4534 11.8395C30.51 11.8651 33.4102 13.6898 34.0825 14.298C36.3169 16.2187 37.4565 20.7964 36.6242 27.4996Z" fill="white"/>
<path d="M27.533 22.8771C27.3217 22.8771 27.1424 22.7107 27.1296 22.493C27.0592 21.1165 26.4126 20.4442 25.0937 20.3738C24.8696 20.361 24.6967 20.1689 24.7095 19.9449C24.7223 19.7208 24.9144 19.5479 25.1385 19.5607C26.8799 19.6568 27.8531 20.6555 27.9427 22.4482C27.9555 22.6723 27.7827 22.8643 27.5586 22.8707C27.5458 22.8771 27.5394 22.8771 27.533 22.8771Z" fill="white"/>
<path d="M29.6073 23.5689H29.6009C29.3768 23.5625 29.1976 23.3769 29.204 23.1528C29.236 21.7699 28.839 20.6495 27.9939 19.7275C27.1552 18.8056 25.9964 18.3062 24.4662 18.1974C24.2421 18.1782 24.0757 17.9861 24.0949 17.762C24.1141 17.5379 24.3062 17.3715 24.5303 17.3907C26.2589 17.5187 27.6226 18.1205 28.5957 19.1833C29.5753 20.2525 30.0491 21.5906 30.0171 23.172C30.0107 23.3961 29.825 23.5689 29.6073 23.5689Z" fill="white"/>
<path d="M31.7329 24.4007C31.5088 24.4007 31.3295 24.2214 31.3295 23.9973C31.3103 21.5196 30.5996 19.6309 29.1527 18.216C27.725 16.8203 25.9131 16.1096 23.7812 16.0904C23.5571 16.0904 23.3778 15.9048 23.3778 15.6807C23.3778 15.4566 23.5635 15.2773 23.7812 15.2773C26.1308 15.2966 28.1283 16.084 29.7097 17.6334C31.2975 19.1828 32.1106 21.3212 32.1362 23.9845C32.1426 24.215 31.9633 24.4007 31.7329 24.4007C31.7393 24.4007 31.7393 24.4007 31.7329 24.4007Z" fill="white"/>
<path d="M25.1897 27.8899C25.1897 27.8899 25.7595 27.9411 26.0668 27.5633L26.6622 26.8143C26.9503 26.4429 27.6482 26.206 28.3268 26.5838C28.7046 26.7951 29.3896 27.2176 29.8122 27.5313C30.2667 27.8642 31.1887 28.6325 31.1951 28.6389C31.6368 29.0103 31.7393 29.5545 31.4384 30.1371C31.4384 30.1371 31.4384 30.1435 31.4384 30.1499C31.131 30.6941 30.7149 31.2063 30.1963 31.68C30.1899 31.68 30.1899 31.6864 30.1835 31.6864C29.7545 32.045 29.332 32.2498 28.9222 32.2947C28.871 32.3075 28.8134 32.3075 28.7366 32.3075C28.5573 32.3075 28.378 32.2819 28.1988 32.2242L28.186 32.205C27.5457 32.0258 26.4829 31.5776 24.7159 30.598C23.5635 29.9642 22.6095 29.3176 21.7964 28.6709C21.3675 28.3316 20.9321 27.9539 20.484 27.5057C20.4711 27.4929 20.4519 27.4737 20.4391 27.4609C20.4263 27.4481 20.4071 27.4289 20.3943 27.4161C20.3815 27.4033 20.3623 27.3841 20.3495 27.3713C20.3367 27.3585 20.3175 27.3393 20.3047 27.3264C19.8629 26.8783 19.4788 26.4429 19.1395 26.014C18.4928 25.2073 17.8462 24.2469 17.2124 23.0945C16.2328 21.3211 15.7846 20.2583 15.6054 19.6244L15.5862 19.6116C15.5285 19.4324 15.5029 19.2531 15.5029 19.0738C15.5029 18.997 15.5029 18.9394 15.5157 18.8882C15.567 18.472 15.7718 18.0559 16.124 17.6269C16.124 17.6205 16.1304 17.6205 16.1304 17.6141C16.6041 17.0891 17.1163 16.6794 17.6605 16.372C17.6605 16.372 17.6669 16.372 17.6733 16.372C18.2495 16.0711 18.7937 16.1736 19.1715 16.6153C19.1715 16.6153 19.9462 17.5437 20.2791 17.9982C20.5928 18.4272 21.0153 19.1058 21.2266 19.4836C21.6044 20.1622 21.3675 20.8601 20.9961 21.1482L20.2471 21.7436C19.8693 22.0509 19.9205 22.6207 19.9205 22.6207C19.9205 22.6207 21.0282 26.8335 25.1897 27.8899Z" fill="white"/>
</g>
<defs>
<clipPath id="clip0_18_1053">
<rect width="48" height="48" fill="white" transform="translate(0 0.493652)"/>
</clipPath>
</defs>
</svg>
