<svg width="48" height="49" viewBox="0 0 48 49" fill="none" xmlns="http://www.w3.org/2000/svg">
<g clip-path="url(#clip0_18_1049)">
<rect y="0.493652" width="48" height="48" rx="24" fill="#0DC143"/>
<path d="M34.7507 13.7051C32.1777 11.0565 28.621 9.61865 24.9885 9.61865C17.2696 9.61865 11.0642 15.8997 11.1399 23.543C11.1399 25.9646 11.821 28.3105 12.9561 30.4295L10.9885 37.6187L18.3291 35.7268C20.3723 36.8619 22.6426 37.3916 24.9128 37.3916C32.5561 37.3916 38.7615 31.1105 38.7615 23.4673C38.7615 19.7592 37.3237 16.2781 34.7507 13.7051ZM24.9885 35.0457C22.9453 35.0457 20.902 34.516 19.1615 33.4565L18.7074 33.2295L14.3183 34.3646L15.4534 30.0511L15.1507 29.597C11.821 24.2241 13.4101 17.1105 18.8588 13.7808C24.3074 10.4511 31.3453 12.0403 34.675 17.4889C38.0047 22.9376 36.4156 29.9754 30.9669 33.3051C29.2264 34.4403 27.1074 35.0457 24.9885 35.0457ZM31.648 26.6457L30.8156 26.2673C30.8156 26.2673 29.6047 25.7376 28.848 25.3592C28.7723 25.3592 28.6966 25.2835 28.621 25.2835C28.3939 25.2835 28.2426 25.3592 28.0912 25.4349C28.0912 25.4349 28.0156 25.5105 26.9561 26.7214C26.8804 26.8727 26.7291 26.9484 26.5777 26.9484H26.502C26.4264 26.9484 26.275 26.8727 26.1993 26.797L25.821 26.6457C24.9885 26.2673 24.2318 25.8132 23.6264 25.2078C23.475 25.0565 23.248 24.9051 23.0966 24.7538C22.5669 24.2241 22.0372 23.6187 21.6588 22.9376L21.5831 22.7862C21.5074 22.7105 21.5074 22.6349 21.4318 22.4835C21.4318 22.3322 21.4318 22.1808 21.5074 22.1051C21.5074 22.1051 21.8101 21.7268 22.0372 21.4997C22.1885 21.3484 22.2642 21.1214 22.4156 20.97C22.5669 20.743 22.6426 20.4403 22.5669 20.2132C22.4912 19.8349 21.5831 17.7916 21.3561 17.3376C21.2047 17.1105 21.0534 17.0349 20.8264 16.9592H20.5993C20.448 16.9592 20.221 16.9592 19.9939 16.9592C19.8426 16.9592 19.6912 17.0349 19.5399 17.0349L19.4642 17.1105C19.3128 17.1862 19.1615 17.3376 19.0101 17.4132C18.8588 17.5646 18.7831 17.716 18.6318 17.8673C18.102 18.5484 17.7993 19.3808 17.7993 20.2132C17.7993 20.8187 17.9507 21.4241 18.1777 21.9538L18.2534 22.1808C18.9345 23.6187 19.8426 24.9051 21.0534 26.0403L21.3561 26.343C21.5831 26.57 21.8101 26.7214 21.9615 26.9484C23.5507 28.3105 25.3669 29.2943 27.4101 29.8241C27.6372 29.8997 27.9399 29.8997 28.1669 29.9754C28.3939 29.9754 28.6966 29.9754 28.9237 29.9754C29.302 29.9754 29.7561 29.8241 30.0588 29.6727C30.2858 29.5214 30.4372 29.5214 30.5885 29.37L30.7399 29.2187C30.8912 29.0673 31.0426 28.9916 31.1939 28.8403C31.3453 28.6889 31.4966 28.5376 31.5723 28.3862C31.7237 28.0835 31.7993 27.7051 31.875 27.3268C31.875 27.1754 31.875 26.9484 31.875 26.797C31.875 26.797 31.7993 26.7214 31.648 26.6457Z" fill="white"/>
</g>
<defs>
<clipPath id="clip0_18_1049">
<rect width="48" height="48" fill="white" transform="translate(0 0.493652)"/>
</clipPath>
</defs>
</svg>
