<svg width="26" height="26" viewBox="0 0 26 26" fill="none" xmlns="http://www.w3.org/2000/svg">
<path d="M23.8956 7.52385C23.7662 7.04288 23.5126 6.60435 23.1604 6.25215C22.8082 5.89995 22.3697 5.64643 21.8888 5.51697C20.1175 5.0376 13 5.0376 13 5.0376C13 5.0376 5.8825 5.0376 4.11125 5.51697C3.63028 5.64643 3.19175 5.89995 2.83955 6.25215C2.48735 6.60435 2.23384 7.04288 2.10438 7.52385C1.77364 9.33025 1.61315 11.1637 1.625 13.0001C1.61315 14.8365 1.77364 16.6699 2.10438 18.4763C2.23384 18.9573 2.48735 19.3958 2.83955 19.748C3.19175 20.1002 3.63028 20.3538 4.11125 20.4832C5.8825 20.9626 13 20.9626 13 20.9626C13 20.9626 20.1175 20.9626 21.8888 20.4832C22.3697 20.3538 22.8082 20.1002 23.1604 19.748C23.5126 19.3958 23.7662 18.9573 23.8956 18.4763C24.2264 16.6699 24.3869 14.8365 24.375 13.0001C24.3869 11.1637 24.2264 9.33025 23.8956 7.52385ZM10.725 16.4126V9.5876L16.6319 13.0001L10.725 16.4126Z" fill="white"/>
</svg>
