<svg width="151" height="141" viewBox="0 0 151 141" fill="none" xmlns="http://www.w3.org/2000/svg">
<g clip-path="url(#clip0_5_68)">
<path d="M0.697506 100.113C0.70814 100.168 0.724909 100.222 0.747498 100.273C0.757497 100.303 0.767496 100.343 0.777494 100.373L12.1858 120.13L12.2158 120.16C12.2358 120.19 12.2558 120.22 12.2858 120.26C12.3244 120.302 12.3681 120.339 12.4158 120.37C12.4458 120.39 12.4658 120.42 12.4958 120.44C12.5075 120.448 12.5217 120.452 12.5358 120.45C12.649 120.514 12.776 120.548 12.9057 120.55H58.0391L69.2075 139.887L69.2374 139.917C69.2574 139.947 69.2774 139.977 69.3074 140.017C69.346 140.059 69.3897 140.096 69.4374 140.127C69.4674 140.147 69.4874 140.177 69.5174 140.197C69.5291 140.205 69.5433 140.209 69.5574 140.207C69.6706 140.271 69.7977 140.305 69.9273 140.307H138.367C138.5 140.305 138.63 140.271 138.747 140.207L138.837 140.147C138.922 140.091 138.997 140.02 139.057 139.937C139.067 139.917 139.097 139.907 139.107 139.887L150.516 120.13C150.526 120.11 150.525 120.1 150.536 120.08C150.553 120.049 150.567 120.015 150.576 119.98C150.586 119.94 150.596 119.91 150.605 119.87C150.614 119.834 150.617 119.797 150.615 119.76C150.615 119.74 150.626 119.73 150.626 119.71C150.626 119.69 150.615 119.68 150.615 119.66C150.615 119.62 150.605 119.59 150.605 119.55C150.605 119.51 150.586 119.48 150.576 119.44C150.564 119.406 150.551 119.373 150.536 119.34C150.525 119.32 150.526 119.31 150.516 119.29L127.949 80.2062L139.107 60.869C139.117 60.849 139.117 60.839 139.127 60.819C139.145 60.7875 139.158 60.7539 139.167 60.719C139.177 60.679 139.187 60.649 139.197 60.609C139.205 60.573 139.209 60.536 139.207 60.499C139.207 60.479 139.217 60.469 139.217 60.449C139.217 60.4291 139.207 60.4191 139.207 60.3991C139.207 60.3591 139.197 60.3291 139.197 60.2891C139.197 60.2491 139.177 60.2191 139.167 60.1791C139.156 60.1451 139.142 60.1117 139.127 60.0791C139.117 60.0591 139.117 60.0491 139.107 60.0291L104.902 0.747808C104.882 0.717812 104.852 0.697815 104.832 0.66782C104.798 0.622445 104.761 0.579048 104.722 0.537839C104.681 0.504506 104.638 0.474419 104.592 0.447852C104.549 0.418617 104.502 0.395094 104.452 0.377862C104.394 0.358733 104.333 0.345338 104.272 0.337868C104.242 0.337868 104.212 0.317871 104.172 0.317871H81.3557C81.3357 0.317871 81.3257 0.32787 81.3057 0.32787C81.2657 0.32787 81.2357 0.337868 81.1957 0.337868L81.0757 0.367864C81.0457 0.377862 81.0057 0.397859 80.9757 0.407858C80.9457 0.417856 80.9457 0.417856 80.9257 0.427855C80.9143 0.440205 80.9008 0.450371 80.8857 0.457851C80.8534 0.478 80.8232 0.501456 80.7958 0.52784C80.7666 0.551924 80.7398 0.578706 80.7158 0.607829C80.6958 0.637824 80.6658 0.66782 80.6458 0.697815C80.6334 0.709209 80.6233 0.722763 80.6158 0.737809L58.0491 39.8321H35.7324C35.7124 39.8321 35.7024 39.8421 35.6824 39.8421C35.6424 39.8421 35.6124 39.8521 35.5724 39.8521C35.5324 39.8521 35.4924 39.8721 35.4624 39.8821C35.4284 39.8937 35.395 39.907 35.3624 39.9221C35.3424 39.9321 35.3324 39.9321 35.3124 39.9421C35.2924 39.9521 35.2924 39.9621 35.2724 39.9721C35.2401 39.9922 35.2099 40.0157 35.1824 40.042C35.1533 40.0661 35.1265 40.0929 35.1025 40.122C35.0825 40.152 35.0525 40.182 35.0325 40.212C35.0201 40.2234 35.01 40.237 35.0025 40.252L0.787493 99.5333C0.772953 99.5651 0.76286 99.5988 0.757497 99.6333C0.736308 99.6851 0.719583 99.7386 0.707504 99.7933C0.691633 99.845 0.684867 99.8992 0.687507 99.9533C0.685852 100.007 0.689199 100.06 0.697506 100.113ZM103.682 2.01762L136.928 59.5992H116.071L82.8155 2.01762H103.682ZM115.091 99.1134H94.2238L116.061 61.2789H136.928L115.091 99.1134ZM81.3557 2.8575L114.601 60.439L92.764 98.2735L82.3355 80.1962L93.5039 60.859C93.5139 60.839 93.5139 60.829 93.5239 60.809C93.5415 60.7775 93.5549 60.7439 93.5639 60.709C93.5739 60.669 93.5839 60.639 93.5939 60.599C93.6021 60.563 93.6055 60.526 93.6039 60.489C93.6039 60.469 93.6139 60.459 93.6139 60.439C93.6139 60.4191 93.6039 60.4091 93.6039 60.3891C93.6039 60.3491 93.5939 60.3191 93.5939 60.2791C93.5939 60.2391 93.5739 60.2091 93.5639 60.1691C93.5523 60.1351 93.5389 60.1017 93.5239 60.0691C93.5139 60.0491 93.5139 60.0391 93.5039 60.0191L82.0856 40.262C82.0656 40.232 82.0356 40.212 82.0156 40.182C81.9814 40.1366 81.9447 40.0933 81.9056 40.052C81.8647 40.0187 81.8212 39.9886 81.7756 39.9621C81.731 39.9348 81.6842 39.9113 81.6356 39.8921C81.5811 39.8724 81.5236 39.8623 81.4657 39.8621C81.4357 39.8621 81.3957 39.8421 81.3657 39.8421H60.0088L81.3557 2.8575ZM58.549 41.5318H80.8757L91.3142 59.5992H47.6306L37.1921 41.5318H58.549ZM35.7324 42.3717L46.1608 60.439L12.9157 118.021L2.48724 99.9533L35.7324 42.3717ZM14.3855 118.86L47.6306 61.2789H91.3142L80.8757 79.3563H58.549C58.529 79.3563 58.519 79.3663 58.499 79.3663C58.459 79.3663 58.429 79.3763 58.389 79.3763L58.2691 79.4063C58.2391 79.4163 58.1991 79.4363 58.1691 79.4463C58.1391 79.4563 58.1391 79.4563 58.1191 79.4663C58.1077 79.4786 58.0941 79.4888 58.0791 79.4963C58.0467 79.5164 58.0166 79.5399 57.9891 79.5662C57.96 79.5903 57.9332 79.6171 57.9091 79.6462C57.8891 79.6762 57.8591 79.7062 57.8391 79.7362C57.8291 79.7462 57.8091 79.7562 57.8091 79.7762L46.4008 99.5333C46.3863 99.5651 46.3762 99.5988 46.3708 99.6333C46.3496 99.6851 46.3329 99.7386 46.3208 99.7933C46.3122 99.8461 46.3088 99.8997 46.3108 99.9533C46.3092 100.007 46.3125 100.06 46.3208 100.113C46.3314 100.168 46.3482 100.222 46.3708 100.273C46.3808 100.303 46.3908 100.343 46.4008 100.373L57.0792 118.86H14.3855ZM137.907 138.618H71.4171L81.8456 120.55H148.336L137.907 138.618ZM69.9573 137.778L48.1205 99.9533L58.559 81.8759L80.3958 119.7L69.9573 137.778ZM148.336 118.86H81.8456L60.0088 81.036H80.8757L92.0441 100.373L92.0741 100.403C92.094 100.439 92.1175 100.472 92.1441 100.503C92.1827 100.545 92.2264 100.582 92.2741 100.613C92.3041 100.633 92.3241 100.663 92.3541 100.683C92.3658 100.691 92.38 100.695 92.3941 100.693C92.5072 100.756 92.6343 100.791 92.764 100.793H115.581C115.713 100.791 115.844 100.757 115.961 100.693L116.051 100.633C116.135 100.576 116.21 100.505 116.271 100.423C116.281 100.403 116.311 100.393 116.321 100.373L126.999 81.8759L148.336 118.86Z" fill="white"/>
</g>
<defs>
<clipPath id="clip0_5_68">
<rect width="149.938" height="140" fill="white" transform="translate(0.6875 0.3125)"/>
</clipPath>
</defs>
</svg>
