<svg width="140" height="123" viewBox="0 0 140 123" fill="none" xmlns="http://www.w3.org/2000/svg">
<g clip-path="url(#clip0_5_77)">
<path d="M0.0200282 108.783C0.032167 108.834 0.0488838 108.885 0.0700013 108.933C0.0754434 108.964 0.0855517 108.995 0.0999913 109.023L7.37785 121.64L7.40784 121.67C7.42798 121.703 7.45144 121.733 7.47782 121.76C7.51781 121.8 7.55779 121.83 7.59778 121.87C7.62777 121.89 7.63778 121.92 7.66777 121.93C7.6795 121.938 7.69364 121.942 7.70774 121.94C7.81628 121.996 7.93579 122.027 8.05764 122.03H131.891C132.013 122.027 132.132 121.996 132.241 121.94C132.271 121.92 132.291 121.9 132.321 121.88C132.402 121.83 132.47 121.761 132.521 121.68C132.531 121.66 132.551 121.65 132.571 121.63L139.859 109.013C139.869 109.003 139.869 108.983 139.879 108.973C139.898 108.942 139.912 108.908 139.919 108.873C139.929 108.843 139.939 108.803 139.949 108.773C139.957 108.74 139.96 108.707 139.959 108.673C139.959 108.653 139.969 108.643 139.969 108.623C139.969 108.603 139.959 108.593 139.959 108.573C139.959 108.553 139.949 108.503 139.949 108.473C139.949 108.443 139.929 108.403 139.919 108.373C139.908 108.339 139.895 108.305 139.879 108.273C139.869 108.263 139.869 108.243 139.859 108.233L77.9471 0.984404C77.9296 0.959016 77.9095 0.935556 77.8871 0.914418C77.8558 0.869824 77.8188 0.829494 77.7771 0.794442C77.6987 0.736715 77.615 0.686503 77.5272 0.644472C77.4751 0.62876 77.4215 0.618705 77.3672 0.614478C77.3372 0.614478 77.3072 0.594482 77.2673 0.594482H62.7015C62.6815 0.594482 62.6716 0.60448 62.6516 0.60448C62.6316 0.60448 62.5816 0.614478 62.5516 0.614478L62.4416 0.644472C62.4073 0.655177 62.3739 0.668548 62.3417 0.684464C62.3299 0.692416 62.3158 0.695958 62.3017 0.694462C62.2903 0.706812 62.2767 0.716976 62.2617 0.724456C62.2333 0.742 62.2065 0.762078 62.1817 0.784444C62.1526 0.808527 62.1258 0.835307 62.1017 0.864428C62.0817 0.894422 62.0617 0.914418 62.0417 0.944412C62.0294 0.955805 62.0192 0.969358 62.0117 0.984404L0.0899844 108.243C0.0755449 108.271 0.0654365 108.302 0.0599945 108.333C0.0388618 108.381 0.0221446 108.432 0.0100214 108.483C0.00171515 108.533 -0.00164352 108.583 1.46138e-05 108.633C0.0100117 108.683 0.0100312 108.733 0.0200282 108.783ZM76.8174 2.16417L137.829 107.843H31.2808L37.6589 96.8053H117.345C117.469 96.8043 117.59 96.7698 117.695 96.7054C117.705 96.6954 117.725 96.7053 117.735 96.6953C117.761 96.6779 117.784 96.6578 117.805 96.6354C117.848 96.6015 117.888 96.5647 117.925 96.5254C117.955 96.4878 117.982 96.4476 118.005 96.4054C118.035 96.3674 118.056 96.3228 118.065 96.2754C118.086 96.2246 118.096 96.1702 118.095 96.1155C118.095 96.0855 118.115 96.0555 118.115 96.0155C118.115 95.9955 118.105 95.9855 118.105 95.9655C118.1 95.9147 118.09 95.8644 118.075 95.8155C118.063 95.7641 118.046 95.7139 118.025 95.6656C118.015 95.6555 118.015 95.6356 118.005 95.6256L64.0511 2.16417H76.8174ZM131.451 120.461H9.42723L62.7015 28.179L69.0797 39.2168L29.2314 108.233C29.2234 108.245 29.2199 108.259 29.2214 108.273C29.2003 108.321 29.1835 108.372 29.1714 108.423C29.1566 108.472 29.1466 108.522 29.1414 108.573C29.1414 108.593 29.1314 108.603 29.1314 108.623C29.1314 108.643 29.1514 108.683 29.1514 108.723C29.1566 108.777 29.1666 108.831 29.1814 108.883C29.2014 108.933 29.2214 108.973 29.2414 109.013C29.2657 109.054 29.2924 109.094 29.3214 109.133C29.3614 109.173 29.4014 109.203 29.4414 109.243C29.4713 109.263 29.4813 109.293 29.5113 109.303C29.5213 109.313 29.5413 109.303 29.5513 109.313C29.6592 109.372 29.7786 109.406 29.9012 109.413H137.809L131.451 120.461ZM101.41 95.2356H38.5587L69.9894 40.7965L101.41 95.2356ZM62.7015 2.95401L115.976 95.2356H103.23L63.3913 26.2194C63.379 26.208 63.3688 26.1944 63.3614 26.1794C63.3314 26.1394 63.2914 26.0994 63.2614 26.0594C63.2261 26.0208 63.1857 25.9872 63.1414 25.9594C63.13 25.9471 63.1165 25.9369 63.1014 25.9294C63.0731 25.915 63.0428 25.9049 63.0114 25.8994C62.9631 25.8783 62.9129 25.8616 62.8615 25.8495C62.762 25.8361 62.6611 25.8361 62.5616 25.8495C62.5102 25.8616 62.46 25.8783 62.4116 25.8994C62.3803 25.9049 62.35 25.915 62.3216 25.9294C62.3103 25.9418 62.2967 25.952 62.2817 25.9594C62.2417 25.9894 62.2017 26.0294 62.1617 26.0594C62.1204 26.092 62.0864 26.1329 62.0617 26.1794C62.0494 26.1908 62.0392 26.2043 62.0318 26.2194L8.07765 119.681L1.69953 108.643L62.7015 2.95401Z" fill="white"/>
</g>
<defs>
<clipPath id="clip0_5_77">
<rect width="139.969" height="121.438" fill="white" transform="translate(0 0.59375)"/>
</clipPath>
</defs>
</svg>
