<svg width="88" height="88" viewBox="0 0 88 88" fill="none" xmlns="http://www.w3.org/2000/svg">
<path d="M79.5925 50.8985C79.5925 50.4914 79.9213 50.1626 80.3284 50.1626H83.7965C83.9217 49.4267 84 49.1214 84 48.73C84 47.4853 83.3111 46.264 82.3012 45.7004C82.9118 44.9253 83.2798 43.7824 83.2798 42.7177V42.3497C83.2798 39.8133 81.213 38.4198 78.6844 38.4198H74.457C70.6993 35.4841 61.3755 32.1022 61.3755 32.1022L36.1754 31.8125L26.2644 37.9657L9.58959 40.7997C9.58959 40.7997 9.57393 40.784 9.5661 40.784L9.26079 40.8232L9.2921 40.8467C7.92993 41.2537 6.93571 42.4985 6.93571 43.9937C6.93571 44.3852 7.01399 44.7609 7.13925 45.1132C5.39348 45.1993 4 46.9608 4 48.73C4 49.1214 4.07829 49.4267 4.20354 50.1548H7.67159C8.07868 50.1548 8.40748 50.4836 8.40748 50.8907C8.40748 51.2978 8.07868 51.6266 7.67159 51.6266H5.25257C5.81622 51.6266 6.52079 52.3625 7.30365 52.3625H16.3613C16.283 51.6266 16.236 51.1882 16.236 50.7498C16.236 47.0703 19.2187 43.9154 22.906 43.9154C26.5932 43.9154 29.5681 47.1486 29.5681 50.8281C29.5681 51.2665 29.5211 51.6266 29.4428 52.3546H57.4612C57.3829 51.6187 57.3359 51.1803 57.3359 50.7419C57.3359 47.0625 60.3186 43.9076 64.0059 43.9076C67.6931 43.9076 70.668 47.1408 70.668 50.8202C70.668 51.2586 70.621 51.6187 70.5427 52.3468H80.6964C81.4792 52.3468 82.1838 51.6109 82.7474 51.6109H80.3284C79.9213 51.6109 79.5925 51.2821 79.5925 50.875V50.8985ZM80.3362 42.1697L82.857 42.2167C82.951 44.6513 82.1681 45.4264 82.1681 45.4264L80.3362 45.3481V42.1697ZM9.44085 45.763H7.42108C6.56777 42.0914 9.50347 41.8487 9.50347 41.8487L9.44085 45.763ZM28.887 37.9501C28.887 37.9501 35.2751 32.4779 39.1894 32.5954L46.6186 32.564L46.556 38.0049L28.8791 37.9423L28.887 37.9501ZM55.7389 51.6344H30.7893C30.5858 51.6344 30.4214 51.4309 30.4214 51.2665C30.4214 51.1021 30.5858 50.8985 30.7893 50.8985H55.7389C55.9425 50.8985 56.1069 51.1021 56.1069 51.2665C56.1069 51.4309 55.9425 51.6344 55.7389 51.6344ZM47.9104 38.138L47.8477 32.6971L57.6334 32.7598C61.1798 33.0024 62.7063 38.2006 62.7063 38.2006L47.9025 38.138H47.9104ZM64.3034 38.2006C64.3034 38.2006 63.1995 34.7717 60.2638 32.8224C60.2638 32.8224 67.4191 34.1063 72.7425 38.2632L64.3034 38.2006Z" fill="white"/>
<path d="M22.7181 44.6826C19.5475 44.6826 16.9719 47.2582 16.9719 50.4288C16.9719 53.5993 19.5475 56.1749 22.7181 56.1749C25.8886 56.1749 28.4642 53.5993 28.4642 50.4288C28.4642 47.2582 25.8886 44.6826 22.7181 44.6826ZM22.7181 52.6364C21.5047 52.6364 20.5183 51.65 20.5183 50.4366C20.5183 49.2232 21.5047 48.2368 22.7181 48.2368C23.9315 48.2368 24.9179 49.2232 24.9179 50.4366C24.9179 51.65 23.9315 52.6364 22.7181 52.6364Z" fill="white"/>
<path d="M63.8102 44.6826C60.6396 44.6826 58.064 47.2582 58.064 50.4288C58.064 53.5993 60.6396 56.1749 63.8102 56.1749C66.9807 56.1749 69.5563 53.5993 69.5563 50.4288C69.5563 47.2582 66.9807 44.6826 63.8102 44.6826ZM63.8102 52.6364C62.5967 52.6364 61.6103 51.65 61.6103 50.4366C61.6103 49.2232 62.5967 48.2368 63.8102 48.2368C65.0236 48.2368 66.01 49.2232 66.01 50.4366C66.01 51.65 65.0236 52.6364 63.8102 52.6364Z" fill="white"/>
</svg>
