<svg width="89" height="88" viewBox="0 0 89 88" fill="none" xmlns="http://www.w3.org/2000/svg">
<path d="M23.474 44.886C20.3037 44.886 17.7284 47.4613 17.7284 50.6316C17.7284 53.8018 20.3037 56.3772 23.474 56.3772C26.6442 56.3772 29.2196 53.8018 29.2196 50.6316C29.2196 47.4613 26.6442 44.886 23.474 44.886ZM23.474 52.839C22.2607 52.839 21.2744 51.8527 21.2744 50.6394C21.2744 49.4261 22.2607 48.4398 23.474 48.4398C24.6873 48.4398 25.6736 49.4261 25.6736 50.6394C25.6736 51.8527 24.6873 52.839 23.474 52.839Z" fill="white"/>
<path d="M64.5699 44.886C61.3997 44.886 58.8243 47.4613 58.8243 50.6316C58.8243 53.8018 61.3997 56.3772 64.5699 56.3772C67.7402 56.3772 70.3155 53.8018 70.3155 50.6316C70.3155 47.4613 67.7402 44.886 64.5699 44.886ZM64.5699 52.839C63.3566 52.839 62.3703 51.8527 62.3703 50.6394C62.3703 49.4261 63.3566 48.4398 64.5699 48.4398C65.7832 48.4398 66.7695 49.4261 66.7695 50.6394C66.7695 51.8527 65.7832 52.839 64.5699 52.839Z" fill="white"/>
<path d="M56.4917 50.4517H31.5445C31.341 50.4517 31.1766 50.6552 31.1766 50.8196C31.1766 50.984 31.341 51.1875 31.5445 51.1875H56.4917C56.6952 51.1875 56.8596 50.984 56.8596 50.8196C56.8596 50.6552 56.6952 50.4517 56.4917 50.4517Z" fill="white"/>
<path d="M81.0788 49.4731H84.5465C84.6717 49.1287 84.75 48.7608 84.75 48.3694C84.75 47.1248 84.0533 46.0602 83.0435 45.5044C83.6541 44.7295 84.0142 43.751 84.0142 42.6864V42.3185C84.0142 39.7823 81.9633 37.7314 79.4271 37.7314H75.2001C71.4428 34.9604 62.1199 31.7354 62.1199 31.7354L36.9222 31.6101L27.0122 37.8489L10.339 40.7295C10.339 40.7295 10.3234 40.7295 10.3156 40.7295L10.0103 40.7843L10.0416 40.8156C8.67955 41.2226 7.68542 42.4672 7.68542 43.9624C7.68542 44.3537 7.76369 44.7295 7.88894 45.0817C6.14334 45.1678 4.75 46.6003 4.75 48.3694C4.75 48.7608 4.82827 49.1209 4.95352 49.4731H8.42123C8.82828 49.4731 9.15705 49.8019 9.15705 50.2089C9.15705 50.616 8.82828 50.9447 8.42123 50.9447H6.00245C6.56605 51.3988 7.27055 51.6806 8.05333 51.6806H17.1101C17.0318 51.2657 16.9848 50.8352 16.9848 50.3968C16.9848 46.7177 19.9672 43.7275 23.6541 43.7275C27.341 43.7275 30.3234 46.7099 30.3234 50.3968C30.3234 50.8352 30.2764 51.2657 30.1981 51.6806H58.2138C58.1355 51.2657 58.0886 50.8352 58.0886 50.3968C58.0886 46.7177 61.0709 43.7275 64.7578 43.7275C68.4447 43.7275 71.4193 46.7099 71.4193 50.3968C71.4193 50.8352 71.3723 51.2657 71.294 51.6806H81.4467C82.2294 51.6806 82.934 51.3988 83.4976 50.9447H81.0788C80.6717 50.9447 80.343 50.616 80.343 50.2089C80.343 49.8019 80.6717 49.4731 81.0788 49.4731ZM81.0788 42.1385L83.7715 42.2011C83.8968 43.9154 82.7304 45.3792 82.7304 45.3792L81.0788 45.3166V42.1385ZM10.206 45.0739H8.1864C7.33317 41.9584 10.2686 41.16 10.2686 41.16L10.206 45.0739ZM29.6502 37.9193C29.6502 37.9193 36.0377 32.4477 39.9516 32.5651L47.3801 32.5338L47.3175 37.9741L29.6424 37.9115L29.6502 37.9193ZM37.0475 44.98H38.3312V46.2168H37.0475V44.98ZM35.9907 43.9702V42.7804H37.1805V43.9702H35.9907ZM38.1903 43.9702V42.7804H39.3801V43.9702H38.1903ZM39.2471 44.933H40.7109V46.2168H39.2471V44.933ZM40.3899 43.9702V42.7804H41.5797V43.9702H40.3899ZM56.4917 50.9447H31.5445C31.341 50.9447 31.1766 50.7412 31.1766 50.5768C31.1766 50.4125 31.341 50.2089 31.5445 50.2089H56.4917C56.6952 50.2089 56.8596 50.4125 56.8596 50.5768C56.8596 50.7412 56.6952 50.9447 56.4917 50.9447ZM48.6639 38.0993L48.6013 32.659L58.386 32.7217C61.932 32.9643 63.4584 38.162 63.4584 38.162L48.6561 38.0993H48.6639ZM65.0553 38.162C65.0553 38.162 63.9516 34.7334 61.0161 32.7843C61.0161 32.7843 68.1707 34.068 73.4936 38.2246L65.0553 38.162Z" fill="white"/>
</svg>
