<svg width="89" height="88" viewBox="0 0 89 88" fill="none" xmlns="http://www.w3.org/2000/svg">
<path d="M52.2736 14.5509C51.7437 14.963 51.0372 16.0228 50.7428 16.9059C50.2718 18.1423 49.7419 18.5545 48.6232 18.5545C47.0924 18.5545 44.7963 20.3796 44.7963 21.616C44.8551 23.7356 45.6794 23.9122 54.2754 23.7356C62.2237 23.5589 62.7536 23.5001 62.9302 22.3814C63.1657 20.6151 61.7527 19.0843 59.5154 18.6133C58.1023 18.3778 57.3958 17.8479 57.2781 17.0825C56.7482 14.3154 54.2754 13.0789 52.2736 14.5509ZM55.2763 16.9648C55.5118 18.1423 53.8044 18.9666 52.9212 18.0834C52.0381 17.2003 52.8623 15.4929 54.0399 15.7284C54.6286 15.8461 55.1585 16.376 55.2763 16.9648Z" fill="white"/>
<circle cx="71.8403" cy="64.1777" r="9.88452" fill="white"/>
<path d="M75.8929 60.3567L67.7875 68.4621" stroke="white" stroke-width="2" stroke-linecap="round"/>
<path d="M67.7876 60.3567L75.893 68.4621" stroke="white" stroke-width="2" stroke-linecap="round"/>
<path d="M33.963 21.2628C33.1387 22.0282 33.021 25.0897 33.021 45.8731C33.021 68.1284 33.0799 69.6592 34.0808 70.5423C35.0228 71.4255 36.848 71.5432 47.6812 71.5432C58.8677 71.5432 60.163 71.4255 59.8686 70.6012C59.692 70.0713 59.5154 69.4237 59.5154 69.1293C59.5154 68.8349 54.6286 68.5994 48.0345 68.5994H36.5536V49.4646V30.3297H54.2165H71.8794V41.4574V52.5261L73.3513 52.2318L74.8232 51.9963V37.1005C74.8232 19.5554 75.1176 20.3208 68.4646 20.3208H64.2255V21.9693C64.2255 25.2075 62.9891 25.6196 53.8044 25.6196C46.5626 25.6196 45.4439 25.5019 44.6196 24.5599C44.0309 23.9711 43.6187 22.7347 43.6187 21.9104C43.6187 20.3208 43.6187 20.3208 39.2619 20.3208C36.0826 20.3208 34.6107 20.5563 33.963 21.2628Z" fill="white"/>
<path d="M45.3262 34.9811C44.2664 36.3941 43.7954 36.6296 42.9711 36.2175C42.3824 35.8642 41.7936 35.8642 41.617 36.1586C41.3226 36.6296 41.9113 37.3361 43.4421 38.1604C44.2664 38.6903 48.0345 34.0979 47.2102 33.568C46.857 33.3914 46.0327 34.0391 45.3262 34.9811Z" fill="white"/>
<path d="M19.7738 35.0399C18.243 35.6286 16.4767 37.6304 14.5338 41.0453C13.003 43.8125 12.8853 43.8713 10.0592 43.8713C8.46955 43.8713 7.05652 44.1068 6.82101 44.4601C6.46775 45.0489 8.23404 47.1095 9.41157 47.4628C9.94146 47.6394 9.76483 48.5226 8.94056 50.3477C7.88079 52.6439 7.70416 54.2336 7.70416 61.9464C7.70416 70.1891 7.82191 70.9545 8.82281 71.5432C11.7666 73.074 15.3581 71.7787 15.3581 69.1882V67.4219H23.012H30.6659V65.95C30.6659 64.5958 30.4304 64.4781 28.3109 64.4781C27.0156 64.4781 25.9558 64.2426 25.9558 63.9482C25.9558 63.6538 25.7792 63.0062 25.6026 62.4763C25.3082 61.7109 25.7203 61.5342 27.9576 61.5342H30.6659V54.7635V47.9927H22.4821C17.9486 47.9927 14.1217 47.7572 13.9451 47.4628C13.4152 46.6385 19.5972 37.5127 21.128 36.865C21.8934 36.5118 24.3073 36.2174 26.5446 36.2174C29.8417 36.2174 30.6659 36.0408 30.6659 35.3343C30.6659 34.6277 29.7239 34.4511 25.8381 34.51C23.1298 34.51 20.4215 34.7455 19.7738 35.0399ZM17.1244 53.6448C19.5383 54.8223 20.1271 55.4111 19.9504 56.412C19.7738 57.5307 19.3617 57.7073 16.359 57.8839C12.532 58.0605 11.2367 57.4129 11.2367 55.2933C11.2367 53.9981 12.5909 52.114 13.5918 52.114C13.8862 52.114 15.417 52.8205 17.1244 53.6448Z" fill="white"/>
<path d="M49.9185 35.982C48.8587 37.0418 50.8605 37.395 58.1023 37.395C64.6965 37.395 65.9918 37.2773 65.9918 36.5119C65.9918 35.7465 64.7554 35.6287 58.1612 35.6287C53.8044 35.6287 50.0951 35.8054 49.9185 35.982Z" fill="white"/>
<path d="M45.3262 43.2238C44.2664 44.6368 43.7954 44.8723 42.9711 44.4602C42.3824 44.1069 41.7936 44.1069 41.617 44.4013C41.3226 44.8723 41.9113 45.5788 43.4421 46.4031C44.2664 46.933 48.0345 42.3406 47.2102 41.8107C46.857 41.6341 46.0327 42.2817 45.3262 43.2238Z" fill="white"/>
<path d="M49.9185 44.2247C48.8587 45.2844 50.8605 45.6377 58.1023 45.6377C64.6965 45.6377 65.9918 45.5199 65.9918 44.7545C65.9918 43.9892 64.7554 43.8714 58.1612 43.8714C53.8044 43.8714 50.0951 44.048 49.9185 44.2247Z" fill="white"/>
<path d="M45.3261 51.4664C44.2664 52.8794 43.7954 53.1149 42.9711 52.7028C41.3814 51.8196 41.0282 53.056 42.5589 54.1158C43.972 55.1167 44.6196 54.8223 46.6214 52.0551C48.2111 49.8178 46.9747 49.2879 45.3261 51.4664Z" fill="white"/>
<path d="M49.9185 52.4673C48.8587 53.5271 50.8605 53.8804 58.1023 53.8804C64.6965 53.8804 65.9918 53.7626 65.9918 52.9972C65.9918 52.2318 64.7554 52.1141 58.1612 52.1141C53.8044 52.1141 50.0951 52.2907 49.9185 52.4673Z" fill="white"/>
<path d="M45.3261 59.7091C44.2664 61.1221 43.7954 61.3576 42.9711 60.9455C41.3814 60.0623 41.0282 61.2987 42.5589 62.3585C43.972 63.3594 44.6196 63.065 46.6214 60.2978C48.2111 58.0605 46.9747 57.5306 45.3261 59.7091Z" fill="white"/>
<path d="M49.9185 60.71C48.9176 61.7109 50.5662 62.123 55.394 62.123C59.4565 62.123 60.634 61.9464 60.9284 61.2399C61.1639 60.4745 60.3985 60.3568 55.7473 60.3568C52.7446 60.3568 50.0952 60.5334 49.9185 60.71Z" fill="white"/>
</svg>
