<svg width="89" height="88" viewBox="0 0 89 88" fill="none" xmlns="http://www.w3.org/2000/svg">
<g clip-path="url(#clip0_15_3501)">
<path d="M66.1921 4.08328C66.0617 4.09959 65.605 4.15668 65.1809 4.2056C62.3185 4.53996 59.1952 5.89368 56.7732 7.84271C56.0474 8.42987 54.5958 9.91407 54.0739 10.5991C52.0759 13.2168 50.9098 16.1608 50.5673 19.4227C50.3797 21.2984 50.608 23.908 51.1218 25.645C51.236 26.0282 51.342 26.4115 51.3664 26.5012C51.3909 26.6317 48.7242 29.3391 39.289 38.7663L27.1789 50.8764L26.4612 50.6562C21.3807 49.1312 15.7049 50.1261 11.448 53.2902C10.5999 53.9181 9.07491 55.3779 8.39805 56.2015C6.73444 58.2403 5.48673 60.858 4.94851 63.4431C4.39397 66.1424 4.49183 69.0374 5.23393 71.6144C5.37256 72.0792 5.47858 72.487 5.47858 72.5114C5.47858 72.544 7.48469 70.5705 9.94749 68.1241C14.0902 63.9895 14.449 63.6551 14.9383 63.4431C15.4031 63.2311 15.5662 63.2066 16.2023 63.2066C16.765 63.2066 17.0504 63.2556 17.4256 63.3942C17.8822 63.5736 18.1432 63.8101 21.4867 67.1455C25.3196 70.962 25.3685 71.0191 25.556 72.0303C25.6702 72.6419 25.5724 73.2943 25.2543 73.9875C25.0668 74.3871 24.4633 75.0313 20.712 78.7907C17.8822 81.6205 16.4144 83.1455 16.4959 83.1699C16.5611 83.1944 16.8873 83.2841 17.2217 83.382C19.13 83.8876 21.3563 84.067 23.24 83.8713C27.2197 83.439 30.604 81.8651 33.4011 79.1495C35.7253 76.8825 37.2829 74.2158 38.0576 71.1577C38.4653 69.5512 38.5387 68.8662 38.5387 66.909C38.5306 64.8621 38.4082 63.8998 37.9189 62.2362L37.6661 61.3473L49.7844 49.2372L61.8945 37.119L62.7834 37.3718C68.1575 38.9131 73.8578 37.755 78.2288 34.224C79.0688 33.5471 80.6019 31.9406 81.1891 31.1169C84.0025 27.1862 85.0627 22.5461 84.2064 17.9385C84.1004 17.3595 83.8313 16.2668 83.7171 15.9487C83.6926 15.8672 82.1432 17.3595 79.2971 20.1893C75.236 24.2342 74.8771 24.5685 74.3878 24.7887C73.923 25.0007 73.7599 25.0333 73.0831 25.0333C72.3736 25.0333 72.2594 25.0089 71.7375 24.7642C71.2074 24.5114 70.922 24.2505 67.7253 21.0537C64.5367 17.857 64.2676 17.5716 64.0148 17.0415C63.7701 16.5196 63.7457 16.4054 63.7457 15.6959C63.7457 15.0191 63.7783 14.856 63.9821 14.3911C64.2023 13.9018 64.5448 13.543 68.6631 9.40846L73.0994 4.95586L72.1697 4.6949C70.6692 4.28716 69.4541 4.10775 67.8639 4.07513C67.081 4.05882 66.3308 4.05882 66.1921 4.08328Z" fill="white"/>
<path d="M36.3859 12.9152C34.4369 13.4452 32.7406 13.9019 32.6265 13.9264L32.4226 13.9753L32.9363 17.0986C33.2136 18.8193 33.4501 20.2465 33.4501 20.2791C33.4501 20.3117 33.0097 20.5645 32.4715 20.8336C31.9414 21.1109 31.0689 21.6083 30.5469 21.9427C29.9679 22.3097 29.5602 22.5217 29.495 22.4809C29.4379 22.4483 28.3451 21.5594 27.0566 20.5074C25.7681 19.4554 24.6754 18.5829 24.6183 18.5665C24.5612 18.5584 23.289 19.7735 21.7885 21.2821C19.2605 23.8102 19.0648 24.0222 19.1626 24.1771C19.2197 24.275 20.1005 25.3596 21.1117 26.6073C22.1229 27.8469 22.9873 28.907 23.0281 28.9641C23.077 29.0293 22.9955 29.2169 22.7834 29.5349C22.2534 30.326 21.7151 31.2556 21.2829 32.1037C20.9078 32.8703 20.867 32.9192 20.6632 32.8866C20.5408 32.8622 19.13 32.6338 17.5235 32.3729C15.762 32.0874 14.5796 31.9243 14.5388 31.9733C14.4735 32.0385 12.4756 39.4432 12.5164 39.4758C12.5245 39.484 13.8212 39.9733 15.3869 40.5686C16.9608 41.1639 18.2901 41.6777 18.3553 41.7103C18.4532 41.7592 18.4695 42.118 18.4532 43.7572C18.445 44.8499 18.4532 45.8041 18.4858 45.8775C18.5266 45.9835 18.6081 45.9916 18.9588 45.9345C19.1953 45.9019 20.0597 45.853 20.8915 45.8204C22.8079 45.7551 24.3247 45.8938 26.339 46.326L26.6081 46.3831L26.5429 45.8611C26.4287 44.9478 26.4776 42.4034 26.6326 41.3841C27.603 34.9988 31.7865 29.6736 37.7396 27.2434C40.2432 26.224 43.2116 25.7429 45.7315 25.9549C46.3431 26.012 46.865 26.0365 46.8813 26.0202C46.8976 26.0039 46.8568 25.7592 46.7916 25.4738C46.4491 24.0059 46.3757 23.1252 46.4002 20.9559C46.4083 19.7898 46.4246 18.6318 46.4409 18.3871L46.4572 17.9386H44.3696H42.2819L41.1484 14.9376C40.5286 13.2903 39.9985 11.9447 39.9741 11.9529C39.9496 11.9529 38.3349 12.3851 36.3859 12.9152Z" fill="white"/>
<path d="M62.5387 42.1344C62.6529 43.0314 62.604 45.5023 62.449 46.5217C62.1718 48.4055 61.658 50.0936 60.8914 51.7164C58.29 57.1965 53.2095 60.9641 47.183 61.8938C46.0739 62.065 44.0189 62.1303 43.0321 62.0243C42.5917 61.9835 42.2085 61.9509 42.2003 61.9672C42.184 61.9835 42.2329 62.2608 42.2982 62.5951C42.6978 64.4544 42.8364 66.9172 42.6651 68.7847C42.6162 69.3882 42.5591 69.9182 42.5591 69.9672C42.551 70.0161 43.3012 70.0487 44.6631 70.0569L46.7834 70.0732L47.9006 72.9927C48.5122 74.6073 49.026 75.9529 49.0423 75.9855C49.0749 76.0589 56.4388 74.1099 56.5612 73.9957C56.6101 73.9549 56.4307 72.6746 56.1289 70.8153C55.6397 67.8387 55.6233 67.7083 55.7701 67.5941C55.8517 67.537 55.9495 67.4799 55.9903 67.4799C56.1126 67.4799 58.2248 66.273 58.8527 65.8489C59.1952 65.6206 59.4969 65.4493 59.5377 65.4738C59.5785 65.4983 60.6713 66.3872 61.9597 67.4473C63.2564 68.5074 64.3654 69.3882 64.4225 69.4126C64.5612 69.4697 70.0005 64.063 69.9679 63.9162C69.9516 63.8591 69.079 62.7664 68.027 61.4779C66.975 60.1894 66.078 59.0885 66.0454 59.0314C66.0046 58.958 66.0943 58.7541 66.2982 58.4524C66.7548 57.7674 67.4072 56.642 67.8231 55.8102C68.027 55.4106 68.2227 55.0844 68.2635 55.0844C68.3043 55.0844 69.6825 55.3046 71.3379 55.5737C72.9852 55.851 74.3879 56.0548 74.4531 56.0467C74.5347 56.0304 74.8609 54.9458 75.5377 52.4341C76.0678 50.4606 76.5163 48.7725 76.5408 48.6746C76.5815 48.5197 76.3451 48.4137 73.5887 47.378L70.5958 46.2526V44.1649V42.0773L69.8211 42.118C69.397 42.1425 68.239 42.1588 67.2523 42.1588C65.4419 42.1507 64.6427 42.0773 63.2564 41.7837C62.8568 41.7021 62.5143 41.6287 62.498 41.6287C62.4898 41.6287 62.5061 41.8571 62.5387 42.1344Z" fill="white"/>
</g>
<defs>
<clipPath id="clip0_15_3501">
<rect width="80" height="79.9184" fill="white" transform="translate(4.5 4.03442)"/>
</clipPath>
</defs>
</svg>
