<?xml version="1.0" ?><!DOCTYPE svg  PUBLIC '-//W3C//DTD SVG 1.1//EN'  'http://www.w3.org/Graphics/SVG/1.1/DTD/svg11.dtd'><svg enable-background="new 0 0 25 25" height="25px" version="1.1" viewBox="0 0 25 25" width="25px" xml:space="preserve" xmlns="http://www.w3.org/2000/svg" xmlns:xlink="http://www.w3.org/1999/xlink"><g id="Ebene_2"/><g id="Ebene_1"><g><path d="M20.5,2h-4c-0.019,0-0.034,0.009-0.052,0.011c-0.034,0.003-0.067,0.009-0.101,0.021c-0.033,0.011-0.062,0.025-0.092,0.042    c-0.016,0.009-0.034,0.012-0.049,0.022l-1.759,1.279l-1.641-1.271C12.627,1.967,12.379,1.965,12.2,2.1c0,0-1.143,0.857-1.7,1.275    L8.8,2.1C8.784,2.088,8.765,2.085,8.748,2.075c-0.03-0.018-0.059-0.033-0.091-0.044s-0.064-0.016-0.098-0.02    C8.539,2.01,8.521,2,8.5,2h-4C3.122,2,2,3.121,2,4.5v16C2,21.879,3.122,23,4.5,23h4l0,0c0,0,0,0,0,0c0,0,0,0,0.001,0    c0.099,0,0.185-0.036,0.263-0.086c0.009-0.006,0.021-0.003,0.03-0.01l1.759-1.279l1.641,1.271    c0.178,0.137,0.426,0.139,0.606,0.005l1.7-1.275l1.7,1.275c0.016,0.012,0.036,0.015,0.053,0.025    c0.029,0.017,0.058,0.031,0.091,0.043c0.034,0.011,0.066,0.017,0.101,0.021C16.464,22.991,16.48,23,16.5,23h4    c1.378,0,2.5-1.121,2.5-2.5v-16C23,3.121,21.878,2,20.5,2z M4.5,22C3.673,22,3,21.327,3,20.5v-16C3,3.673,3.673,3,4.5,3H8v2H4.5    C4.224,5,4,5.224,4,5.5S4.224,6,4.5,6H8v1H4.5C4.224,7,4,7.224,4,7.5S4.224,8,4.5,8H8v2H4.5C4.224,10,4,10.224,4,10.5    S4.224,11,4.5,11H8v1H4.5C4.224,12,4,12.224,4,12.5S4.224,13,4.5,13H8v1H4.5C4.224,14,4,14.224,4,14.5S4.224,15,4.5,15H8v2H4.5    C4.224,17,4,17.224,4,17.5S4.224,18,4.5,18H8v1H4.5C4.224,19,4,19.224,4,19.5S4.224,20,4.5,20H8v2H4.5z M14.2,20.6l-1.695,1.271    l-1.636-1.267c-0.176-0.136-0.421-0.139-0.6-0.009L9,21.519V3.5l1.2,0.9c0.086,0.064,0.191,0.1,0.3,0.1    c0.159,0,0.167,0,1.995-1.371l1.636,1.267C14.221,4.465,14.33,4.5,14.438,4.5c0.103,0,0.207-0.032,0.294-0.096L16,3.481V21.5    l-1.2-0.9C14.622,20.467,14.378,20.467,14.2,20.6z M22,20.5c0,0.827-0.673,1.5-1.5,1.5H17V3h3.5C21.327,3,22,3.673,22,4.5V20.5z"/><circle cx="18.5" cy="6.5" r="0.5"/><circle cx="18.5" cy="8.5" r="0.5"/><circle cx="18.5" cy="10.5" r="0.5"/><circle cx="18.5" cy="12.5" r="0.5"/><circle cx="18.5" cy="14.5" r="0.5"/><circle cx="18.5" cy="16.5" r="0.5"/><circle cx="18.5" cy="18.5" r="0.5"/><circle cx="20.5" cy="7.5" r="0.5"/><circle cx="20.5" cy="9.5" r="0.5"/><circle cx="20.5" cy="11.5" r="0.5"/><circle cx="20.5" cy="13.5" r="0.5"/><circle cx="20.5" cy="15.5" r="0.5"/><circle cx="20.5" cy="17.5" r="0.5"/><path d="M12.5,4.938c-0.276,0-0.5,0.224-0.5,0.5v14.125c0,0.276,0.224,0.5,0.5,0.5s0.5-0.224,0.5-0.5V5.438    C13,5.161,12.776,4.938,12.5,4.938z"/><path d="M10.5,7C10.224,7,10,7.224,10,7.5v10c0,0.276,0.224,0.5,0.5,0.5s0.5-0.224,0.5-0.5v-10C11,7.224,10.776,7,10.5,7z"/><path d="M14.5,7C14.224,7,14,7.224,14,7.5v10c0,0.276,0.224,0.5,0.5,0.5s0.5-0.224,0.5-0.5v-10C15,7.224,14.776,7,14.5,7z"/></g></g></svg>