<svg width="25" height="25" viewBox="0 0 25 25" fill="none" xmlns="http://www.w3.org/2000/svg">
<circle cx="12.7032" cy="12.3643" r="11.7647" stroke="#F64B4B" stroke-width="0.470588"/>
<path d="M10.7128 7.68403C10.575 7.82192 10.4976 8.00891 10.4976 8.20389C10.4976 8.39886 10.575 8.58585 10.7128 8.72374L14.3525 12.3634L10.7128 16.0032C10.5789 16.1418 10.5048 16.3276 10.5065 16.5204C10.5081 16.7132 10.5855 16.8976 10.7218 17.0339C10.8581 17.1702 11.0425 17.2476 11.2353 17.2492C11.4281 17.2509 11.6139 17.1768 11.7525 17.0429L15.9121 12.8833C16.05 12.7454 16.1274 12.5584 16.1274 12.3634C16.1274 12.1685 16.05 11.9815 15.9121 11.8436L11.7525 7.68403C11.6147 7.54619 11.4277 7.46875 11.2327 7.46875C11.0377 7.46875 10.8507 7.54619 10.7128 7.68403Z" fill="#F64B4B"/>
</svg>
