<svg width="20" height="20" viewBox="0 0 20 20" fill="none" xmlns="http://www.w3.org/2000/svg">
<g clip-path="url(#clip0_2492_17842)">
<path fill-rule="evenodd" clip-rule="evenodd" d="M10.0002 0.833984C10.4604 0.833984 10.8335 1.20708 10.8335 1.66732V9.16732H18.3335C18.7937 9.16732 19.1668 9.54041 19.1668 10.0007C19.1668 10.4609 18.7937 10.834 18.3335 10.834H10.8335V18.334C10.8335 18.7942 10.4604 19.1673 10.0002 19.1673C9.53992 19.1673 9.16683 18.7942 9.16683 18.334V10.834H1.66683C1.20659 10.834 0.833496 10.4609 0.833496 10.0007C0.833496 9.54041 1.20659 9.16732 1.66683 9.16732H9.16683V1.66732C9.16683 1.20708 9.53992 0.833984 10.0002 0.833984Z" fill="#FF3F3A"/>
</g>
<defs>
<clipPath id="clip0_2492_17842">
<rect width="20" height="20" fill="white"/>
</clipPath>
</defs>
</svg>
