<svg viewBox="0 0 48 48" xmlns="http://www.w3.org/2000/svg" xmlns:xlink="http://www.w3.org/1999/xlink" width="48" height="48">
<defs>



 <path fill="#8b41d1" id="i-2163" d="M39.263,0.029L37.697,0l-2.845,1.896L32,0.945l-3,1l-3-1l-2.852,0.951L20.303,0H1v2H0v44.002h1V48h19.303l2.845-1.896 L26,47.055l3-1l3,1l2.853-0.951L37.697,48h1.479L48,45.779V2.22L39.263,0.029z M12,44.002H2V40h4v1h6V44.002z M12,37H6v1H2v-4h4v1h6 V37z M12,31H6v1H2v-4h4v1h6V31z M12,25H6v1H2v-4h10V25z M12,20H2v-4h4v1h6V20z M12,13H6v1H2v-4h4v1h6V13z M12,7H6v1H2V4h10V7z M19,46h-5V2h5V46z M22,44.465l-1,0.666V2.869l1,0.666V44.465z M25,44.612l-1-0.333V3.721l1-0.333V44.612z M28,44.279l-1,0.333 V3.388l1,0.333V44.279z M31,44.612l-1-0.333V3.721l1-0.333V44.612z M34,44.279l-1,0.333V3.388l1,0.333V44.279z M37,45.131l-1-0.666 V3.535l1-0.666V45.131z M46,44.221l-7,1.762V2.025l7,1.755V44.221z M45,28c0,0.553-0.447,1-1,1s-1-0.447-1-1s0.447-1,1-1 S45,27.447,45,28z M41,26c0-0.553,0.447-1,1-1s1,0.447,1,1s-0.447,1-1,1S41,26.553,41,26z M45,24c0,0.553-0.447,1-1,1s-1-0.447-1-1 s0.447-1,1-1S45,23.447,45,24z M45,20c0,0.553-0.447,1-1,1s-1-0.447-1-1s0.447-1,1-1S45,19.447,45,20z M41,18c0-0.553,0.447-1,1-1 s1,0.447,1,1s-0.447,1-1,1S41,18.553,41,18z M41,22c0-0.553,0.447-1,1-1s1,0.447,1,1s-0.447,1-1,1S41,22.553,41,22z M45,16 c0,0.553-0.447,1-1,1s-1-0.447-1-1s0.447-1,1-1S45,15.447,45,16z M41,14c0-0.553,0.447-1,1-1s1,0.447,1,1s-0.447,1-1,1 S41,14.553,41,14z M43,12c0-0.553,0.447-1,1-1s1,0.447,1,1s-0.447,1-1,1S43,12.553,43,12z M41,10c0-0.553,0.447-1,1-1s1,0.447,1,1 s-0.447,1-1,1S41,10.553,41,10z M41,38c0-0.553,0.447-1,1-1s1,0.447,1,1s-0.447,1-1,1S41,38.553,41,38z M45,36c0,0.553-0.447,1-1,1 s-1-0.447-1-1s0.447-1,1-1S45,35.447,45,36z M45,32c0,0.553-0.447,1-1,1s-1-0.447-1-1s0.447-1,1-1S45,31.447,45,32z M41,30 c0-0.553,0.447-1,1-1s1,0.447,1,1s-0.447,1-1,1S41,30.553,41,30z M41,34c0-0.553,0.447-1,1-1s1,0.447,1,1s-0.447,1-1,1 S41,34.553,41,34z"/> 
</defs>

<use x="0" y="0" xlink:href="#i-2163"/>

</svg>